{
.appVersion = "1286";
DisplayStrings = (
tfEf,
"Harry potter",
"8",
"tfEven if",
"/idotless íîïì",
"ÍÎÏÌ",
"/zeroinferior/oneinferior/twoinferior/threeinferior/fourinferior/fiveinferior/sixinferior/seveninferior/eightinferior/nineinferior",
"/zerosuperior ¹/foursuperior/fivesuperior/sixsuperior/sevensuperior/eightsuperior/ninesuperior",
"Neural nn",
n,
"nñ",
"nñ",
"Ñ",
"/Wcircumflex",
"ã",
"Ã",
"",
"Ü",
"/Wdieresis",
"ê",
"õ",
"ü",
"/Wgrave",
"/Wacute",
"Ú",
hmn,
"ÐHEF ftheft f the",
"Í",
"ÎÏÌ",
O,
"/eightinferior",
"ì",
"/oe",
"íî",
"í",
MACHINE
);
copyright = "Copyright 2020 The Urbanist Project Authors (github.com/coreywho)";
customParameters = (
{
name = Axes;
value = (
{
Name = Weight;
Tag = wght;
},
{
Name = Italic;
Tag = ital;
}
);
},
{
name = fsType;
value = (
);
},
{
name = licenseURL;
value = "http://scripts.sil.org/OFL";
},
{
name = vendorID;
value = KERN;
},
{
name = versionString;
value = "Version 1.2; befe77262ef67d88f1d94aa3d2e49ef1327b4483";
},
{
name = license;
value = "This Font Software is licensed under the SIL Open Font License, Version 1.1. This license is available with a FAQ at: http://scripts.sil.org/OFL";
},
{
name = "Enforce Compatibility Check";
value = 1;
},
{
name = "Variable Font Origin";
value = "B3D2A076-B51C-44C1-915C-935C098147A8";
}
);
date = "2020-02-03 04:54:54 +0000";
designer = "Corey Hu";
designerURL = github.com/coreywho;
disablesAutomaticAlignment = 1;
familyName = Urbanist;
featurePrefixes = (
{
automatic = 1;
code = "languagesystem DFLT dflt;\012";
name = Languagesystems;
}
);
features = (
{
automatic = 1;
code = "feature subs;\012feature sinf;\012feature sups;\012feature frac;\012feature ordn;\012";
name = aalt;
},
{
automatic = 1;

glyphs = (
{
glyphname = A;
lastChange = "2020-03-18 07:44:53 +0000";
layers = (
{
layerId = "10BC12B3-5274-42E3-B5BC-F74F362F0DF4";
paths = (
{
closed = 1;
nodes = (
"80 0 LINE",
"398 0 LINE",
"478 220 LINE",
"1036 220 LINE",
"1116 0 LINE",
"1434 0 LINE",
"926 1400 LINE",
"588 1400 LINE"
);
},
{
closed = 1;
nodes = (
"756 984 LINE",
"926 520 LINE",
"588 520 LINE"
);
}
);
width = 1514;
},
{
layerId = "9AF1F7D9-E035-453E-B2A8-46DE370997D0";
paths = (
{
closed = 1;
nodes = (
"80 0 LINE",
"144 0 LINE",
"268 340 LINE",
"1004 340 LINE",
"1128 0 LINE",
"1192 0 LINE",
"682 1400 LINE",
"590 1400 LINE"
);
},
{
closed = 1;
nodes = (
"636 1350 LINE",
"982 400 LINE",
"290 400 LINE"
);
}
);
width = 1272;
},
{
layerId = "7763577D-A4D2-4749-AE53-49BDF6EC3913";
paths = (
{
closed = 1;
nodes = (
"7 0 LINE",
"330 0 LINE",
"441 220 LINE",
"999 220 LINE",
"1048 0 LINE",
"1361 0 LINE",
"1050 1400 LINE",
"712 1400 LINE"
);
},
{
closed = 1;
nodes = (
"829 984 LINE",
"931 520 LINE",
"593 520 LINE"
);
}
);
width = 1514;
},
{
layerId = "DDA43255-513F-4353-BCA4-425ED8D2F935";
paths = (
{
closed = 1;
nodes = (
"9 0 LINE",
"74 0 LINE",
"246 340 LINE",
"982 340 LINE",
"1058 0 LINE",
"1121 0 LINE",
"808 1400 LINE",
"716 1400 LINE"
);
},
{
closed = 1;
nodes = (
"756 1350 LINE",
"968 400 LINE",
"276 400 LINE"
);
}
);
width = 1272;
}
);
leftKerningGroup = A;
rightKerningGroup = A;
unicode = 0041;
},
{
glyphname = AE;
lastChange = "2020-02-18 22:12:51 +0000";
layers = (
{
layerId = "10BC12B3-5274-42E3-B5BC-F74F362F0DF4";
paths = (
{
closed = 1;
nodes = (
"398 0 LINE",
"478 220 LINE",
"858 220 LINE",
"858 0 LINE",
"1610 0 LINE",
"1610 300 LINE",
"1158 300 LINE",
"1158 550 LINE",
"1514 550 LINE",
"1514 850 LINE",
"1158 850 LINE",
"1158 1100 LINE",
"1610 1100 LINE",
"1610 1400 LINE",
"588 1400 LINE",
"80 0 LINE"
);
},
{
closed = 1;
nodes = (
"798 1100 LINE",
"858 1100 LINE",
"858 520 LINE",
"588 520 LINE"
);
}
);
width = 1710;
},
{
layerId = "9AF1F7D9-E035-453E-B2A8-46DE370997D0";
paths = (
{
closed = 1;
nodes = (
"144 0 LINE",
"268 340 LINE",
"782 340 LINE",
"782 0 LINE",
"1474 0 LINE",
"1474 60 LINE",
"842 60 LINE",
"842 670 LINE",
"1378 670 LINE",
"1378 730 LINE",
"842 730 LINE",
"842 1340 LINE",
"1474 1340 LINE",
"1474 1400 LINE",
"590 1400 LINE",
"80 0 LINE"
);
},
{
closed = 1;
nodes = (
"634 1340 LINE",
"782 1340 LINE",
"782 400 LINE",
"290 400 LINE"
);
}
);
width = 1574;
},
{
layerId = "7763577D-A4D2-4749-AE53-49BDF6EC3913";
paths = (
{
closed = 1;
nodes = (
"330 0 LINE",
"441 220 LINE",
"819 220 LINE",
"788 0 LINE",
"1540 0 LINE",
"1582 300 LINE",
"1130 300 LINE",
"1165 550 LINE",
"1521 550 LINE",
"1563 850 LINE",
"1207 850 LINE",
"1242 1100 LINE",
"1694 1100 LINE",
"1736 1400 LINE",
"712 1400 LINE",
"7 0 LINE"
);
},
{
closed = 1;
nodes = (
"885 1100 LINE",
"942 1100 LINE",
"861 520 LINE",
"593 520 LINE"
);
}
);
width = 1710;
},
{
layerId = "DDA43255-513F-4353-BCA4-425ED8D2F935";
paths = (
{
closed = 1;
nodes = (
"74 0 LINE",
"246 340 LINE",
"760 340 LINE",
"712 0 LINE",
"1404 0 LINE",
"1412 60 LINE",
"780 60 LINE",
"866 670 LINE",
"1402 670 LINE",
"1410 730 LINE",
"874 730 LINE",
"960 1340 LINE",
"1592 1340 LINE",
"1600 1400 LINE",
"716 1400 LINE",
"9 0 LINE"
);
},
{
closed = 1;
nodes = (
"753 1340 LINE",
"900 1340 LINE",
"768 400 LINE",
"276 400 LINE"
);
}
);
width = 1574;
}
);
leftKerningGroup = A;
leftMetricsKey = A;
rightKerningGroup = E;
rightMetricsKey = E;
unicode = 00C6;
},
{
glyphname = B;
lastChange = "2020-02-18 22:12:51 +0000";
layers = (
{
layerId = "10BC12B3-5274-42E3-B5BC-F74F362F0DF4";
paths = (
{
closed = 1;
nodes = (
"704 0 LINE SMOOTH",
"936 0 OFFCURVE",
"1126 170 OFFCURVE",
"1126 382 CURVE SMOOTH",
"1126 506 OFFCURVE",
"1108 721 OFFCURVE",
"930 765 CURVE",
"1034 813 OFFCURVE",
"1060 926 OFFCURVE",
"1060 1014 CURVE SMOOTH",
"1060 1248 OFFCURVE",
"880 1400 OFFCURVE",
"650 1400 CURVE SMOOTH",
"120 1400 LINE",
"120 0 LINE"
);
},
{
closed = 1;
nodes = (
"420 625 LINE",
"672 625 LINE SMOOTH",
"776 625 OFFCURVE",
"860 536 OFFCURVE",
"860 444 CURVE SMOOTH",
"860 334 OFFCURVE",
"776 254 OFFCURVE",
"672 254 CURVE SMOOTH",
"420 254 LINE"
);
},
{
closed = 1;
nodes = (
"420 1144 LINE",
"614 1144 LINE SMOOTH",
"694 1144 OFFCURVE",
"760 1098 OFFCURVE",
"760 1016 CURVE SMOOTH",
"760 934 OFFCURVE",
"694 875 OFFCURVE",
"614 875 CURVE SMOOTH",
"420 875 LINE"
);
}
);
width = 1206;
},
{
layerId = "9AF1F7D9-E035-453E-B2A8-46DE370997D0";
paths = (
{
closed = 1;
nodes = (
"630 0 LINE SMOOTH",
"828 0 OFFCURVE",
"990 152 OFFCURVE",
"990 402 CURVE SMOOTH",
"990 566 OFFCURVE",
"892 731 OFFCURVE",
"732 776 CURVE",
"808 788 OFFCURVE",
"912 912 OFFCURVE",
"912 1060 CURVE SMOOTH",
"912 1282 OFFCURVE",
"756 1398 OFFCURVE",
"564 1398 CURVE SMOOTH",
"120 1398 LINE",
"120 0 LINE"
);
},
{
closed = 1;
nodes = (
"180 740 LINE",
"630 740 LINE SMOOTH",
"796 740 OFFCURVE",
"930 578 OFFCURVE",
"930 402 CURVE SMOOTH",
"930 206 OFFCURVE",
"796 60 OFFCURVE",
"630 60 CURVE SMOOTH",
"180 60 LINE"
);
},
{
closed = 1;
nodes = (
"180 1338 LINE",
"564 1338 LINE SMOOTH",
"722 1338 OFFCURVE",
"852 1250 OFFCURVE",
"852 1060 CURVE SMOOTH",
"852 890 OFFCURVE",
"722 800 OFFCURVE",
"564 800 CURVE SMOOTH",
"180 800 LINE"
);
}
);
width = 1070;
},
{
layerId = "7763577D-A4D2-4749-AE53-49BDF6EC3913";
paths = (
{
closed = 1;
nodes = (
"642 0 LINE SMOOTH",
"874 0 OFFCURVE",
"1078 162 OFFCURVE",
"1107 365 CURVE SMOOTH",
"1126 498 OFFCURVE",
"1131 719 OFFCURVE",
"966 760 CURVE",
"1085 810 OFFCURVE",
"1119 918 OFFCURVE",
"1130 997 CURVE SMOOTH",
"1164 1240 OFFCURVE",
"998 1400 OFFCURVE",
"768 1400 CURVE SMOOTH",
"246 1400 LINE",
"50 0 LINE"
);
},
{
closed = 1;
nodes = (
"438 625 LINE",
"698 625 LINE SMOOTH",
"802 625 OFFCURVE",
"866 544 OFFCURVE",
"854 461 CURVE SMOOTH",
"838 342 OFFCURVE",
"733 254 OFFCURVE",
"629 254 CURVE SMOOTH",
"385 254 LINE"
);
},
{
closed = 1;
nodes = (
"511 1144 LINE",
"713 1144 LINE SMOOTH",
"793 1144 OFFCURVE",
"845 1106 OFFCURVE",
"835 1033 CURVE SMOOTH",
"822 942 OFFCURVE",
"738 875 OFFCURVE",
"658 875 CURVE SMOOTH",
"473 875 LINE"
);
}
);
width = 1206;
},
{
layerId = "DDA43255-513F-4353-BCA4-425ED8D2F935";
paths = (
{
closed = 1;
nodes = (
"561 0 LINE SMOOTH",
"759 0 OFFCURVE",
"941 150 OFFCURVE",
"976 399 CURVE SMOOTH",
"999 564 OFFCURVE",
"923 731 OFFCURVE",
"771 775 CURVE",
"850 788 OFFCURVE",
"970 910 OFFCURVE",
"990 1057 CURVE SMOOTH",
"1022 1280 OFFCURVE",
"881 1398 OFFCURVE",
"689 1398 CURVE SMOOTH",
"246 1398 LINE",
"50 0 LINE"
);
},
{
closed = 1;
nodes = (
"214 740 LINE",
"665 740 LINE SMOOTH",
"831 740 OFFCURVE",
"941 580 OFFCURVE",
"917 405 CURVE SMOOTH",
"889 208 OFFCURVE",
"732 60 OFFCURVE",
"566 60 CURVE SMOOTH",
"118 60 LINE"
);
},
{
closed = 1;
nodes = (
"298 1338 LINE",
"683 1338 LINE SMOOTH",
"841 1338 OFFCURVE",
"958 1252 OFFCURVE",
"931 1063 CURVE SMOOTH",
"907 892 OFFCURVE",
"762 800 OFFCURVE",
"604 800 CURVE SMOOTH",
"222 800 LINE"
);
}
);
width = 1070;
}
);
leftKerningGroup = H;
rightKerningGroup = B;
unicode = 0042;
},
{
glyphname = C;
lastChange = "2020-02-18 22:12:51 +0000";
layers = (
{
layerId = "10BC12B3-5274-42E3-B5BC-F74F362F0DF4";
paths = (
{
closed = 1;
nodes = (
"974 -26 OFFCURVE",
"1172 88 OFFCURVE",
"1298 262 CURVE",
"1030 408 LINE",
"960 326 OFFCURVE",
"860 274 OFFCURVE",
"748 274 CURVE",
"534 274 OFFCURVE",
"360 466 OFFCURVE",
"360 700 CURVE",
"360 936 OFFCURVE",
"534 1126 OFFCURVE",
"748 1126 CURVE",
"860 1126 OFFCURVE",
"960 1074 OFFCURVE",
"1030 994 CURVE",
"1298 1138 LINE",
"1172 1312 OFFCURVE",
"974 1426 OFFCURVE",
"748 1426 CURVE",
"368 1426 OFFCURVE",
"60 1102 OFFCURVE",
"60 700 CURVE",
"60 300 OFFCURVE",
"368 -26 OFFCURVE",
"748 -26 CURVE"
);
}
);
width = 1398;
},
{
layerId = "9AF1F7D9-E035-453E-B2A8-46DE370997D0";
paths = (
{
closed = 1;
nodes = (
"974 -26 OFFCURVE",
"1172 86 OFFCURVE",
"1298 262 CURVE",
"1246 290 LINE",
"1136 138 OFFCURVE",
"952 34 OFFCURVE",
"748 34 CURVE SMOOTH",
"402 34 OFFCURVE",
"120 332 OFFCURVE",
"120 700 CURVE SMOOTH",
"120 1058 OFFCURVE",
"396 1366 OFFCURVE",
"748 1366 CURVE SMOOTH",
"942 1366 OFFCURVE",
"1132 1266 OFFCURVE",
"1246 1108 CURVE",
"1298 1136 LINE",
"1172 1312 OFFCURVE",
"974 1426 OFFCURVE",
"748 1426 CURVE SMOOTH",
"368 1426 OFFCURVE",
"60 1100 OFFCURVE",
"60 700 CURVE SMOOTH",
"60 298 OFFCURVE",
"368 -26 OFFCURVE",
"748 -26 CURVE SMOOTH"
);
}
);
width = 1398;
},
{
layerId = "7763577D-A4D2-4749-AE53-49BDF6EC3913";
paths = (
{
closed = 1;
nodes = (
"908 -26 OFFCURVE",
"1118 81 OFFCURVE",
"1269 255 CURVE",
"1011 414 LINE",
"931 332 OFFCURVE",
"820 274 OFFCURVE",
"699 274 CURVE",
"494 274 OFFCURVE",
"354 458 OFFCURVE",
"386 683 CURVE",
"420 928 OFFCURVE",
"630 1126 OFFCURVE",
"853 1126 CURVE",
"956 1126 OFFCURVE",
"1047 1080 OFFCURVE",
"1106 1000 CURVE",
"1383 1131 LINE",
"1280 1305 OFFCURVE",
"1096 1426 OFFCURVE",
"861 1426 CURVE",
"490 1426 OFFCURVE",
"146 1110 OFFCURVE",
"90 717 CURVE",
"33 308 OFFCURVE",
"302 -26 OFFCURVE",
"691 -26 CURVE"
);
}
);
width = 1398;
},
{
layerId = "DDA43255-513F-4353-BCA4-425ED8D2F935";
paths = (
{
closed = 1;
nodes = (
"902 -26 OFFCURVE",
"1115 85 OFFCURVE",
"1265 261 CURVE",
"1215 291 LINE",
"1084 139 OFFCURVE",
"885 34 OFFCURVE",
"679 34 CURVE SMOOTH",
"335 34 OFFCURVE",
"96 330 OFFCURVE",
"148 697 CURVE SMOOTH",
"198 1056 OFFCURVE",
"519 1366 OFFCURVE",
"873 1366 CURVE SMOOTH",
"1065 1366 OFFCURVE",
"1241 1267 OFFCURVE",
"1333 1109 CURVE",
"1387 1135 LINE",
"1285 1311 OFFCURVE",
"1102 1426 OFFCURVE",
"875 1426 CURVE SMOOTH",
"496 1426 OFFCURVE",
"145 1102 OFFCURVE",
"89 703 CURVE SMOOTH",
"32 300 OFFCURVE",
"296 -26 OFFCURVE",
"677 -26 CURVE SMOOTH"
);
}
);
width = 1398;
}
);
leftKerningGroup = O;
rightKerningGroup = C;
unicode = 0043;
},
{
glyphname = D;
lastChange = "2020-02-18 22:12:51 +0000";
layers = (
{
layerId = "10BC12B3-5274-42E3-B5BC-F74F362F0DF4";
paths = (
{
closed = 1;
nodes = (
"584 0 LINE SMOOTH",
"970 0 OFFCURVE",
"1284 314 OFFCURVE",
"1284 700 CURVE SMOOTH",
"1284 1086 OFFCURVE",
"970 1400 OFFCURVE",
"584 1400 CURVE SMOOTH",
"120 1400 LINE",
"120 0 LINE"
);
},
{
closed = 1;
nodes = (
"420 1100 LINE",
"584 1100 LINE SMOOTH",
"802 1100 OFFCURVE",
"984 920 OFFCURVE",
"984 700 CURVE SMOOTH",
"984 478 OFFCURVE",
"800 300 OFFCURVE",
"584 300 CURVE SMOOTH",
"420 300 LINE"
);
}
);
width = 1344;
},
{
layerId = "9AF1F7D9-E035-453E-B2A8-46DE370997D0";
paths = (
{
closed = 1;
nodes = (
"582 0 LINE SMOOTH",
"970 0 OFFCURVE",
"1282 314 OFFCURVE",
"1282 700 CURVE SMOOTH",
"1282 1086 OFFCURVE",
"970 1400 OFFCURVE",
"582 1400 CURVE SMOOTH",
"120 1400 LINE",
"120 0 LINE"
);
},
{
closed = 1;
nodes = (
"180 1340 LINE",
"582 1340 LINE SMOOTH",
"936 1340 OFFCURVE",
"1222 1054 OFFCURVE",
"1222 700 CURVE SMOOTH",
"1222 346 OFFCURVE",
"938 60 OFFCURVE",
"582 60 CURVE SMOOTH",
"180 60 LINE"
);
}
);
width = 1342;
},
{
layerId = "7763577D-A4D2-4749-AE53-49BDF6EC3913";
paths = (
{
closed = 1;
nodes = (
"522 0 LINE SMOOTH",
"908 0 OFFCURVE",
"1257 306 OFFCURVE",
"1310 683 CURVE SMOOTH",
"1365 1078 OFFCURVE",
"1088 1400 OFFCURVE",
"702 1400 CURVE SMOOTH",
"246 1400 LINE",
"50 0 LINE"
);
},
{
closed = 1;
nodes = (
"504 1100 LINE",
"677 1100 LINE SMOOTH",
"895 1100 OFFCURVE",
"1044 928 OFFCURVE",
"1014 717 CURVE SMOOTH",
"982 486 OFFCURVE",
"764 300 OFFCURVE",
"548 300 CURVE SMOOTH",
"392 300 LINE"
);
}
);
width = 1344;
},
{
layerId = "DDA43255-513F-4353-BCA4-425ED8D2F935";
paths = (
{
closed = 1;
nodes = (
"513 0 LINE SMOOTH",
"901 0 OFFCURVE",
"1256 312 OFFCURVE",
"1310 697 CURVE SMOOTH",
"1364 1084 OFFCURVE",
"1095 1400 OFFCURVE",
"707 1400 CURVE SMOOTH",
"246 1400 LINE",
"50 0 LINE"
);
},
{
closed = 1;
nodes = (
"298 1340 LINE",
"702 1340 LINE SMOOTH",
"1056 1340 OFFCURVE",
"1300 1056 OFFCURVE",
"1251 703 CURVE SMOOTH",
"1201 348 OFFCURVE",
"874 60 OFFCURVE",
"518 60 CURVE SMOOTH",
"118 60 LINE"
);
}
);
width = 1342;
}
);
leftKerningGroup = H;
rightKerningGroup = O;
unicode = 0044;
},
{
glyphname = Eth;
lastChange = "2020-02-18 22:12:51 +0000";
layers = (
{
layerId = "10BC12B3-5274-42E3-B5BC-F74F362F0DF4";
paths = (
{
closed = 1;
nodes = (
"702 0 LINE SMOOTH",
"1088 0 OFFCURVE",
"1402 314 OFFCURVE",
"1402 700 CURVE SMOOTH",
"1402 1086 OFFCURVE",
"1088 1400 OFFCURVE",
"702 1400 CURVE SMOOTH",
"240 1400 LINE",
"240 900 LINE",
"100 900 LINE",
"100 600 LINE",
"240 600 LINE",
"240 0 LINE"
);
},
{
closed = 1;
nodes = (
"540 600 LINE",
"778 600 LINE",
"778 900 LINE",
"540 900 LINE",
"540 1100 LINE",
"702 1100 LINE SMOOTH",
"922 1100 OFFCURVE",
"1102 920 OFFCURVE",
"1102 700 CURVE SMOOTH",
"1102 480 OFFCURVE",
"922 300 OFFCURVE",
"702 300 CURVE SMOOTH",
"540 300 LINE"
);
}
);
width = 1462;
},
{
layerId = "9AF1F7D9-E035-453E-B2A8-46DE370997D0";
paths = (
{
closed = 1;
nodes = (
"692 0 LINE SMOOTH",
"1078 0 OFFCURVE",
"1392 314 OFFCURVE",
"1392 700 CURVE SMOOTH",
"1392 1086 OFFCURVE",
"1078 1400 OFFCURVE",
"692 1400 CURVE SMOOTH",
"228 1400 LINE",
"228 780 LINE",
"100 780 LINE",
"100 720 LINE",
"228 720 LINE",
"228 0 LINE"
);
},
{
closed = 1;
nodes = (
"288 720 LINE",
"686 720 LINE",
"686 780 LINE",
"288 780 LINE",
"288 1340 LINE",
"692 1340 LINE SMOOTH",
"1036 1340 OFFCURVE",
"1332 1060 OFFCURVE",
"1332 700 CURVE SMOOTH",
"1332 354 OFFCURVE",
"1052 60 OFFCURVE",
"692 60 CURVE SMOOTH",
"288 60 LINE"
);
}
);
width = 1452;
},
{
layerId = "7763577D-A4D2-4749-AE53-49BDF6EC3913";
paths = (
{
closed = 1;
nodes = (
"640 0 LINE SMOOTH",
"1026 0 OFFCURVE",
"1375 306 OFFCURVE",
"1428 683 CURVE SMOOTH",
"1483 1078 OFFCURVE",
"1206 1400 OFFCURVE",
"820 1400 CURVE SMOOTH",
"366 1400 LINE",
"296 900 LINE",
"156 900 LINE",
"114 600 LINE",
"254 600 LINE",
"170 0 LINE"
);
},
{
closed = 1;
nodes = (
"554 600 LINE",
"792 600 LINE",
"834 900 LINE",
"596 900 LINE",
"624 1100 LINE",
"795 1100 LINE SMOOTH",
"1015 1100 OFFCURVE",
"1162 928 OFFCURVE",
"1132 717 CURVE SMOOTH",
"1100 488 OFFCURVE",
"886 300 OFFCURVE",
"666 300 CURVE SMOOTH",
"512 300 LINE"
);
}
);
width = 1462;
},
{
layerId = "DDA43255-513F-4353-BCA4-425ED8D2F935";
paths = (
{
closed = 1;
nodes = (
"623 0 LINE SMOOTH",
"1009 0 OFFCURVE",
"1366 312 OFFCURVE",
"1420 697 CURVE SMOOTH",
"1474 1084 OFFCURVE",
"1203 1400 OFFCURVE",
"817 1400 CURVE SMOOTH",
"354 1400 LINE",
"267 780 LINE",
"139 780 LINE",
"131 720 LINE",
"259 720 LINE",
"158 0 LINE"
);
},
{
closed = 1;
nodes = (
"319 720 LINE",
"717 720 LINE",
"725 780 LINE",
"327 780 LINE",
"406 1340 LINE",
"812 1340 LINE SMOOTH",
"1156 1340 OFFCURVE",
"1411 1062 OFFCURVE",
"1361 703 CURVE SMOOTH",
"1312 356 OFFCURVE",
"988 60 OFFCURVE",
"628 60 CURVE SMOOTH",
"226 60 LINE"
);
}
);
width = 1452;
}
);
leftKerningGroup = H;
leftMetricsKey = "=D-20";
rightKerningGroup = O;
rightMetricsKey = D;
unicode = 00D0;
},
{
glyphname = E;
lastChange = "2020-02-18 22:12:51 +0000";
layers = (
{
layerId = "10BC12B3-5274-42E3-B5BC-F74F362F0DF4";
paths = (
{
closed = 1;
nodes = (
"1012 0 LINE",
"1012 300 LINE",
"420 300 LINE",
"420 600 LINE",
"876 600 LINE",
"876 900 LINE",
"420 900 LINE",
"420 1100 LINE",
"1012 1100 LINE",
"1012 1400 LINE",
"120 1400 LINE",
"120 0 LINE"
);
}
);
width = 1112;
},
{
layerId = "9AF1F7D9-E035-453E-B2A8-46DE370997D0";
paths = (
{
closed = 1;
nodes = (
"952 0 LINE",
"952 60 LINE",
"180 60 LINE",
"180 720 LINE",
"836 720 LINE",
"836 780 LINE",
"180 780 LINE",
"180 1340 LINE",
"952 1340 LINE",
"952 1400 LINE",
"120 1400 LINE",
"120 0 LINE"
);
}
);
width = 1052;
},
{
layerId = "7763577D-A4D2-4749-AE53-49BDF6EC3913";
paths = (
{
closed = 1;
nodes = (
"942 0 LINE",
"984 300 LINE",
"392 300 LINE",
"434 600 LINE",
"890 600 LINE",
"932 900 LINE",
"476 900 LINE",
"504 1100 LINE",
"1096 1100 LINE",
"1138 1400 LINE",
"246 1400 LINE",
"50 0 LINE"
);
}
);
width = 1112;
},
{
layerId = "DDA43255-513F-4353-BCA4-425ED8D2F935";
paths = (
{
closed = 1;
nodes = (
"882 0 LINE",
"890 60 LINE",
"118 60 LINE",
"211 720 LINE",
"867 720 LINE",
"875 780 LINE",
"219 780 LINE",
"298 1340 LINE",
"1070 1340 LINE",
"1078 1400 LINE",
"246 1400 LINE",
"50 0 LINE"
);
}
);
width = 1052;
}
);
leftKerningGroup = H;
rightKerningGroup = E;
unicode = 0045;
},
{
glyphname = F;
lastChange = "2020-02-18 22:12:51 +0000";
layers = (
{
layerId = "10BC12B3-5274-42E3-B5BC-F74F362F0DF4";
paths = (
{
closed = 1;
nodes = (
"420 0 LINE",
"420 600 LINE",
"856 600 LINE",
"856 900 LINE",
"420 900 LINE",
"420 1100 LINE",
"952 1100 LINE",
"952 1400 LINE",
"120 1400 LINE",
"120 0 LINE"
);
}
);
width = 972;
},
{
layerId = "9AF1F7D9-E035-453E-B2A8-46DE370997D0";
paths = (
{
closed = 1;
nodes = (
"180 0 LINE",
"180 720 LINE",
"836 720 LINE",
"836 780 LINE",
"180 780 LINE",
"180 1340 LINE",
"932 1340 LINE",
"932 1400 LINE",
"120 1400 LINE",
"120 0 LINE"
);
}
);
width = 952;
},
{
layerId = "7763577D-A4D2-4749-AE53-49BDF6EC3913";
paths = (
{
closed = 1;
nodes = (
"350 0 LINE",
"434 600 LINE",
"870 600 LINE",
"912 900 LINE",
"476 900 LINE",
"504 1100 LINE",
"1036 1100 LINE",
"1078 1400 LINE",
"246 1400 LINE",
"50 0 LINE"
);
}
);
width = 972;
},
{
layerId = "DDA43255-513F-4353-BCA4-425ED8D2F935";
paths = (
{
closed = 1;
nodes = (
"110 0 LINE",
"211 720 LINE",
"867 720 LINE",
"875 780 LINE",
"219 780 LINE",
"298 1340 LINE",
"1050 1340 LINE",
"1058 1400 LINE",
"246 1400 LINE",
"50 0 LINE"
);
}
);
width = 952;
}
);
leftKerningGroup = H;
rightKerningGroup = F;
unicode = 0046;
},
{
glyphname = G;
lastChange = "2020-02-18 22:12:51 +0000";
layers = (
{
layerId = "10BC12B3-5274-42E3-B5BC-F74F362F0DF4";
paths = (
{
closed = 1;
nodes = (
"1144 -26 OFFCURVE",
"1456 322 OFFCURVE",
"1436 740 CURVE",
"894 740 LINE",
"894 480 LINE",
"1082 480 LINE",
"1000 338 OFFCURVE",
"874 274 OFFCURVE",
"752 274 CURVE SMOOTH",
"536 274 OFFCURVE",
"360 460 OFFCURVE",
"360 696 CURVE SMOOTH",
"360 952 OFFCURVE",
"550 1126 OFFCURVE",
"750 1126 CURVE SMOOTH",
"848 1126 OFFCURVE",
"948 1084 OFFCURVE",
"1030 992 CURVE",
"1298 1136 LINE",
"1146 1338 OFFCURVE",
"948 1424 OFFCURVE",
"754 1424 CURVE SMOOTH",
"398 1424 OFFCURVE",
"60 1130 OFFCURVE",
"60 702 CURVE SMOOTH",
"60 304 OFFCURVE",
"356 -26 OFFCURVE",
"748 -26 CURVE SMOOTH"
);
}
);
width = 1497;
},
{
layerId = "9AF1F7D9-E035-453E-B2A8-46DE370997D0";
paths = (
{
closed = 1;
nodes = (
"1110 -26 OFFCURVE",
"1412 272 OFFCURVE",
"1436 642 CURVE",
"896 642 LINE",
"896 582 LINE",
"1368 582 LINE",
"1322 282 OFFCURVE",
"1064 34 OFFCURVE",
"750 34 CURVE SMOOTH",
"402 34 OFFCURVE",
"120 336 OFFCURVE",
"120 700 CURVE SMOOTH",
"120 1058 OFFCURVE",
"398 1366 OFFCURVE",
"750 1366 CURVE SMOOTH",
"940 1366 OFFCURVE",
"1126 1272 OFFCURVE",
"1246 1108 CURVE",
"1300 1138 LINE",
"1174 1312 OFFCURVE",
"974 1426 OFFCURVE",
"750 1426 CURVE SMOOTH",
"368 1426 OFFCURVE",
"60 1100 OFFCURVE",
"60 700 CURVE SMOOTH",
"60 300 OFFCURVE",
"368 -26 OFFCURVE",
"750 -26 CURVE SMOOTH"
);
}
);
width = 1496;
},
{
layerId = "7763577D-A4D2-4749-AE53-49BDF6EC3913";
paths = (
{
closed = 1;
nodes = (
"1078 -26 OFFCURVE",
"1429 314 OFFCURVE",
"1468 732 CURVE",
"928 740 LINE",
"891 480 LINE",
"1076 487 LINE",
"974 345 OFFCURVE",
"834 274 OFFCURVE",
"703 274 CURVE SMOOTH",
"496 274 OFFCURVE",
"353 452 OFFCURVE",
"385 679 CURVE SMOOTH",
"422 944 OFFCURVE",
"646 1126 OFFCURVE",
"855 1126 CURVE SMOOTH",
"944 1126 OFFCURVE",
"1037 1090 OFFCURVE",
"1106 998 CURVE",
"1383 1129 LINE",
"1258 1331 OFFCURVE",
"1069 1424 OFFCURVE",
"867 1424 CURVE SMOOTH",
"519 1424 OFFCURVE",
"150 1138 OFFCURVE",
"91 719 CURVE SMOOTH",
"34 312 OFFCURVE",
"290 -26 OFFCURVE",
"691 -26 CURVE SMOOTH"
);
}
);
width = 1497;
},
{
layerId = "DDA43255-513F-4353-BCA4-425ED8D2F935";
paths = (
{
closed = 1;
nodes = (
"1038 -26 OFFCURVE",
"1380 270 OFFCURVE",
"1456 640 CURVE",
"916 642 LINE",
"908 582 LINE",
"1380 584 LINE",
"1291 284 OFFCURVE",
"997 34 OFFCURVE",
"681 34 CURVE SMOOTH",
"335 34 OFFCURVE",
"97 334 OFFCURVE",
"148 697 CURVE SMOOTH",
"198 1056 OFFCURVE",
"521 1366 OFFCURVE",
"875 1366 CURVE SMOOTH",
"1063 1366 OFFCURVE",
"1236 1273 OFFCURVE",
"1333 1109 CURVE",
"1389 1137 LINE",
"1287 1311 OFFCURVE",
"1102 1426 OFFCURVE",
"877 1426 CURVE SMOOTH",
"496 1426 OFFCURVE",
"145 1102 OFFCURVE",
"89 703 CURVE SMOOTH",
"32 302 OFFCURVE",
"296 -26 OFFCURVE",
"679 -26 CURVE SMOOTH"
);
}
);
width = 1496;
}
);
leftKerningGroup = O;
rightKerningGroup = O;
unicode = 0047;
},
{
glyphname = H;
lastChange = "2020-02-18 22:12:51 +0000";
layers = (
{
layerId = "10BC12B3-5274-42E3-B5BC-F74F362F0DF4";
paths = (
{
closed = 1;
nodes = (
"916 900 LINE",
"420 900 LINE",
"420 1400 LINE",
"120 1400 LINE",
"120 0 LINE",
"420 0 LINE",
"420 600 LINE",
"916 600 LINE",
"916 0 LINE",
"1216 0 LINE",
"1216 1400 LINE",
"916 1400 LINE"
);
}
);
width = 1336;
},
{
layerId = "9AF1F7D9-E035-453E-B2A8-46DE370997D0";
paths = (
{
closed = 1;
nodes = (
"1034 780 LINE",
"180 780 LINE",
"180 1400 LINE",
"120 1400 LINE",
"120 0 LINE",
"180 0 LINE",
"180 720 LINE",
"1034 720 LINE",
"1034 0 LINE",
"1094 0 LINE",
"1094 1400 LINE",
"1034 1400 LINE"
);
}
);
width = 1214;
},
{
layerId = "7763577D-A4D2-4749-AE53-49BDF6EC3913";
paths = (
{
closed = 1;
nodes = (
"972 900 LINE",
"476 900 LINE",
"546 1400 LINE",
"246 1400 LINE",
"50 0 LINE",
"350 0 LINE",
"434 600 LINE",
"930 600 LINE",
"846 0 LINE",
"1146 0 LINE",
"1342 1400 LINE",
"1042 1400 LINE"
);
}
);
width = 1336;
},
{
layerId = "DDA43255-513F-4353-BCA4-425ED8D2F935";
paths = (
{
closed = 1;
nodes = (
"1073 780 LINE",
"219 780 LINE",
"306 1400 LINE",
"246 1400 LINE",
"50 0 LINE",
"110 0 LINE",
"211 720 LINE",
"1065 720 LINE",
"964 0 LINE",
"1024 0 LINE",
"1220 1400 LINE",
"1160 1400 LINE"
);
}
);
width = 1214;
}
);
leftKerningGroup = H;
rightKerningGroup = H;
unicode = 0048;
},
{
glyphname = I;
lastChange = "2020-02-18 22:12:51 +0000";
layers = (
{
layerId = "10BC12B3-5274-42E3-B5BC-F74F362F0DF4";
paths = (
{
closed = 1;
nodes = (
"450 0 LINE",
"450 1400 LINE",
"150 1400 LINE",
"150 0 LINE"
);
}
);
width = 600;
},
{
layerId = "9AF1F7D9-E035-453E-B2A8-46DE370997D0";
paths = (
{
closed = 1;
nodes = (
"210 0 LINE",
"210 1400 LINE",
"150 1400 LINE",
"150 0 LINE"
);
}
);
width = 360;
},
{
layerId = "7763577D-A4D2-4749-AE53-49BDF6EC3913";
paths = (
{
closed = 1;
nodes = (
"380 0 LINE",
"576 1400 LINE",
"276 1400 LINE",
"80 0 LINE"
);
}
);
width = 600;
},
{
layerId = "DDA43255-513F-4353-BCA4-425ED8D2F935";
paths = (
{
closed = 1;
nodes = (
"140 0 LINE",
"336 1400 LINE",
"276 1400 LINE",
"80 0 LINE"
);
}
);
width = 360;
}
);
leftKerningGroup = H;
rightKerningGroup = H;
unicode = 0049;
},
{
glyphname = J;
lastChange = "2020-02-18 22:12:51 +0000";
layers = (
{
layerId = "10BC12B3-5274-42E3-B5BC-F74F362F0DF4";
paths = (
{
closed = 1;
nodes = (
"602 -26 OFFCURVE",
"814 186 OFFCURVE",
"814 446 CURVE SMOOTH",
"814 1400 LINE",
"514 1400 LINE",
"514 446 LINE SMOOTH",
"514 352 OFFCURVE",
"436 274 OFFCURVE",
"342 274 CURVE SMOOTH",
"290 274 OFFCURVE",
"254 296 OFFCURVE",
"232 314 CURVE",
"40 84 LINE",
"124 12 OFFCURVE",
"232 -26 OFFCURVE",
"342 -26 CURVE SMOOTH"
);
}
);
width = 934;
},
{
layerId = "9AF1F7D9-E035-453E-B2A8-46DE370997D0";
paths = (
{
closed = 1;
nodes = (
"460 -26 OFFCURVE",
"618 152 OFFCURVE",
"618 346 CURVE SMOOTH",
"618 1400 LINE",
"558 1400 LINE",
"558 346 LINE SMOOTH",
"558 184 OFFCURVE",
"426 34 OFFCURVE",
"264 34 CURVE SMOOTH",
"196 34 OFFCURVE",
"130 58 OFFCURVE",
"78 102 CURVE",
"40 56 LINE",
"102 2 OFFCURVE",
"182 -26 OFFCURVE",
"264 -26 CURVE SMOOTH"
);
}
);
width = 738;
},
{
layerId = "7763577D-A4D2-4749-AE53-49BDF6EC3913";
paths = (
{
closed = 1;
nodes = (
"536 -26 OFFCURVE",
"769 178 OFFCURVE",
"805 438 CURVE SMOOTH",
"940 1400 LINE",
"640 1400 LINE",
"508 454 LINE SMOOTH",
"494 360 OFFCURVE",
"396 274 OFFCURVE",
"293 274 CURVE SMOOTH",
"250 274 OFFCURVE",
"218 291 OFFCURVE",
"199 309 CURVE",
"-14 89 LINE",
"63 17 OFFCURVE",
"166 -26 OFFCURVE",
"285 -26 CURVE SMOOTH"
);
}
);
width = 934;
},
{
layerId = "DDA43255-513F-4353-BCA4-425ED8D2F935";
paths = (
{
closed = 1;
nodes = (
"388 -26 OFFCURVE",
"569 150 OFFCURVE",
"596 344 CURVE SMOOTH",
"744 1400 LINE",
"684 1400 LINE",
"537 348 LINE SMOOTH",
"514 186 OFFCURVE",
"359 34 OFFCURVE",
"195 34 CURVE SMOOTH",
"129 34 OFFCURVE",
"66 57 OFFCURVE",
"21 101 CURVE",
"-22 57 LINE",
"33 3 OFFCURVE",
"110 -26 OFFCURVE",
"193 -26 CURVE SMOOTH"
);
}
);
width = 738;
}
);
leftKerningGroup = J;
rightKerningGroup = J;
unicode = 004A;
},
{
glyphname = K;
lastChange = "2020-02-18 22:12:51 +0000";
layers = (
{
layerId = "10BC12B3-5274-42E3-B5BC-F74F362F0DF4";
paths = (
{
closed = 1;
nodes = (
"656 740 LINE",
"1210 1400 LINE",
"818 1400 LINE",
"420 924 LINE",
"420 1400 LINE",
"120 1400 LINE",
"120 0 LINE",
"420 0 LINE",
"420 458 LINE",
"460 506 LINE",
"818 0 LINE",
"1210 0 LINE"
);
}
);
width = 1230;
},
{
layerId = "9AF1F7D9-E035-453E-B2A8-46DE370997D0";
paths = (
{
closed = 1;
nodes = (
"378 738 LINE",
"934 1400 LINE",
"856 1400 LINE",
"180 594 LINE",
"180 1400 LINE",
"120 1400 LINE",
"120 0 LINE",
"180 0 LINE",
"180 500 LINE",
"338 690 LINE",
"848 0 LINE",
"924 0 LINE"
);
}
);
width = 984;
},
{
layerId = "7763577D-A4D2-4749-AE53-49BDF6EC3913";
paths = (
{
closed = 1;
nodes = (
"690 740 LINE",
"1340 1400 LINE",
"941 1400 LINE",
"476 924 LINE",
"547 1400 LINE",
"246 1400 LINE",
"50 0 LINE",
"350 0 LINE",
"417 458 LINE",
"467 506 LINE",
"751 0 LINE",
"1137 0 LINE"
);
}
);
width = 1230;
},
{
layerId = "DDA43255-513F-4353-BCA4-425ED8D2F935";
paths = (
{
closed = 1;
nodes = (
"411 738 LINE",
"1061 1400 LINE",
"982 1400 LINE",
"193 594 LINE",
"306 1400 LINE",
"246 1400 LINE",
"50 0 LINE",
"110 0 LINE",
"181 500 LINE",
"366 690 LINE",
"778 0 LINE",
"853 0 LINE"
);
}
);
width = 984;
}
);
leftKerningGroup = H;
rightKerningGroup = K;
unicode = 004B;
},
{
glyphname = L;
lastChange = "2020-02-18 22:12:51 +0000";
layers = (
{
layerId = "10BC12B3-5274-42E3-B5BC-F74F362F0DF4";
paths = (
{
closed = 1;
nodes = (
"970 0 LINE",
"970 300 LINE",
"420 300 LINE",
"420 1400 LINE",
"120 1400 LINE",
"120 0 LINE"
);
}
);
width = 1070;
},
{
layerId = "9AF1F7D9-E035-453E-B2A8-46DE370997D0";
paths = (
{
closed = 1;
nodes = (
"870 0 LINE",
"870 60 LINE",
"180 60 LINE",
"180 1400 LINE",
"120 1400 LINE",
"120 0 LINE"
);
}
);
width = 970;
},
{
layerId = "7763577D-A4D2-4749-AE53-49BDF6EC3913";
paths = (
{
closed = 1;
nodes = (
"900 0 LINE",
"942 300 LINE",
"392 300 LINE",
"546 1400 LINE",
"246 1400 LINE",
"50 0 LINE"
);
}
);
width = 1070;
},
{
layerId = "DDA43255-513F-4353-BCA4-425ED8D2F935";
paths = (
{
closed = 1;
nodes = (
"800 0 LINE",
"808 60 LINE",
"118 60 LINE",
"306 1400 LINE",
"246 1400 LINE",
"50 0 LINE"
);
}
);
width = 970;
}
);
leftKerningGroup = H;
leftMetricsKey = H;
rightKerningGroup = L;
unicode = 004C;
},
{
glyphname = M;
lastChange = "2020-02-18 22:12:51 +0000";
layers = (
{
layerId = "10BC12B3-5274-42E3-B5BC-F74F362F0DF4";
paths = (
{
closed = 1;
nodes = (
"426 0 LINE",
"572 756 LINE",
"858 0 LINE",
"1066 0 LINE",
"1352 756 LINE",
"1498 0 LINE",
"1804 0 LINE",
"1532 1400 LINE",
"1276 1400 LINE",
"962 574 LINE",
"648 1400 LINE",
"392 1400 LINE",
"120 0 LINE"
);
}
);
width = 1924;
},
{
layerId = "9AF1F7D9-E035-453E-B2A8-46DE370997D0";
paths = (
{
closed = 1;
nodes = (
"180 0 LINE",
"418 1228 LINE",
"830 138 LINE",
"860 138 LINE",
"1272 1228 LINE",
"1510 0 LINE",
"1572 0 LINE",
"1300 1400 LINE",
"1274 1400 LINE",
"846 268 LINE",
"416 1400 LINE",
"390 1400 LINE",
"120 0 LINE"
);
}
);
width = 1692;
},
{
layerId = "7763577D-A4D2-4749-AE53-49BDF6EC3913";
paths = (
{
closed = 1;
nodes = (
"357 0 LINE",
"612 756 LINE",
"790 0 LINE",
"998 0 LINE",
"1392 756 LINE",
"1429 0 LINE",
"1732 0 LINE",
"1657 1400 LINE",
"1400 1400 LINE",
"967 574 LINE",
"772 1400 LINE",
"517 1400 LINE",
"48 0 LINE"
);
}
);
width = 1924;
},
{
layerId = "DDA43255-513F-4353-BCA4-425ED8D2F935";
paths = (
{
closed = 1;
nodes = (
"110 0 LINE",
"521 1228 LINE",
"780 138 LINE",
"810 138 LINE",
"1375 1228 LINE",
"1440 0 LINE",
"1501 0 LINE",
"1426 1400 LINE",
"1400 1400 LINE",
"812 268 LINE",
"542 1400 LINE",
"516 1400 LINE",
"49 0 LINE"
);
}
);
width = 1692;
}
);
leftKerningGroup = M;
rightKerningGroup = M;
unicode = 004D;
},
{
glyphname = N;
lastChange = "2020-02-18 22:12:51 +0000";
layers = (
{
layerId = "10BC12B3-5274-42E3-B5BC-F74F362F0DF4";
paths = (
{
closed = 1;
nodes = (
"420 0 LINE",
"420 858 LINE",
"932 0 LINE",
"1256 0 LINE",
"1256 1400 LINE",
"956 1400 LINE",
"956 542 LINE",
"444 1400 LINE",
"120 1400 LINE",
"120 0 LINE"
);
}
);
width = 1376;
},
{
layerId = "9AF1F7D9-E035-453E-B2A8-46DE370997D0";
paths = (
{
closed = 1;
nodes = (
"210 0 LINE",
"210 1292 LINE",
"1064 0 LINE",
"1128 0 LINE",
"1128 1400 LINE",
"1068 1400 LINE",
"1068 108 LINE",
"216 1400 LINE",
"150 1400 LINE",
"150 0 LINE"
);
}
);
width = 1278;
},
{
layerId = "7763577D-A4D2-4749-AE53-49BDF6EC3913";
paths = (
{
closed = 1;
nodes = (
"350 0 LINE",
"473 858 LINE",
"865 0 LINE",
"1186 0 LINE",
"1382 1400 LINE",
"1082 1400 LINE",
"959 542 LINE",
"567 1400 LINE",
"246 1400 LINE",
"50 0 LINE"
);
}
);
width = 1376;
},
{
layerId = "DDA43255-513F-4353-BCA4-425ED8D2F935";
paths = (
{
closed = 1;
nodes = (
"140 0 LINE",
"322 1292 LINE",
"994 0 LINE",
"1058 0 LINE",
"1254 1400 LINE",
"1194 1400 LINE",
"1012 108 LINE",
"342 1400 LINE",
"276 1400 LINE",
"80 0 LINE"
);
}
);
width = 1278;
}
);
leftKerningGroup = H;
rightKerningGroup = H;
unicode = 004E;
},
{
glyphname = O;
lastChange = "2020-02-18 22:12:51 +0000";
layers = (
{
layerId = "10BC12B3-5274-42E3-B5BC-F74F362F0DF4";
paths = (
{
closed = 1;
nodes = (
"1150 -26 OFFCURVE",
"1460 300 OFFCURVE",
"1460 700 CURVE SMOOTH",
"1460 1100 OFFCURVE",
"1150 1426 OFFCURVE",
"770 1426 CURVE SMOOTH",
"390 1426 OFFCURVE",
"80 1100 OFFCURVE",
"80 700 CURVE SMOOTH",
"80 300 OFFCURVE",
"390 -26 OFFCURVE",
"770 -26 CURVE SMOOTH"
);
},
{
closed = 1;
nodes = (
"556 274 OFFCURVE",
"380 466 OFFCURVE",
"380 700 CURVE SMOOTH",
"380 934 OFFCURVE",
"556 1126 OFFCURVE",
"770 1126 CURVE SMOOTH",
"984 1126 OFFCURVE",
"1160 934 OFFCURVE",
"1160 700 CURVE SMOOTH",
"1160 466 OFFCURVE",
"984 274 OFFCURVE",
"770 274 CURVE SMOOTH"
);
}
);
width = 1540;
},
{
layerId = "9AF1F7D9-E035-453E-B2A8-46DE370997D0";
paths = (
{
closed = 1;
nodes = (
"1150 -26 OFFCURVE",
"1460 300 OFFCURVE",
"1460 700 CURVE SMOOTH",
"1460 1100 OFFCURVE",
"1150 1426 OFFCURVE",
"770 1426 CURVE SMOOTH",
"390 1426 OFFCURVE",
"80 1100 OFFCURVE",
"80 700 CURVE SMOOTH",
"80 300 OFFCURVE",
"390 -26 OFFCURVE",
"770 -26 CURVE SMOOTH"
);
},
{
closed = 1;
nodes = (
"422 34 OFFCURVE",
"140 334 OFFCURVE",
"140 700 CURVE SMOOTH",
"140 1060 OFFCURVE",
"418 1366 OFFCURVE",
"770 1366 CURVE SMOOTH",
"1118 1366 OFFCURVE",
"1400 1064 OFFCURVE",
"1400 700 CURVE SMOOTH",
"1400 340 OFFCURVE",
"1122 34 OFFCURVE",
"770 34 CURVE SMOOTH"
);
}
);
width = 1540;
},
{
layerId = "7763577D-A4D2-4749-AE53-49BDF6EC3913";
paths = (
{
closed = 1;
nodes = (
"1084 -26 OFFCURVE",
"1431 292 OFFCURVE",
"1486 683 CURVE SMOOTH",
"1543 1092 OFFCURVE",
"1272 1426 OFFCURVE",
"883 1426 CURVE SMOOTH",
"512 1426 OFFCURVE",
"166 1108 OFFCURVE",
"110 717 CURVE SMOOTH",
"53 308 OFFCURVE",
"324 -26 OFFCURVE",
"713 -26 CURVE SMOOTH"
);
},
{
closed = 1;
nodes = (
"516 274 OFFCURVE",
"374 458 OFFCURVE",
"406 683 CURVE SMOOTH",
"440 926 OFFCURVE",
"652 1126 OFFCURVE",
"875 1126 CURVE SMOOTH",
"1080 1126 OFFCURVE",
"1222 942 OFFCURVE",
"1190 717 CURVE SMOOTH",
"1156 474 OFFCURVE",
"944 274 OFFCURVE",
"721 274 CURVE SMOOTH"
);
}
);
width = 1540;
},
{
layerId = "DDA43255-513F-4353-BCA4-425ED8D2F935";
paths = (
{
closed = 1;
nodes = (
"1078 -26 OFFCURVE",
"1432 298 OFFCURVE",
"1488 697 CURVE SMOOTH",
"1544 1098 OFFCURVE",
"1278 1426 OFFCURVE",
"897 1426 CURVE SMOOTH",
"518 1426 OFFCURVE",
"165 1102 OFFCURVE",
"109 703 CURVE SMOOTH",
"52 302 OFFCURVE",
"318 -26 OFFCURVE",
"699 -26 CURVE SMOOTH"
);
},
{
closed = 1;
nodes = (
"355 34 OFFCURVE",
"116 332 OFFCURVE",
"168 697 CURVE SMOOTH",
"218 1058 OFFCURVE",
"541 1366 OFFCURVE",
"895 1366 CURVE SMOOTH",
"1241 1366 OFFCURVE",
"1480 1066 OFFCURVE",
"1429 703 CURVE SMOOTH",
"1378 342 OFFCURVE",
"1055 34 OFFCURVE",
"701 34 CURVE SMOOTH"
);
}
);
width = 1540;
}
);
leftKerningGroup = O;
rightKerningGroup = O;
unicode = 004F;
},
{
glyphname = Oslash;
lastChange = "2020-02-18 22:12:51 +0000";
layers = (
{
layerId = "10BC12B3-5274-42E3-B5BC-F74F362F0DF4";
paths = (
{
closed = 1;
nodes = (
"548 14 LINE",
"618 -12 OFFCURVE",
"692 -26 OFFCURVE",
"770 -26 CURVE SMOOTH",
"1150 -26 OFFCURVE",
"1460 300 OFFCURVE",
"1460 700 CURVE SMOOTH",
"1460 906 OFFCURVE",
"1378 1092 OFFCURVE",
"1246 1226 CURVE",
"1332 1372 LINE",
"1072 1522 LINE",
"994 1388 LINE",
"924 1412 OFFCURVE",
"850 1426 OFFCURVE",
"770 1426 CURVE SMOOTH",
"390 1426 OFFCURVE",
"80 1100 OFFCURVE",
"80 700 CURVE SMOOTH",
"80 494 OFFCURVE",
"164 308 OFFCURVE",
"294 176 CURVE",
"210 28 LINE",
"470 -122 LINE"
);
},
{
closed = 1;
nodes = (
"408 522 OFFCURVE",
"380 608 OFFCURVE",
"380 700 CURVE SMOOTH",
"380 934 OFFCURVE",
"556 1126 OFFCURVE",
"770 1126 CURVE SMOOTH",
"794 1126 OFFCURVE",
"818 1124 OFFCURVE",
"840 1120 CURVE",
"454 452 LINE"
);
},
{
closed = 1;
nodes = (
"748 274 OFFCURVE",
"724 276 OFFCURVE",
"702 282 CURVE",
"1088 948 LINE",
"1134 878 OFFCURVE",
"1160 792 OFFCURVE",
"1160 700 CURVE SMOOTH",
"1160 466 OFFCURVE",
"984 274 OFFCURVE",
"770 274 CURVE SMOOTH"
);
}
);
width = 1540;
},
{
layerId = "9AF1F7D9-E035-453E-B2A8-46DE370997D0";
paths = (
{
closed = 1;
nodes = (
"438 64 LINE",
"538 8 OFFCURVE",
"650 -26 OFFCURVE",
"770 -26 CURVE SMOOTH",
"1150 -26 OFFCURVE",
"1460 300 OFFCURVE",
"1460 700 CURVE SMOOTH",
"1460 952 OFFCURVE",
"1338 1174 OFFCURVE",
"1154 1304 CURVE",
"1228 1432 LINE",
"1176 1462 LINE",
"1104 1336 LINE",
"1004 1394 OFFCURVE",
"892 1426 OFFCURVE",
"770 1426 CURVE SMOOTH",
"390 1426 OFFCURVE",
"80 1100 OFFCURVE",
"80 700 CURVE SMOOTH",
"80 450 OFFCURVE",
"204 228 OFFCURVE",
"388 96 CURVE",
"314 -32 LINE",
"366 -62 LINE"
);
},
{
closed = 1;
nodes = (
"250 270 OFFCURVE",
"140 472 OFFCURVE",
"140 700 CURVE SMOOTH",
"140 1060 OFFCURVE",
"418 1366 OFFCURVE",
"770 1366 CURVE SMOOTH",
"880 1366 OFFCURVE",
"984 1336 OFFCURVE",
"1074 1284 CURVE",
"418 150 LINE"
);
},
{
closed = 1;
nodes = (
"662 34 OFFCURVE",
"558 64 OFFCURVE",
"468 116 CURVE",
"1124 1252 LINE",
"1290 1130 OFFCURVE",
"1400 928 OFFCURVE",
"1400 700 CURVE SMOOTH",
"1400 340 OFFCURVE",
"1122 34 OFFCURVE",
"770 34 CURVE SMOOTH"
);
}
);
width = 1540;
},
{
layerId = "7763577D-A4D2-4749-AE53-49BDF6EC3913";
paths = (
{
closed = 1;
nodes = (
"491 17 LINE",
"554 -9 OFFCURVE",
"626 -26 OFFCURVE",
"713 -26 CURVE SMOOTH",
"1084 -26 OFFCURVE",
"1431 292 OFFCURVE",
"1486 683 CURVE SMOOTH",
"1516 898 OFFCURVE",
"1454 1086 OFFCURVE",
"1341 1220 CURVE",
"1456 1372 LINE",
"1211 1522 LINE",
"1107 1385 LINE",
"1044 1409 OFFCURVE",
"972 1426 OFFCURVE",
"883 1426 CURVE SMOOTH",
"512 1426 OFFCURVE",
"166 1108 OFFCURVE",
"110 717 CURVE SMOOTH",
"80 502 OFFCURVE",
"144 314 OFFCURVE",
"255 182 CURVE",
"142 28 LINE",
"388 -122 LINE"
);
},
{
closed = 1;
nodes = (
"406 515 OFFCURVE",
"394 600 OFFCURVE",
"406 683 CURVE SMOOTH",
"440 926 OFFCURVE",
"652 1126 OFFCURVE",
"875 1126 CURVE SMOOTH",
"890 1126 OFFCURVE",
"914 1125 OFFCURVE",
"936 1121 CURVE",
"439 445 LINE"
);
},
{
closed = 1;
nodes = (
"708 274 OFFCURVE",
"684 274 OFFCURVE",
"663 280 CURVE",
"1160 955 LINE",
"1193 885 OFFCURVE",
"1202 800 OFFCURVE",
"1190 717 CURVE SMOOTH",
"1156 474 OFFCURVE",
"944 274 OFFCURVE",
"721 274 CURVE SMOOTH"
);
}
);
width = 1540;
},
{
layerId = "DDA43255-513F-4353-BCA4-425ED8D2F935";
paths = (
{
closed = 1;
nodes = (
"379 65 LINE",
"470 9 OFFCURVE",
"578 -26 OFFCURVE",
"699 -26 CURVE SMOOTH",
"1078 -26 OFFCURVE",
"1432 298 OFFCURVE",
"1488 697 CURVE SMOOTH",
"1523 950 OFFCURVE",
"1431 1173 OFFCURVE",
"1265 1303 CURVE",
"1359 1432 LINE",
"1310 1462 LINE",
"1219 1335 LINE",
"1128 1393 OFFCURVE",
"1020 1426 OFFCURVE",
"897 1426 CURVE SMOOTH",
"518 1426 OFFCURVE",
"165 1102 OFFCURVE",
"109 703 CURVE SMOOTH",
"73 452 OFFCURVE",
"167 229 OFFCURVE",
"333 97 CURVE",
"239 -32 LINE",
"288 -62 LINE"
);
},
{
closed = 1;
nodes = (
"216 269 OFFCURVE",
"136 470 OFFCURVE",
"168 697 CURVE SMOOTH",
"218 1058 OFFCURVE",
"541 1366 OFFCURVE",
"895 1366 CURVE SMOOTH",
"1003 1366 OFFCURVE",
"1103 1337 OFFCURVE",
"1186 1285 CURVE",
"367 149 LINE"
);
},
{
closed = 1;
nodes = (
"595 34 OFFCURVE",
"495 63 OFFCURVE",
"412 115 CURVE",
"1232 1253 LINE",
"1380 1131 OFFCURVE",
"1460 930 OFFCURVE",
"1429 703 CURVE SMOOTH",
"1378 342 OFFCURVE",
"1055 34 OFFCURVE",
"701 34 CURVE SMOOTH"
);
}
);
width = 1540;
}
);
leftKerningGroup = O;
leftMetricsKey = O;
rightKerningGroup = O;
rightMetricsKey = O;
unicode = 00D8;
},
{
glyphname = OE;
lastChange = "2020-02-18 22:12:51 +0000";
layers = (
{
layerId = "10BC12B3-5274-42E3-B5BC-F74F362F0DF4";
paths = (
{
closed = 1;
nodes = (
"916 -26 OFFCURVE",
"1052 22 OFFCURVE",
"1164 104 CURVE",
"1164 0 LINE",
"1996 0 LINE",
"1996 300 LINE",
"1464 300 LINE",
"1464 550 LINE",
"1900 550 LINE",
"1900 850 LINE",
"1464 850 LINE",
"1464 1100 LINE",
"1996 1100 LINE",
"1996 1400 LINE",
"1164 1400 LINE",
"1164 1296 LINE",
"1052 1378 OFFCURVE",
"916 1426 OFFCURVE",
"770 1426 CURVE SMOOTH",
"390 1426 OFFCURVE",
"80 1100 OFFCURVE",
"80 700 CURVE SMOOTH",
"80 300 OFFCURVE",
"390 -26 OFFCURVE",
"770 -26 CURVE SMOOTH"
);
},
{
closed = 1;
nodes = (
"556 274 OFFCURVE",
"380 466 OFFCURVE",
"380 700 CURVE SMOOTH",
"380 934 OFFCURVE",
"556 1126 OFFCURVE",
"770 1126 CURVE SMOOTH",
"984 1126 OFFCURVE",
"1160 934 OFFCURVE",
"1160 700 CURVE SMOOTH",
"1160 466 OFFCURVE",
"984 274 OFFCURVE",
"770 274 CURVE SMOOTH"
);
}
);
width = 2096;
},
{
layerId = "9AF1F7D9-E035-453E-B2A8-46DE370997D0";
paths = (
{
closed = 1;
nodes = (
"1050 -26 OFFCURVE",
"1292 152 OFFCURVE",
"1400 404 CURVE",
"1400 0 LINE",
"2106 0 LINE",
"2106 60 LINE",
"1460 60 LINE",
"1460 670 LINE",
"2010 670 LINE",
"2010 730 LINE",
"1460 730 LINE",
"1460 1340 LINE",
"2106 1340 LINE",
"2106 1400 LINE",
"1400 1400 LINE",
"1400 996 LINE",
"1292 1248 OFFCURVE",
"1050 1426 OFFCURVE",
"770 1426 CURVE SMOOTH",
"390 1426 OFFCURVE",
"80 1100 OFFCURVE",
"80 700 CURVE SMOOTH",
"80 300 OFFCURVE",
"390 -26 OFFCURVE",
"770 -26 CURVE SMOOTH"
);
},
{
closed = 1;
nodes = (
"422 34 OFFCURVE",
"140 334 OFFCURVE",
"140 700 CURVE SMOOTH",
"140 1060 OFFCURVE",
"418 1366 OFFCURVE",
"770 1366 CURVE SMOOTH",
"1118 1366 OFFCURVE",
"1400 1064 OFFCURVE",
"1400 700 CURVE SMOOTH",
"1400 340 OFFCURVE",
"1122 34 OFFCURVE",
"770 34 CURVE SMOOTH"
);
}
);
width = 2206;
},
{
layerId = "7763577D-A4D2-4749-AE53-49BDF6EC3913";
paths = (
{
closed = 1;
nodes = (
"850 -26 OFFCURVE",
"991 17 OFFCURVE",
"1114 99 CURVE",
"1093 0 LINE",
"1926 0 LINE",
"1968 300 LINE",
"1436 300 LINE",
"1471 550 LINE",
"1907 550 LINE",
"1949 850 LINE",
"1513 850 LINE",
"1548 1100 LINE",
"2080 1100 LINE",
"2122 1400 LINE",
"1290 1400 LINE",
"1268 1291 LINE",
"1168 1373 OFFCURVE",
"1038 1426 OFFCURVE",
"883 1426 CURVE SMOOTH",
"512 1426 OFFCURVE",
"166 1108 OFFCURVE",
"110 717 CURVE SMOOTH",
"53 308 OFFCURVE",
"324 -26 OFFCURVE",
"713 -26 CURVE SMOOTH"
);
},
{
closed = 1;
nodes = (
"516 274 OFFCURVE",
"374 458 OFFCURVE",
"406 683 CURVE SMOOTH",
"440 926 OFFCURVE",
"652 1126 OFFCURVE",
"875 1126 CURVE SMOOTH",
"1080 1126 OFFCURVE",
"1222 942 OFFCURVE",
"1190 717 CURVE SMOOTH",
"1156 474 OFFCURVE",
"944 274 OFFCURVE",
"721 274 CURVE SMOOTH"
);
}
);
width = 2096;
},
{
layerId = "DDA43255-513F-4353-BCA4-425ED8D2F935";
paths = (
{
closed = 1;
nodes = (
"978 -26 OFFCURVE",
"1244 150 OFFCURVE",
"1387 402 CURVE",
"1330 0 LINE",
"2036 0 LINE",
"2044 60 LINE",
"1398 60 LINE",
"1484 670 LINE",
"2034 670 LINE",
"2042 730 LINE",
"1492 730 LINE",
"1578 1340 LINE",
"2224 1340 LINE",
"2232 1400 LINE",
"1526 1400 LINE",
"1469 994 LINE",
"1396 1246 OFFCURVE",
"1178 1426 OFFCURVE",
"897 1426 CURVE SMOOTH",
"518 1426 OFFCURVE",
"165 1102 OFFCURVE",
"109 703 CURVE SMOOTH",
"52 302 OFFCURVE",
"318 -26 OFFCURVE",
"699 -26 CURVE SMOOTH"
);
},
{
closed = 1;
nodes = (
"355 34 OFFCURVE",
"116 332 OFFCURVE",
"168 697 CURVE SMOOTH",
"218 1058 OFFCURVE",
"541 1366 OFFCURVE",
"895 1366 CURVE SMOOTH",
"1241 1366 OFFCURVE",
"1480 1066 OFFCURVE",
"1429 703 CURVE SMOOTH",
"1378 342 OFFCURVE",
"1055 34 OFFCURVE",
"701 34 CURVE SMOOTH"
);
}
);
width = 2206;
}
);
leftKerningGroup = O;
leftMetricsKey = O;
rightKerningGroup = E;
rightMetricsKey = E;
unicode = 0152;
},
{
glyphname = P;
lastChange = "2020-02-18 22:12:51 +0000";
layers = (
{
layerId = "10BC12B3-5274-42E3-B5BC-F74F362F0DF4";
paths = (
{
closed = 1;
nodes = (
"420 0 LINE",
"420 544 LINE",
"648 544 LINE SMOOTH",
"870 544 OFFCURVE",
"1060 736 OFFCURVE",
"1060 972 CURVE SMOOTH",
"1060 1204 OFFCURVE",
"878 1400 OFFCURVE",
"648 1400 CURVE SMOOTH",
"120 1400 LINE",
"120 0 LINE"
);
},
{
closed = 1;
nodes = (
"420 1144 LINE",
"614 1144 LINE SMOOTH",
"694 1144 OFFCURVE",
"760 1076 OFFCURVE",
"760 994 CURVE SMOOTH",
"760 912 OFFCURVE",
"694 844 OFFCURVE",
"614 844 CURVE SMOOTH",
"420 844 LINE"
);
}
);
width = 1140;
},
{
layerId = "9AF1F7D9-E035-453E-B2A8-46DE370997D0";
paths = (
{
closed = 1;
nodes = (
"180 0 LINE",
"180 600 LINE",
"528 600 LINE SMOOTH",
"742 600 OFFCURVE",
"920 770 OFFCURVE",
"920 1000 CURVE SMOOTH",
"920 1228 OFFCURVE",
"748 1400 OFFCURVE",
"528 1400 CURVE SMOOTH",
"120 1400 LINE",
"120 0 LINE"
);
},
{
closed = 1;
nodes = (
"180 1340 LINE",
"528 1340 LINE SMOOTH",
"710 1340 OFFCURVE",
"860 1196 OFFCURVE",
"860 1000 CURVE SMOOTH",
"860 804 OFFCURVE",
"710 660 OFFCURVE",
"528 660 CURVE SMOOTH",
"180 660 LINE"
);
}
);
width = 1000;
},
{
layerId = "7763577D-A4D2-4749-AE53-49BDF6EC3913";
paths = (
{
closed = 1;
nodes = (
"350 0 LINE",
"426 544 LINE",
"663 544 LINE SMOOTH",
"885 544 OFFCURVE",
"1092 728 OFFCURVE",
"1124 955 CURVE SMOOTH",
"1158 1196 OFFCURVE",
"996 1400 OFFCURVE",
"766 1400 CURVE SMOOTH",
"246 1400 LINE",
"50 0 LINE"
);
},
{
closed = 1;
nodes = (
"511 1144 LINE",
"713 1144 LINE SMOOTH",
"793 1144 OFFCURVE",
"842 1084 OFFCURVE",
"832 1011 CURVE SMOOTH",
"819 920 OFFCURVE",
"734 844 OFFCURVE",
"654 844 CURVE SMOOTH",
"468 844 LINE"
);
}
);
width = 1140;
},
{
layerId = "DDA43255-513F-4353-BCA4-425ED8D2F935";
paths = (
{
closed = 1;
nodes = (
"110 0 LINE",
"194 600 LINE",
"544 600 LINE SMOOTH",
"758 600 OFFCURVE",
"958 768 OFFCURVE",
"990 997 CURVE SMOOTH",
"1022 1226 OFFCURVE",
"873 1400 OFFCURVE",
"653 1400 CURVE SMOOTH",
"246 1400 LINE",
"50 0 LINE"
);
},
{
closed = 1;
nodes = (
"298 1340 LINE",
"648 1340 LINE SMOOTH",
"830 1340 OFFCURVE",
"958 1198 OFFCURVE",
"931 1003 CURVE SMOOTH",
"903 806 OFFCURVE",
"731 660 OFFCURVE",
"549 660 CURVE SMOOTH",
"202 660 LINE"
);
}
);
width = 1000;
}
);
leftKerningGroup = H;
leftMetricsKey = H;
rightKerningGroup = P;
unicode = 0050;
},
{
glyphname = Thorn;
lastChange = "2020-02-18 22:12:51 +0000";
layers = (
{
layerId = "10BC12B3-5274-42E3-B5BC-F74F362F0DF4";
paths = (
{
closed = 1;
nodes = (
"420 0 LINE",
"420 272 LINE",
"648 272 LINE SMOOTH",
"870 272 OFFCURVE",
"1060 464 OFFCURVE",
"1060 700 CURVE SMOOTH",
"1060 932 OFFCURVE",
"878 1128 OFFCURVE",
"648 1128 CURVE SMOOTH",
"420 1128 LINE",
"420 1400 LINE",
"120 1400 LINE",
"120 0 LINE"
);
},
{
closed = 1;
nodes = (
"420 872 LINE",
"614 872 LINE SMOOTH",
"694 872 OFFCURVE",
"760 804 OFFCURVE",
"760 722 CURVE SMOOTH",
"760 640 OFFCURVE",
"694 572 OFFCURVE",
"614 572 CURVE SMOOTH",
"420 572 LINE"
);
}
);
width = 1140;
},
{
layerId = "9AF1F7D9-E035-453E-B2A8-46DE370997D0";
paths = (
{
closed = 1;
nodes = (
"180 0 LINE",
"180 300 LINE",
"528 300 LINE SMOOTH",
"742 300 OFFCURVE",
"920 470 OFFCURVE",
"920 700 CURVE SMOOTH",
"920 928 OFFCURVE",
"748 1100 OFFCURVE",
"528 1100 CURVE SMOOTH",
"180 1100 LINE",
"180 1400 LINE",
"120 1400 LINE",
"120 0 LINE"
);
},
{
closed = 1;
nodes = (
"180 1040 LINE",
"528 1040 LINE SMOOTH",
"710 1040 OFFCURVE",
"860 896 OFFCURVE",
"860 700 CURVE SMOOTH",
"860 504 OFFCURVE",
"710 360 OFFCURVE",
"528 360 CURVE SMOOTH",
"180 360 LINE"
);
}
);
width = 1000;
},
{
layerId = "7763577D-A4D2-4749-AE53-49BDF6EC3913";
paths = (
{
closed = 1;
nodes = (
"350 0 LINE",
"388 272 LINE",
"624 272 LINE SMOOTH",
"846 272 OFFCURVE",
"1054 456 OFFCURVE",
"1086 683 CURVE SMOOTH",
"1120 924 OFFCURVE",
"958 1128 OFFCURVE",
"728 1128 CURVE SMOOTH",
"508 1128 LINE",
"546 1400 LINE",
"246 1400 LINE",
"50 0 LINE"
);
},
{
closed = 1;
nodes = (
"472 872 LINE",
"675 872 LINE SMOOTH",
"755 872 OFFCURVE",
"804 812 OFFCURVE",
"794 739 CURVE SMOOTH",
"781 648 OFFCURVE",
"696 572 OFFCURVE",
"616 572 CURVE SMOOTH",
"430 572 LINE"
);
}
);
width = 1140;
},
{
layerId = "DDA43255-513F-4353-BCA4-425ED8D2F935";
paths = (
{
closed = 1;
nodes = (
"110 0 LINE",
"152 300 LINE",
"502 300 LINE SMOOTH",
"716 300 OFFCURVE",
"916 468 OFFCURVE",
"948 697 CURVE SMOOTH",
"980 926 OFFCURVE",
"831 1100 OFFCURVE",
"611 1100 CURVE SMOOTH",
"264 1100 LINE",
"306 1400 LINE",
"246 1400 LINE",
"50 0 LINE"
);
},
{
closed = 1;
nodes = (
"256 1040 LINE",
"606 1040 LINE SMOOTH",
"788 1040 OFFCURVE",
"916 898 OFFCURVE",
"889 703 CURVE SMOOTH",
"861 506 OFFCURVE",
"689 360 OFFCURVE",
"507 360 CURVE SMOOTH",
"160 360 LINE"
);
}
);
width = 1000;
}
);
leftKerningGroup = H;
rightKerningGroup = o;
rightMetricsKey = p;
unicode = 00DE;
},
{
glyphname = Q;
lastChange = "2020-02-18 22:12:51 +0000";
layers = (
{
layerId = "10BC12B3-5274-42E3-B5BC-F74F362F0DF4";
paths = (
{
closed = 1;
nodes = (
"1504 160 LINE",
"1350 314 LINE",
"1418 428 OFFCURVE",
"1460 562 OFFCURVE",
"1460 708 CURVE SMOOTH",
"1460 1108 OFFCURVE",
"1150 1434 OFFCURVE",
"770 1434 CURVE SMOOTH",
"390 1434 OFFCURVE",
"80 1108 OFFCURVE",
"80 708 CURVE SMOOTH",
"80 306 OFFCURVE",
"390 -18 OFFCURVE",
"770 -18 CURVE SMOOTH",
"908 -18 OFFCURVE",
"1036 24 OFFCURVE",
"1142 96 CURVE",
"1292 -52 LINE"
);
},
{
closed = 1;
nodes = (
"556 282 OFFCURVE",
"380 472 OFFCURVE",
"380 708 CURVE SMOOTH",
"380 942 OFFCURVE",
"556 1134 OFFCURVE",
"770 1134 CURVE SMOOTH",
"984 1134 OFFCURVE",
"1160 942 OFFCURVE",
"1160 708 CURVE SMOOTH",
"1160 648 OFFCURVE",
"1148 590 OFFCURVE",
"1126 538 CURVE",
"1052 612 LINE",
"840 400 LINE",
"924 316 LINE",
"876 294 OFFCURVE",
"824 282 OFFCURVE",
"770 282 CURVE SMOOTH"
);
}
);
width = 1584;
},
{
layerId = "9AF1F7D9-E035-453E-B2A8-46DE370997D0";
paths = (
{
closed = 1;
nodes = (
"1454 32 LINE",
"1276 208 LINE",
"1390 338 OFFCURVE",
"1458 510 OFFCURVE",
"1458 700 CURVE SMOOTH",
"1458 1100 OFFCURVE",
"1150 1426 OFFCURVE",
"770 1426 CURVE SMOOTH",
"388 1426 OFFCURVE",
"80 1100 OFFCURVE",
"80 700 CURVE SMOOTH",
"80 300 OFFCURVE",
"388 -26 OFFCURVE",
"770 -26 CURVE SMOOTH",
"948 -26 OFFCURVE",
"1112 46 OFFCURVE",
"1236 166 CURVE",
"1412 -10 LINE"
);
},
{
closed = 1;
nodes = (
"424 34 OFFCURVE",
"140 334 OFFCURVE",
"140 700 CURVE SMOOTH",
"140 1058 OFFCURVE",
"418 1366 OFFCURVE",
"770 1366 CURVE SMOOTH",
"1114 1366 OFFCURVE",
"1398 1066 OFFCURVE",
"1398 700 CURVE SMOOTH",
"1398 536 OFFCURVE",
"1340 376 OFFCURVE",
"1234 252 CURVE",
"966 520 LINE",
"924 476 LINE",
"1192 208 LINE",
"1082 98 OFFCURVE",
"924 34 OFFCURVE",
"770 34 CURVE SMOOTH"
);
}
);
width = 1538;
},
{
layerId = "7763577D-A4D2-4749-AE53-49BDF6EC3913";
paths = (
{
closed = 1;
nodes = (
"1456 160 LINE",
"1324 307 LINE",
"1411 421 OFFCURVE",
"1468 554 OFFCURVE",
"1487 691 CURVE SMOOTH",
"1544 1100 OFFCURVE",
"1273 1434 OFFCURVE",
"885 1434 CURVE SMOOTH",
"513 1434 OFFCURVE",
"167 1116 OFFCURVE",
"112 725 CURVE SMOOTH",
"54 314 OFFCURVE",
"326 -18 OFFCURVE",
"714 -18 CURVE SMOOTH",
"844 -18 OFFCURVE",
"975 19 OFFCURVE",
"1091 91 CURVE",
"1220 -52 LINE"
);
},
{
closed = 1;
nodes = (
"517 282 OFFCURVE",
"375 464 OFFCURVE",
"407 691 CURVE SMOOTH",
"441 934 OFFCURVE",
"653 1134 OFFCURVE",
"876 1134 CURVE SMOOTH",
"1081 1134 OFFCURVE",
"1223 950 OFFCURVE",
"1192 725 CURVE SMOOTH",
"1182 656 OFFCURVE",
"1158 598 OFFCURVE",
"1129 546 CURVE",
"1062 612 LINE",
"826 400 LINE",
"894 319 LINE",
"840 297 OFFCURVE",
"785 282 OFFCURVE",
"723 282 CURVE SMOOTH"
);
}
);
width = 1584;
},
{
layerId = "DDA43255-513F-4353-BCA4-425ED8D2F935";
paths = (
{
closed = 1;
nodes = (
"1388 32 LINE",
"1235 207 LINE",
"1368 337 OFFCURVE",
"1459 508 OFFCURVE",
"1486 697 CURVE SMOOTH",
"1542 1098 OFFCURVE",
"1278 1426 OFFCURVE",
"897 1426 CURVE SMOOTH",
"516 1426 OFFCURVE",
"165 1102 OFFCURVE",
"109 703 CURVE SMOOTH",
"52 302 OFFCURVE",
"316 -26 OFFCURVE",
"699 -26 CURVE SMOOTH",
"876 -26 OFFCURVE",
"1049 45 OFFCURVE",
"1190 165 CURVE",
"1342 -10 LINE"
);
},
{
closed = 1;
nodes = (
"357 34 OFFCURVE",
"116 332 OFFCURVE",
"168 697 CURVE SMOOTH",
"218 1056 OFFCURVE",
"541 1366 OFFCURVE",
"895 1366 CURVE SMOOTH",
"1237 1366 OFFCURVE",
"1478 1068 OFFCURVE",
"1427 703 CURVE SMOOTH",
"1403 538 OFFCURVE",
"1322 377 OFFCURVE",
"1198 253 CURVE",
"968 520 LINE",
"921 476 LINE",
"1151 209 LINE",
"1024 99 OFFCURVE",
"857 34 OFFCURVE",
"701 34 CURVE SMOOTH"
);
}
);
width = 1538;
}
);
leftKerningGroup = O;
rightKerningGroup = O;
unicode = 0051;
},
{
glyphname = R;
lastChange = "2020-02-18 22:12:51 +0000";
layers = (
{
layerId = "10BC12B3-5274-42E3-B5BC-F74F362F0DF4";
paths = (
{
closed = 1;
nodes = (
"420 0 LINE",
"420 544 LINE",
"524 544 LINE",
"840 0 LINE",
"1186 0 LINE",
"854 572 LINE",
"1004 644 OFFCURVE",
"1100 792 OFFCURVE",
"1100 972 CURVE SMOOTH",
"1100 1206 OFFCURVE",
"920 1400 OFFCURVE",
"690 1400 CURVE SMOOTH",
"120 1400 LINE",
"120 0 LINE"
);
},
{
closed = 1;
nodes = (
"420 1144 LINE",
"654 1144 LINE SMOOTH",
"734 1144 OFFCURVE",
"800 1076 OFFCURVE",
"800 994 CURVE SMOOTH",
"800 912 OFFCURVE",
"734 844 OFFCURVE",
"654 844 CURVE SMOOTH",
"420 844 LINE"
);
}
);
width = 1266;
},
{
layerId = "9AF1F7D9-E035-453E-B2A8-46DE370997D0";
paths = (
{
closed = 1;
nodes = (
"210 0 LINE",
"210 600 LINE",
"542 600 LINE",
"890 0 LINE",
"960 0 LINE",
"612 602 LINE",
"810 618 OFFCURVE",
"970 782 OFFCURVE",
"970 1000 CURVE SMOOTH",
"970 1228 OFFCURVE",
"798 1400 OFFCURVE",
"578 1400 CURVE SMOOTH",
"150 1400 LINE",
"150 0 LINE"
);
},
{
closed = 1;
nodes = (
"210 1340 LINE",
"578 1340 LINE SMOOTH",
"760 1340 OFFCURVE",
"910 1196 OFFCURVE",
"910 1000 CURVE SMOOTH",
"910 804 OFFCURVE",
"760 660 OFFCURVE",
"578 660 CURVE SMOOTH",
"210 660 LINE"
);
}
);
width = 1070;
},
{
layerId = "7763577D-A4D2-4749-AE53-49BDF6EC3913";
paths = (
{
closed = 1;
nodes = (
"350 0 LINE",
"426 544 LINE",
"533 544 LINE",
"773 0 LINE",
"1113 0 LINE",
"868 568 LINE",
"1031 640 OFFCURVE",
"1140 784 OFFCURVE",
"1164 955 CURVE SMOOTH",
"1198 1198 OFFCURVE",
"1038 1400 OFFCURVE",
"808 1400 CURVE SMOOTH",
"246 1400 LINE",
"50 0 LINE"
);
},
{
closed = 1;
nodes = (
"511 1144 LINE",
"753 1144 LINE SMOOTH",
"833 1144 OFFCURVE",
"882 1084 OFFCURVE",
"872 1011 CURVE SMOOTH",
"859 920 OFFCURVE",
"774 844 OFFCURVE",
"694 844 CURVE SMOOTH",
"468 844 LINE"
);
}
);
width = 1266;
},
{
layerId = "DDA43255-513F-4353-BCA4-425ED8D2F935";
paths = (
{
closed = 1;
nodes = (
"140 0 LINE",
"224 600 LINE",
"557 600 LINE",
"820 0 LINE",
"889 0 LINE",
"627 602 LINE",
"828 618 OFFCURVE",
"1009 780 OFFCURVE",
"1040 997 CURVE SMOOTH",
"1072 1226 OFFCURVE",
"923 1400 OFFCURVE",
"703 1400 CURVE SMOOTH",
"276 1400 LINE",
"80 0 LINE"
);
},
{
closed = 1;
nodes = (
"328 1340 LINE",
"698 1340 LINE SMOOTH",
"880 1340 OFFCURVE",
"1008 1198 OFFCURVE",
"981 1003 CURVE SMOOTH",
"953 806 OFFCURVE",
"781 660 OFFCURVE",
"599 660 CURVE SMOOTH",
"232 660 LINE"
);
}
);
width = 1070;
}
);
leftKerningGroup = H;
rightKerningGroup = R;
unicode = 0052;
},
{
glyphname = S;
lastChange = "2020-02-18 22:12:51 +0000";
layers = (
{
layerId = "10BC12B3-5274-42E3-B5BC-F74F362F0DF4";
paths = (
{
closed = 1;
nodes = (
"918 -26 OFFCURVE",
"1164 150 OFFCURVE",
"1164 412 CURVE SMOOTH",
"1164 670 OFFCURVE",
"920 808 OFFCURVE",
"632 850 CURVE SMOOTH",
"506 868 OFFCURVE",
"400 880 OFFCURVE",
"400 988 CURVE SMOOTH",
"400 1066 OFFCURVE",
"516 1126 OFFCURVE",
"632 1124 CURVE SMOOTH",
"762 1124 OFFCURVE",
"862 1066 OFFCURVE",
"882 1008 CURVE",
"1164 1110 LINE",
"1094 1308 OFFCURVE",
"868 1426 OFFCURVE",
"632 1426 CURVE SMOOTH",
"350 1426 OFFCURVE",
"100 1250 OFFCURVE",
"100 988 CURVE SMOOTH",
"100 714 OFFCURVE",
"328 594 OFFCURVE",
"632 550 CURVE SMOOTH",
"744 534 OFFCURVE",
"864 496 OFFCURVE",
"864 412 CURVE SMOOTH",
"864 330 OFFCURVE",
"752 274 OFFCURVE",
"632 274 CURVE SMOOTH",
"502 274 OFFCURVE",
"402 334 OFFCURVE",
"382 392 CURVE",
"100 288 LINE",
"172 92 OFFCURVE",
"396 -26 OFFCURVE",
"632 -26 CURVE SMOOTH"
);
}
);
width = 1264;
},
{
layerId = "9AF1F7D9-E035-453E-B2A8-46DE370997D0";
paths = (
{
closed = 1;
nodes = (
"858 -26 OFFCURVE",
"1088 120 OFFCURVE",
"1088 350 CURVE SMOOTH",
"1088 576 OFFCURVE",
"856 682 OFFCURVE",
"598 730 CURVE SMOOTH",
"352 776 OFFCURVE",
"170 826 OFFCURVE",
"170 1042 CURVE SMOOTH",
"170 1232 OFFCURVE",
"370 1358 OFFCURVE",
"598 1358 CURVE SMOOTH",
"780 1358 OFFCURVE",
"984 1276 OFFCURVE",
"1040 1118 CURVE",
"1098 1138 LINE",
"1028 1320 OFFCURVE",
"806 1418 OFFCURVE",
"598 1418 CURVE SMOOTH",
"340 1418 OFFCURVE",
"110 1272 OFFCURVE",
"110 1042 CURVE SMOOTH",
"110 790 OFFCURVE",
"320 718 OFFCURVE",
"598 666 CURVE SMOOTH",
"814 626 OFFCURVE",
"1028 546 OFFCURVE",
"1028 350 CURVE SMOOTH",
"1028 158 OFFCURVE",
"824 34 OFFCURVE",
"598 34 CURVE SMOOTH",
"416 34 OFFCURVE",
"212 116 OFFCURVE",
"156 274 CURVE",
"100 252 LINE",
"160 78 OFFCURVE",
"380 -26 OFFCURVE",
"598 -26 CURVE SMOOTH"
);
}
);
width = 1198;
},
{
layerId = "7763577D-A4D2-4749-AE53-49BDF6EC3913";
paths = (
{
closed = 1;
nodes = (
"852 -26 OFFCURVE",
"1114 142 OFFCURVE",
"1149 395 CURVE SMOOTH",
"1187 662 OFFCURVE",
"955 807 OFFCURVE",
"664 847 CURVE SMOOTH",
"549 867 OFFCURVE",
"452 872 OFFCURVE",
"466 971 CURVE SMOOTH",
"478 1058 OFFCURVE",
"612 1126 OFFCURVE",
"736 1124 CURVE SMOOTH",
"858 1124 OFFCURVE",
"945 1074 OFFCURVE",
"957 1016 CURVE",
"1247 1102 LINE",
"1204 1300 OFFCURVE",
"990 1426 OFFCURVE",
"745 1426 CURVE SMOOTH",
"472 1426 OFFCURVE",
"207 1258 OFFCURVE",
"171 1005 CURVE SMOOTH",
"131 722 OFFCURVE",
"350 595 OFFCURVE",
"656 553 CURVE SMOOTH",
"757 535 OFFCURVE",
"865 504 OFFCURVE",
"854 429 CURVE SMOOTH",
"841 338 OFFCURVE",
"712 274 OFFCURVE",
"583 274 CURVE SMOOTH",
"462 274 OFFCURVE",
"375 326 OFFCURVE",
"363 384 CURVE",
"73 296 LINE",
"119 100 OFFCURVE",
"330 -26 OFFCURVE",
"575 -26 CURVE SMOOTH"
);
}
);
width = 1264;
},
{
layerId = "DDA43255-513F-4353-BCA4-425ED8D2F935";
paths = (
{
closed = 1;
nodes = (
"786 -26 OFFCURVE",
"1034 118 OFFCURVE",
"1066 347 CURVE SMOOTH",
"1098 574 OFFCURVE",
"880 682 OFFCURVE",
"627 729 CURVE SMOOTH",
"389 776 OFFCURVE",
"216 824 OFFCURVE",
"246 1039 CURVE SMOOTH",
"273 1230 OFFCURVE",
"492 1358 OFFCURVE",
"722 1358 CURVE SMOOTH",
"902 1358 OFFCURVE",
"1094 1278 OFFCURVE",
"1128 1120 CURVE",
"1187 1136 LINE",
"1142 1318 OFFCURVE",
"933 1418 OFFCURVE",
"724 1418 CURVE SMOOTH",
"467 1418 OFFCURVE",
"219 1274 OFFCURVE",
"187 1045 CURVE SMOOTH",
"151 792 OFFCURVE",
"352 718 OFFCURVE",
"625 667 CURVE SMOOTH",
"833 626 OFFCURVE",
"1035 548 OFFCURVE",
"1007 353 CURVE SMOOTH",
"980 160 OFFCURVE",
"757 34 OFFCURVE",
"529 34 CURVE SMOOTH",
"349 34 OFFCURVE",
"157 114 OFFCURVE",
"123 272 CURVE",
"66 254 LINE",
"101 80 OFFCURVE",
"308 -26 OFFCURVE",
"527 -26 CURVE SMOOTH"
);
}
);
width = 1198;
}
);
leftKerningGroup = S;
rightKerningGroup = S;
unicode = 0053;
},
{
glyphname = Germandbls;
lastChange = "2020-02-18 22:12:51 +0000";
layers = (
{
layerId = "10BC12B3-5274-42E3-B5BC-F74F362F0DF4";
paths = (
{
closed = 1;
nodes = (
"420 0 LINE",
"420 950 LINE SMOOTH",
"420 1058 OFFCURVE",
"508 1144 OFFCURVE",
"594 1144 CURVE SMOOTH",
"680 1144 OFFCURVE",
"758 1148 OFFCURVE",
"758 1074 CURVE SMOOTH",
"758 1040 OFFCURVE",
"590 858 OFFCURVE",
"590 704 CURVE SMOOTH",
"590 594 LINE",
"672 594 LINE SMOOTH",
"776 594 OFFCURVE",
"920 556 OFFCURVE",
"920 424 CURVE SMOOTH",
"920 292 OFFCURVE",
"776 254 OFFCURVE",
"672 254 CURVE SMOOTH",
"590 254 LINE",
"650 0 LINE",
"704 0 LINE SMOOTH",
"936 0 OFFCURVE",
"1186 150 OFFCURVE",
"1186 422 CURVE SMOOTH",
"1186 586 OFFCURVE",
"1010 770 OFFCURVE",
"832 734 CURVE",
"974 906 OFFCURVE",
"1058 972 OFFCURVE",
"1058 1068 CURVE SMOOTH",
"1058 1248 OFFCURVE",
"858 1400 OFFCURVE",
"650 1400 CURVE SMOOTH",
"358 1400 OFFCURVE",
"120 1162 OFFCURVE",
"120 870 CURVE SMOOTH",
"120 0 LINE"
);
}
);
width = 1246;
},
{
layerId = "9AF1F7D9-E035-453E-B2A8-46DE370997D0";
paths = (
{
closed = 1;
nodes = (
"180 0 LINE",
"180 994 LINE SMOOTH",
"180 1184 OFFCURVE",
"332 1338 OFFCURVE",
"522 1338 CURVE SMOOTH",
"672 1338 OFFCURVE",
"804 1282 OFFCURVE",
"806 1152 CURVE SMOOTH",
"808 1032 OFFCURVE",
"510 754 OFFCURVE",
"518 694 CURVE SMOOTH",
"522 662 LINE",
"588 662 LINE SMOOTH",
"754 662 OFFCURVE",
"950 568 OFFCURVE",
"950 364 CURVE SMOOTH",
"950 156 OFFCURVE",
"756 60 OFFCURVE",
"590 60 CURVE SMOOTH",
"496 60 LINE",
"516 0 LINE",
"590 0 LINE SMOOTH",
"788 0 OFFCURVE",
"1010 122 OFFCURVE",
"1010 362 CURVE SMOOTH",
"1010 588 OFFCURVE",
"802 740 OFFCURVE",
"602 720 CURVE",
"800 992 OFFCURVE",
"876 1070 OFFCURVE",
"876 1152 CURVE SMOOTH",
"876 1320 OFFCURVE",
"716 1398 OFFCURVE",
"526 1398 CURVE SMOOTH",
"302 1398 OFFCURVE",
"120 1216 OFFCURVE",
"120 992 CURVE SMOOTH",
"120 0 LINE"
);
}
);
width = 1070;
},
{
layerId = "7763577D-A4D2-4749-AE53-49BDF6EC3913";
paths = (
{
closed = 1;
nodes = (
"350 0 LINE",
"482 942 LINE SMOOTH",
"497 1050 OFFCURVE",
"607 1144 OFFCURVE",
"701 1144 CURVE SMOOTH",
"779 1144 OFFCURVE",
"850 1156 OFFCURVE",
"841 1091 CURVE SMOOTH",
"835 1048 OFFCURVE",
"641 866 OFFCURVE",
"620 712 CURVE SMOOTH",
"603 594 LINE",
"694 594 LINE SMOOTH",
"798 594 OFFCURVE",
"929 564 OFFCURVE",
"912 441 CURVE SMOOTH",
"892 300 OFFCURVE",
"733 254 OFFCURVE",
"629 254 CURVE SMOOTH",
"557 254 LINE",
"582 0 LINE",
"642 0 LINE SMOOTH",
"874 0 OFFCURVE",
"1136 142 OFFCURVE",
"1173 405 CURVE SMOOTH",
"1197 578 OFFCURVE",
"1040 772 OFFCURVE",
"862 729 CURVE",
"1036 900 OFFCURVE",
"1123 964 OFFCURVE",
"1135 1051 CURVE SMOOTH",
"1162 1240 OFFCURVE",
"976 1400 OFFCURVE",
"760 1400 CURVE SMOOTH",
"476 1400 OFFCURVE",
"214 1170 OFFCURVE",
"173 878 CURVE SMOOTH",
"50 0 LINE"
);
}
);
width = 1246;
},
{
layerId = "DDA43255-513F-4353-BCA4-425ED8D2F935";
paths = (
{
closed = 1;
nodes = (
"110 0 LINE",
"249 992 LINE SMOOTH",
"276 1182 OFFCURVE",
"451 1338 OFFCURVE",
"643 1338 CURVE SMOOTH",
"791 1338 OFFCURVE",
"914 1284 OFFCURVE",
"898 1155 CURVE SMOOTH",
"883 1034 OFFCURVE",
"546 756 OFFCURVE",
"546 696 CURVE SMOOTH",
"545 662 LINE",
"612 662 LINE SMOOTH",
"778 662 OFFCURVE",
"960 570 OFFCURVE",
"931 367 CURVE SMOOTH",
"902 158 OFFCURVE",
"692 60 OFFCURVE",
"526 60 CURVE SMOOTH",
"435 60 LINE",
"446 0 LINE",
"521 0 LINE SMOOTH",
"719 0 OFFCURVE",
"957 120 OFFCURVE",
"990 359 CURVE SMOOTH",
"1022 586 OFFCURVE",
"834 740 OFFCURVE",
"632 719 CURVE",
"870 991 OFFCURVE",
"956 1068 OFFCURVE",
"967 1149 CURVE SMOOTH",
"991 1318 OFFCURVE",
"841 1398 OFFCURVE",
"649 1398 CURVE SMOOTH",
"427 1398 OFFCURVE",
"221 1218 OFFCURVE",
"189 994 CURVE SMOOTH",
"50 0 LINE"
);
}
);
width = 1070;
}
);
leftKerningGroup = Germandbls;
rightKerningGroup = Germandbls;
unicode = 1E9E;
},
{
glyphname = T;
lastChange = "2020-02-18 22:12:51 +0000";
layers = (
{
layerId = "10BC12B3-5274-42E3-B5BC-F74F362F0DF4";
paths = (
{
closed = 1;
nodes = (
"80 1400 LINE",
"80 1100 LINE",
"480 1100 LINE",
"480 0 LINE",
"780 0 LINE",
"780 1100 LINE",
"1180 1100 LINE",
"1180 1400 LINE"
);
}
);
width = 1260;
},
{
layerId = "9AF1F7D9-E035-453E-B2A8-46DE370997D0";
paths = (
{
closed = 1;
nodes = (
"80 1400 LINE",
"80 1340 LINE",
"598 1340 LINE",
"598 0 LINE",
"658 0 LINE",
"658 1340 LINE",
"1178 1340 LINE",
"1178 1400 LINE"
);
}
);
width = 1258;
},
{
layerId = "7763577D-A4D2-4749-AE53-49BDF6EC3913";
paths = (
{
closed = 1;
nodes = (
"206 1400 LINE",
"164 1100 LINE",
"564 1100 LINE",
"410 0 LINE",
"710 0 LINE",
"864 1100 LINE",
"1264 1100 LINE",
"1306 1400 LINE"
);
}
);
width = 1260;
},
{
layerId = "DDA43255-513F-4353-BCA4-425ED8D2F935";
paths = (
{
closed = 1;
nodes = (
"206 1400 LINE",
"198 1340 LINE",
"716 1340 LINE",
"528 0 LINE",
"588 0 LINE",
"776 1340 LINE",
"1296 1340 LINE",
"1304 1400 LINE"
);
}
);
width = 1258;
}
);
leftKerningGroup = T;
rightKerningGroup = T;
unicode = 0054;
},
{
glyphname = U;
lastChange = "2020-02-18 22:12:51 +0000";
layers = (
{
layerId = "10BC12B3-5274-42E3-B5BC-F74F362F0DF4";
paths = (
{
closed = 1;
nodes = (
"1026 -26 OFFCURVE",
"1258 246 OFFCURVE",
"1258 584 CURVE SMOOTH",
"1258 1400 LINE",
"958 1400 LINE",
"958 584 LINE SMOOTH",
"958 412 OFFCURVE",
"862 274 OFFCURVE",
"690 274 CURVE SMOOTH",
"520 274 OFFCURVE",
"420 414 OFFCURVE",
"420 584 CURVE SMOOTH",
"420 1400 LINE",
"120 1400 LINE",
"120 584 LINE SMOOTH",
"120 246 OFFCURVE",
"354 -26 OFFCURVE",
"690 -26 CURVE SMOOTH"
);
}
);
width = 1378;
},
{
layerId = "9AF1F7D9-E035-453E-B2A8-46DE370997D0";
paths = (
{
closed = 1;
nodes = (
"986 -26 OFFCURVE",
"1180 246 OFFCURVE",
"1180 584 CURVE SMOOTH",
"1180 1400 LINE",
"1120 1400 LINE",
"1120 584 LINE SMOOTH",
"1120 288 OFFCURVE",
"958 34 OFFCURVE",
"650 34 CURVE SMOOTH",
"346 34 OFFCURVE",
"180 284 OFFCURVE",
"180 584 CURVE SMOOTH",
"180 1400 LINE",
"120 1400 LINE",
"120 584 LINE SMOOTH",
"120 246 OFFCURVE",
"314 -26 OFFCURVE",
"650 -26 CURVE SMOOTH"
);
}
);
width = 1300;
},
{
layerId = "7763577D-A4D2-4749-AE53-49BDF6EC3913";
paths = (
{
closed = 1;
nodes = (
"960 -26 OFFCURVE",
"1221 238 OFFCURVE",
"1269 576 CURVE SMOOTH",
"1384 1400 LINE",
"1084 1400 LINE",
"971 592 LINE SMOOTH",
"947 420 OFFCURVE",
"822 274 OFFCURVE",
"641 274 CURVE SMOOTH",
"480 274 OFFCURVE",
"407 406 OFFCURVE",
"431 576 CURVE SMOOTH",
"546 1400 LINE",
"246 1400 LINE",
"133 592 LINE SMOOTH",
"85 254 OFFCURVE",
"288 -26 OFFCURVE",
"633 -26 CURVE SMOOTH"
);
}
);
width = 1378;
},
{
layerId = "DDA43255-513F-4353-BCA4-425ED8D2F935";
paths = (
{
closed = 1;
nodes = (
"914 -26 OFFCURVE",
"1144 244 OFFCURVE",
"1192 582 CURVE SMOOTH",
"1306 1400 LINE",
"1246 1400 LINE",
"1132 586 LINE SMOOTH",
"1090 290 OFFCURVE",
"891 34 OFFCURVE",
"581 34 CURVE SMOOTH",
"279 34 OFFCURVE",
"149 282 OFFCURVE",
"192 582 CURVE SMOOTH",
"306 1400 LINE",
"246 1400 LINE",
"132 586 LINE SMOOTH",
"85 248 OFFCURVE",
"242 -26 OFFCURVE",
"579 -26 CURVE SMOOTH"
);
}
);
width = 1300;
}
);
leftKerningGroup = U;
rightKerningGroup = U;
unicode = 0055;
},
{
glyphname = V;
lastChange = "2020-02-18 22:12:51 +0000";
layers = (
{
layerId = "10BC12B3-5274-42E3-B5BC-F74F362F0DF4";
paths = (
{
closed = 1;
nodes = (
"916 0 LINE",
"1424 1400 LINE",
"1106 1400 LINE",
"722 344 LINE",
"338 1400 LINE",
"20 1400 LINE",
"528 0 LINE"
);
}
);
width = 1444;
},
{
layerId = "9AF1F7D9-E035-453E-B2A8-46DE370997D0";
paths = (
{
closed = 1;
nodes = (
"588 0 LINE",
"1098 1400 LINE",
"1034 1400 LINE",
"558 92 LINE",
"84 1400 LINE",
"20 1400 LINE",
"528 0 LINE"
);
}
);
width = 1118;
},
{
layerId = "7763577D-A4D2-4749-AE53-49BDF6EC3913";
paths = (
{
closed = 1;
nodes = (
"848 0 LINE",
"1553 1400 LINE",
"1230 1400 LINE",
"695 344 LINE",
"462 1400 LINE",
"149 1400 LINE",
"460 0 LINE"
);
}
);
width = 1444;
},
{
layerId = "DDA43255-513F-4353-BCA4-425ED8D2F935";
paths = (
{
closed = 1;
nodes = (
"518 0 LINE",
"1225 1400 LINE",
"1160 1400 LINE",
"500 92 LINE",
"210 1400 LINE",
"147 1400 LINE",
"458 0 LINE"
);
}
);
width = 1118;
}
);
leftKerningGroup = W;
rightKerningGroup = W;
unicode = 0056;
},
{
glyphname = W;
lastChange = "2020-02-18 22:12:51 +0000";
layers = (
{
layerId = "10BC12B3-5274-42E3-B5BC-F74F362F0DF4";
paths = (
{
closed = 1;
nodes = (
"796 0 LINE",
"980 726 LINE",
"1166 0 LINE",
"1504 0 LINE",
"1860 1400 LINE",
"1550 1400 LINE",
"1334 552 LINE",
"1118 1400 LINE",
"842 1400 LINE",
"626 552 LINE",
"410 1400 LINE",
"100 1400 LINE",
"458 0 LINE"
);
}
);
width = 1960;
},
{
layerId = "9AF1F7D9-E035-453E-B2A8-46DE370997D0";
paths = (
{
closed = 1;
nodes = (
"536 0 LINE",
"856 1250 LINE",
"1176 0 LINE",
"1256 0 LINE",
"1612 1400 LINE",
"1550 1400 LINE",
"1216 86 LINE",
"880 1400 LINE",
"832 1400 LINE",
"498 86 LINE",
"162 1400 LINE",
"100 1400 LINE",
"458 0 LINE"
);
}
);
width = 1712;
},
{
layerId = "7763577D-A4D2-4749-AE53-49BDF6EC3913";
paths = (
{
closed = 1;
nodes = (
"728 0 LINE",
"1016 726 LINE",
"1098 0 LINE",
"1436 0 LINE",
"1988 1400 LINE",
"1675 1400 LINE",
"1337 552 LINE",
"1243 1400 LINE",
"967 1400 LINE",
"629 552 LINE",
"535 1400 LINE",
"228 1400 LINE",
"390 0 LINE"
);
}
);
width = 1960;
},
{
layerId = "DDA43255-513F-4353-BCA4-425ED8D2F935";
paths = (
{
closed = 1;
nodes = (
"466 0 LINE",
"962 1250 LINE",
"1106 0 LINE",
"1186 0 LINE",
"1739 1400 LINE",
"1676 1400 LINE",
"1157 86 LINE",
"1006 1400 LINE",
"958 1400 LINE",
"439 86 LINE",
"288 1400 LINE",
"227 1400 LINE",
"388 0 LINE"
);
}
);
width = 1712;
}
);
leftKerningGroup = W;
rightKerningGroup = W;
unicode = 0057;
},
{
glyphname = X;
lastChange = "2020-02-18 22:12:51 +0000";
layers = (
{
layerId = "10BC12B3-5274-42E3-B5BC-F74F362F0DF4";
paths = (
{
closed = 1;
nodes = (
"432 0 LINE",
"758 448 LINE",
"1084 0 LINE",
"1456 0 LINE",
"944 704 LINE",
"1452 1402 LINE",
"1082 1402 LINE",
"758 958 LINE",
"434 1402 LINE",
"64 1402 LINE",
"572 704 LINE",
"60 0 LINE"
);
}
);
width = 1516;
},
{
layerId = "9AF1F7D9-E035-453E-B2A8-46DE370997D0";
paths = (
{
closed = 1;
nodes = (
"136 0 LINE",
"610 652 LINE",
"1086 0 LINE",
"1160 0 LINE",
"648 704 LINE",
"1156 1402 LINE",
"1082 1402 LINE",
"610 754 LINE",
"138 1402 LINE",
"64 1402 LINE",
"574 704 LINE",
"60 0 LINE"
);
}
);
width = 1220;
},
{
layerId = "7763577D-A4D2-4749-AE53-49BDF6EC3913";
paths = (
{
closed = 1;
nodes = (
"365 0 LINE",
"757 448 LINE",
"1017 0 LINE",
"1383 0 LINE",
"973 704 LINE",
"1582 1402 LINE",
"1206 1402 LINE",
"816 958 LINE",
"558 1402 LINE",
"194 1402 LINE",
"601 704 LINE",
"-13 0 LINE"
);
}
);
width = 1516;
},
{
layerId = "DDA43255-513F-4353-BCA4-425ED8D2F935";
paths = (
{
closed = 1;
nodes = (
"66 0 LINE",
"633 652 LINE",
"1016 0 LINE",
"1089 0 LINE",
"677 704 LINE",
"1283 1402 LINE",
"1208 1402 LINE",
"644 754 LINE",
"264 1402 LINE",
"191 1402 LINE",
"603 704 LINE",
"-11 0 LINE"
);
}
);
width = 1220;
}
);
leftKerningGroup = X;
rightKerningGroup = X;
unicode = 0058;
},
{
glyphname = Y;
lastChange = "2020-02-18 22:12:51 +0000";
layers = (
{
layerId = "10BC12B3-5274-42E3-B5BC-F74F362F0DF4";
paths = (
{
closed = 1;
nodes = (
"696 956 LINE",
"414 1400 LINE",
"60 1400 LINE",
"546 630 LINE",
"546 0 LINE",
"846 0 LINE",
"846 630 LINE",
"1332 1400 LINE",
"978 1400 LINE"
);
}
);
width = 1392;
},
{
layerId = "9AF1F7D9-E035-453E-B2A8-46DE370997D0";
paths = (
{
closed = 1;
nodes = (
"554 702 LINE",
"130 1400 LINE",
"60 1400 LINE",
"524 636 LINE",
"524 0 LINE",
"584 0 LINE",
"584 636 LINE",
"1048 1400 LINE",
"978 1400 LINE"
);
}
);
width = 1108;
},
{
layerId = "7763577D-A4D2-4749-AE53-49BDF6EC3913";
paths = (
{
closed = 1;
nodes = (
"754 956 LINE",
"537 1400 LINE",
"190 1400 LINE",
"567 630 LINE",
"476 0 LINE",
"776 0 LINE",
"867 630 LINE",
"1462 1400 LINE",
"1101 1400 LINE"
);
}
);
width = 1392;
},
{
layerId = "DDA43255-513F-4353-BCA4-425ED8D2F935";
paths = (
{
closed = 1;
nodes = (
"581 702 LINE",
"256 1400 LINE",
"187 1400 LINE",
"544 636 LINE",
"454 0 LINE",
"514 0 LINE",
"604 636 LINE",
"1175 1400 LINE",
"1104 1400 LINE"
);
}
);
width = 1108;
}
);
leftKerningGroup = Y;
rightKerningGroup = Y;
unicode = 0059;
},
{
glyphname = Z;
lastChange = "2020-02-18 22:12:51 +0000";
layers = (
{
layerId = "10BC12B3-5274-42E3-B5BC-F74F362F0DF4";
paths = (
{
closed = 1;
nodes = (
"1252 0 LINE",
"1252 300 LINE",
"526 300 LINE",
"1252 1100 LINE",
"1252 1400 LINE",
"120 1400 LINE",
"120 1100 LINE",
"846 1100 LINE",
"120 300 LINE",
"120 0 LINE"
);
}
);
width = 1372;
},
{
layerId = "9AF1F7D9-E035-453E-B2A8-46DE370997D0";
paths = (
{
closed = 1;
nodes = (
"1252 0 LINE",
"1252 60 LINE",
"198 60 LINE",
"1252 1340 LINE",
"1252 1400 LINE",
"120 1400 LINE",
"120 1340 LINE",
"1174 1340 LINE",
"120 60 LINE",
"120 0 LINE"
);
}
);
width = 1372;
},
{
layerId = "7763577D-A4D2-4749-AE53-49BDF6EC3913";
paths = (
{
closed = 1;
nodes = (
"1182 0 LINE",
"1224 300 LINE",
"501 300 LINE",
"1339 1100 LINE",
"1378 1400 LINE",
"246 1400 LINE",
"204 1100 LINE",
"927 1100 LINE",
"89 300 LINE",
"50 0 LINE"
);
}
);
width = 1372;
},
{
layerId = "DDA43255-513F-4353-BCA4-425ED8D2F935";
paths = (
{
closed = 1;
nodes = (
"1182 0 LINE",
"1190 60 LINE",
"137 60 LINE",
"1371 1340 LINE",
"1378 1400 LINE",
"246 1400 LINE",
"238 1340 LINE",
"1291 1340 LINE",
"58 60 LINE",
"50 0 LINE"
);
}
);
width = 1372;
}
);
leftKerningGroup = Z;
rightKerningGroup = Z;
unicode = 005A;
},
{
glyphname = a;
lastChange = "2020-02-18 22:12:51 +0000";
layers = (
{
layerId = "10BC12B3-5274-42E3-B5BC-F74F362F0DF4";
paths = (
{
closed = 1;
nodes = (
"850 908 LINE",
"788 978 OFFCURVE",
"704 1028 OFFCURVE",
"596 1028 CURVE SMOOTH",
"306 1028 OFFCURVE",
"70 792 OFFCURVE",
"70 500 CURVE SMOOTH",
"70 210 OFFCURVE",
"306 -26 OFFCURVE",
"596 -26 CURVE SMOOTH",
"704 -26 OFFCURVE",
"788 24 OFFCURVE",
"850 94 CURVE",
"850 0 LINE",
"1150 0 LINE",
"1150 1000 LINE",
"850 1000 LINE"
);
},
{
closed = 1;
nodes = (
"478 262 OFFCURVE",
"378 370 OFFCURVE",
"378 500 CURVE SMOOTH",
"378 632 OFFCURVE",
"478 738 OFFCURVE",
"600 738 CURVE SMOOTH",
"724 738 OFFCURVE",
"824 632 OFFCURVE",
"824 500 CURVE SMOOTH",
"824 370 OFFCURVE",
"724 262 OFFCURVE",
"600 262 CURVE SMOOTH"
);
}
);
width = 1270;
},
{
layerId = "9AF1F7D9-E035-453E-B2A8-46DE370997D0";
paths = (
{
closed = 1;
nodes = (
"1004 768 LINE",
"932 924 OFFCURVE",
"790 1028 OFFCURVE",
"596 1028 CURVE",
"306 1028 OFFCURVE",
"70 792 OFFCURVE",
"70 500 CURVE",
"70 210 OFFCURVE",
"306 -26 OFFCURVE",
"596 -26 CURVE",
"790 -26 OFFCURVE",
"932 78 OFFCURVE",
"1004 234 CURVE",
"1004 0 LINE",
"1064 0 LINE",
"1064 1000 LINE",
"1004 1000 LINE"
);
},
{
closed = 1;
nodes = (
"346 34 OFFCURVE",
"130 238 OFFCURVE",
"130 500 CURVE",
"130 758 OFFCURVE",
"338 968 OFFCURVE",
"596 968 CURVE",
"850 968 OFFCURVE",
"1000 762 OFFCURVE",
"1000 500 CURVE",
"1000 244 OFFCURVE",
"854 34 OFFCURVE",
"596 34 CURVE"
);
}
);
width = 1184;
},
{
layerId = "7763577D-A4D2-4749-AE53-49BDF6EC3913";
paths = (
{
closed = 1;
nodes = (
"901 902 LINE",
"849 972 OFFCURVE",
"770 1028 OFFCURVE",
"653 1028 CURVE SMOOTH",
"372 1028 OFFCURVE",
"112 800 OFFCURVE",
"72 517 CURVE SMOOTH",
"30 218 OFFCURVE",
"240 -26 OFFCURVE",
"539 -26 CURVE SMOOTH",
"638 -26 OFFCURVE",
"726 18 OFFCURVE",
"798 88 CURVE",
"779 0 LINE",
"1080 0 LINE",
"1220 1000 LINE",
"920 1000 LINE"
);
},
{
closed = 1;
nodes = (
"436 262 OFFCURVE",
"359 362 OFFCURVE",
"376 483 CURVE SMOOTH",
"395 624 OFFCURVE",
"520 738 OFFCURVE",
"650 738 CURVE SMOOTH",
"766 738 OFFCURVE",
"844 640 OFFCURVE",
"826 517 CURVE SMOOTH",
"807 378 OFFCURVE",
"682 262 OFFCURVE",
"550 262 CURVE SMOOTH"
);
}
);
width = 1270;
},
{
layerId = "DDA43255-513F-4353-BCA4-425ED8D2F935";
paths = (
{
closed = 1;
nodes = (
"1041 766 LINE",
"991 922 OFFCURVE",
"863 1028 OFFCURVE",
"667 1028 CURVE",
"379 1028 OFFCURVE",
"111 794 OFFCURVE",
"70 503 CURVE",
"29 212 OFFCURVE",
"234 -26 OFFCURVE",
"525 -26 CURVE",
"718 -26 OFFCURVE",
"873 76 OFFCURVE",
"967 232 CURVE",
"934 0 LINE",
"994 0 LINE",
"1134 1000 LINE",
"1074 1000 LINE"
);
},
{
closed = 1;
nodes = (
"279 34 OFFCURVE",
"93 236 OFFCURVE",
"130 497 CURVE",
"166 756 OFFCURVE",
"405 968 OFFCURVE",
"665 968 CURVE",
"917 968 OFFCURVE",
"1037 764 OFFCURVE",
"1000 503 CURVE",
"964 246 OFFCURVE",
"787 34 OFFCURVE",
"527 34 CURVE"
);
}
);
width = 1184;
}
);
leftKerningGroup = o;
rightKerningGroup = n;
unicode = 0061;
},
{
glyphname = ae;
lastChange = "2020-02-18 22:12:51 +0000";
layers = (
{
layerId = "10BC12B3-5274-42E3-B5BC-F74F362F0DF4";
paths = (
{
closed = 1;
nodes = (
"630 -26 LINE SMOOTH",
"764 -26 OFFCURVE",
"844 14 OFFCURVE",
"930 102 CURVE",
"1018 22 OFFCURVE",
"1132 -26 OFFCURVE",
"1258 -26 CURVE SMOOTH",
"1458 -26 OFFCURVE",
"1630 98 OFFCURVE",
"1710 276 CURVE",
"1404 348 LINE",
"1368 302 OFFCURVE",
"1316 274 OFFCURVE",
"1258 274 CURVE SMOOTH",
"1164 276 OFFCURVE",
"1110 330 OFFCURVE",
"1082 402 CURVE",
"1748 402 LINE",
"1808 722 OFFCURVE",
"1576 1028 OFFCURVE",
"1258 1028 CURVE SMOOTH",
"1134 1028 OFFCURVE",
"1022 982 OFFCURVE",
"934 904 CURVE",
"846 990 OFFCURVE",
"714 1028 OFFCURVE",
"552 1028 CURVE SMOOTH",
"356 1028 OFFCURVE",
"214 1004 OFFCURVE",
"118 838 CURVE",
"376 686 LINE",
"394 716 OFFCURVE",
"416 756 OFFCURVE",
"552 756 CURVE SMOOTH",
"664 756 OFFCURVE",
"746 708 OFFCURVE",
"762 622 CURVE",
"358 622 LINE SMOOTH",
"198 622 OFFCURVE",
"80 502 OFFCURVE",
"80 344 CURVE SMOOTH",
"80 118 OFFCURVE",
"220 -26 OFFCURVE",
"504 -26 CURVE SMOOTH"
);
},
{
closed = 1;
nodes = (
"438 154 OFFCURVE",
"370 214 OFFCURVE",
"370 310 CURVE SMOOTH",
"370 392 OFFCURVE",
"442 402 OFFCURVE",
"530 402 CURVE SMOOTH",
"752 402 LINE",
"752 344 LINE SMOOTH",
"752 246 OFFCURVE",
"662 154 OFFCURVE",
"550 154 CURVE SMOOTH"
);
},
{
closed = 1;
nodes = (
"1098 708 OFFCURVE",
"1172 768 OFFCURVE",
"1258 768 CURVE SMOOTH",
"1344 768 OFFCURVE",
"1416 708 OFFCURVE",
"1444 622 CURVE",
"1070 622 LINE"
);
}
);
width = 1818;
},
{
layerId = "9AF1F7D9-E035-453E-B2A8-46DE370997D0";
paths = (
{
closed = 1;
nodes = (
"572 0 LINE SMOOTH",
"740 0 OFFCURVE",
"880 122 OFFCURVE",
"904 284 CURVE",
"988 116 OFFCURVE",
"1154 0 OFFCURVE",
"1348 0 CURVE SMOOTH",
"1548 0 OFFCURVE",
"1720 124 OFFCURVE",
"1800 302 CURVE",
"1740 316 LINE",
"1660 156 OFFCURVE",
"1518 60 OFFCURVE",
"1348 60 CURVE SMOOTH",
"1118 60 OFFCURVE",
"928 246 OFFCURVE",
"908 496 CURVE",
"1846 496 LINE",
"1840 830 OFFCURVE",
"1634 1054 OFFCURVE",
"1348 1054 CURVE SMOOTH",
"1142 1054 OFFCURVE",
"964 922 OFFCURVE",
"888 734 CURVE",
"858 914 OFFCURVE",
"778 1054 OFFCURVE",
"530 1054 CURVE SMOOTH",
"398 1054 OFFCURVE",
"234 1014 OFFCURVE",
"160 888 CURVE",
"212 858 LINE",
"276 964 OFFCURVE",
"420 994 OFFCURVE",
"530 994 CURVE SMOOTH",
"826 994 OFFCURVE",
"830 796 OFFCURVE",
"846 556 CURVE",
"426 556 LINE SMOOTH",
"246 556 OFFCURVE",
"80 516 OFFCURVE",
"70 318 CURVE",
"74 92 OFFCURVE",
"280 0 OFFCURVE",
"460 0 CURVE SMOOTH"
);
},
{
closed = 1;
nodes = (
"312 60 OFFCURVE",
"134 112 OFFCURVE",
"130 318 CURVE",
"136 458 OFFCURVE",
"250 496 OFFCURVE",
"426 496 CURVE SMOOTH",
"848 496 LINE",
"848 384 LINE",
"848 330 OFFCURVE",
"858 60 OFFCURVE",
"518 60 CURVE"
);
},
{
closed = 1;
nodes = (
"924 798 OFFCURVE",
"1110 994 OFFCURVE",
"1348 994 CURVE SMOOTH",
"1584 994 OFFCURVE",
"1778 790 OFFCURVE",
"1786 556 CURVE",
"908 556 LINE"
);
}
);
width = 1907;
},
{
layerId = "7763577D-A4D2-4749-AE53-49BDF6EC3913";
paths = (
{
closed = 1;
nodes = (
"564 -26 LINE SMOOTH",
"698 -26 OFFCURVE",
"781 8 OFFCURVE",
"886 102 CURVE",
"958 28 OFFCURVE",
"1066 -26 OFFCURVE",
"1201 -26 CURVE SMOOTH",
"1392 -26 OFFCURVE",
"1576 90 OFFCURVE",
"1681 268 CURVE",
"1378 355 LINE",
"1336 309 OFFCURVE",
"1276 274 OFFCURVE",
"1209 274 CURVE SMOOTH",
"1124 276 OFFCURVE",
"1082 322 OFFCURVE",
"1064 394 CURVE",
"1735 394 LINE",
"1840 714 OFFCURVE",
"1642 1028 OFFCURVE",
"1315 1028 CURVE SMOOTH",
"1200 1028 OFFCURVE",
"1084 988 OFFCURVE",
"978 904 CURVE",
"908 984 OFFCURVE",
"780 1028 OFFCURVE",
"609 1028 CURVE SMOOTH",
"422 1028 OFFCURVE",
"282 1011 OFFCURVE",
"162 845 CURVE",
"407 679 LINE",
"427 709 OFFCURVE",
"460 756 OFFCURVE",
"605 756 CURVE SMOOTH",
"708 756 OFFCURVE",
"778 716 OFFCURVE",
"782 630 CURVE",
"367 622 LINE SMOOTH",
"207 622 OFFCURVE",
"81 510 OFFCURVE",
"60 361 CURVE SMOOTH",
"27 126 OFFCURVE",
"154 -26 OFFCURVE",
"438 -26 CURVE SMOOTH"
);
},
{
closed = 1;
nodes = (
"381 154 OFFCURVE",
"329 206 OFFCURVE",
"341 293 CURVE SMOOTH",
"354 384 OFFCURVE",
"437 402 OFFCURVE",
"525 402 CURVE SMOOTH",
"738 402 LINE",
"731 352 LINE SMOOTH",
"717 254 OFFCURVE",
"605 154 OFFCURVE",
"485 154 CURVE SMOOTH"
);
},
{
closed = 1;
nodes = (
"1129 700 OFFCURVE",
"1218 768 OFFCURVE",
"1312 768 CURVE SMOOTH",
"1390 768 OFFCURVE",
"1449 716 OFFCURVE",
"1465 630 CURVE",
"1089 614 LINE"
);
}
);
width = 1818;
},
{
layerId = "DDA43255-513F-4353-BCA4-425ED8D2F935";
paths = (
{
closed = 1;
nodes = (
"503 0 LINE SMOOTH",
"671 0 OFFCURVE",
"827 120 OFFCURVE",
"875 284 CURVE",
"935 117 OFFCURVE",
"1085 0 OFFCURVE",
"1281 0 CURVE SMOOTH",
"1479 0 OFFCURVE",
"1668 122 OFFCURVE",
"1773 300 CURVE",
"1713 317 LINE",
"1611 157 OFFCURVE",
"1454 60 OFFCURVE",
"1283 60 CURVE SMOOTH",
"1054 60 OFFCURVE",
"892 244 OFFCURVE",
"907 494 CURVE",
"1845 494 LINE",
"1886 828 OFFCURVE",
"1710 1054 OFFCURVE",
"1423 1054 CURVE SMOOTH",
"1218 1054 OFFCURVE",
"1023 924 OFFCURVE",
"920 734 CURVE",
"916 912 OFFCURVE",
"854 1054 OFFCURVE",
"605 1054 CURVE SMOOTH",
"474 1054 OFFCURVE",
"306 1015 OFFCURVE",
"214 889 CURVE",
"263 857 LINE",
"342 963 OFFCURVE",
"491 994 OFFCURVE",
"603 994 CURVE SMOOTH",
"897 994 OFFCURVE",
"872 798 OFFCURVE",
"854 558 CURVE",
"432 556 LINE SMOOTH",
"252 556 OFFCURVE",
"82 518 OFFCURVE",
"45 321 CURVE",
"17 94 OFFCURVE",
"211 0 OFFCURVE",
"391 0 CURVE SMOOTH"
);
},
{
closed = 1;
nodes = (
"248 60 OFFCURVE",
"79 110 OFFCURVE",
"104 315 CURVE",
"130 456 OFFCURVE",
"251 496 OFFCURVE",
"427 496 CURVE SMOOTH",
"847 496 LINE",
"832 386 LINE",
"824 332 OFFCURVE",
"794 60 OFFCURVE",
"453 60 CURVE"
);
},
{
closed = 1;
nodes = (
"966 796 OFFCURVE",
"1181 994 OFFCURVE",
"1421 994 CURVE SMOOTH",
"1655 994 OFFCURVE",
"1819 792 OFFCURVE",
"1794 558 CURVE",
"916 554 LINE"
);
}
);
width = 1907;
}
);
leftKerningGroup = o;
rightKerningGroup = e;
unicode = 00E6;
},
{
glyphname = b;
lastChange = "2020-02-18 22:12:51 +0000";
layers = (
{
layerId = "10BC12B3-5274-42E3-B5BC-F74F362F0DF4";
paths = (
{
closed = 1;
nodes = (
"566 1028 OFFCURVE",
"482 978 OFFCURVE",
"420 908 CURVE",
"420 1500 LINE",
"120 1500 LINE",
"120 0 LINE",
"420 0 LINE",
"420 94 LINE",
"482 24 OFFCURVE",
"566 -26 OFFCURVE",
"672 -26 CURVE",
"964 -26 OFFCURVE",
"1200 210 OFFCURVE",
"1200 502 CURVE",
"1200 792 OFFCURVE",
"964 1028 OFFCURVE",
"672 1028 CURVE"
);
},
{
closed = 1;
nodes = (
"546 264 OFFCURVE",
"446 370 OFFCURVE",
"446 502 CURVE",
"446 632 OFFCURVE",
"546 740 OFFCURVE",
"668 740 CURVE",
"792 740 OFFCURVE",
"892 632 OFFCURVE",
"892 502 CURVE",
"892 370 OFFCURVE",
"792 264 OFFCURVE",
"668 264 CURVE"
);
}
);
width = 1260;
},
{
layerId = "9AF1F7D9-E035-453E-B2A8-46DE370997D0";
paths = (
{
closed = 1;
nodes = (
"394 1028 OFFCURVE",
"252 924 OFFCURVE",
"180 768 CURVE",
"180 1500 LINE",
"120 1500 LINE",
"120 0 LINE",
"180 0 LINE",
"180 234 LINE",
"252 78 OFFCURVE",
"394 -26 OFFCURVE",
"588 -26 CURVE",
"878 -26 OFFCURVE",
"1114 210 OFFCURVE",
"1114 500 CURVE",
"1114 792 OFFCURVE",
"878 1028 OFFCURVE",
"588 1028 CURVE"
);
},
{
closed = 1;
nodes = (
"334 34 OFFCURVE",
"184 240 OFFCURVE",
"184 500 CURVE",
"184 756 OFFCURVE",
"330 968 OFFCURVE",
"588 968 CURVE",
"838 968 OFFCURVE",
"1054 764 OFFCURVE",
"1054 500 CURVE",
"1054 244 OFFCURVE",
"846 34 OFFCURVE",
"588 34 CURVE"
);
}
);
width = 1174;
},
{
layerId = "7763577D-A4D2-4749-AE53-49BDF6EC3913";
paths = (
{
closed = 1;
nodes = (
"632 1028 OFFCURVE",
"545 984 OFFCURVE",
"473 914 CURVE",
"561 1500 LINE",
"261 1500 LINE",
"50 0 LINE",
"350 0 LINE",
"369 100 LINE",
"422 30 OFFCURVE",
"500 -26 OFFCURVE",
"615 -26 CURVE",
"898 -26 OFFCURVE",
"1158 202 OFFCURVE",
"1198 485 CURVE",
"1240 784 OFFCURVE",
"1030 1028 OFFCURVE",
"729 1028 CURVE"
);
},
{
closed = 1;
nodes = (
"504 264 OFFCURVE",
"427 362 OFFCURVE",
"444 485 CURVE",
"463 624 OFFCURVE",
"588 740 OFFCURVE",
"718 740 CURVE",
"834 740 OFFCURVE",
"912 640 OFFCURVE",
"895 519 CURVE",
"875 378 OFFCURVE",
"750 264 OFFCURVE",
"618 264 CURVE"
);
}
);
width = 1260;
},
{
layerId = "DDA43255-513F-4353-BCA4-425ED8D2F935";
paths = (
{
closed = 1;
nodes = (
"467 1028 OFFCURVE",
"311 926 OFFCURVE",
"217 770 CURVE",
"321 1500 LINE",
"261 1500 LINE",
"50 0 LINE",
"110 0 LINE",
"144 236 LINE",
"194 80 OFFCURVE",
"322 -26 OFFCURVE",
"517 -26 CURVE",
"806 -26 OFFCURVE",
"1073 208 OFFCURVE",
"1114 497 CURVE",
"1155 790 OFFCURVE",
"951 1028 OFFCURVE",
"659 1028 CURVE"
);
},
{
closed = 1;
nodes = (
"267 34 OFFCURVE",
"147 238 OFFCURVE",
"184 497 CURVE",
"220 754 OFFCURVE",
"397 968 OFFCURVE",
"657 968 CURVE",
"905 968 OFFCURVE",
"1091 766 OFFCURVE",
"1054 503 CURVE",
"1018 246 OFFCURVE",
"779 34 OFFCURVE",
"519 34 CURVE"
);
}
);
width = 1174;
}
);
leftKerningGroup = h;
leftMetricsKey = H;
rightKerningGroup = o;
unicode = 0062;
},
{
glyphname = c;
lastChange = "2020-02-18 22:12:51 +0000";
layers = (
{
layerId = "10BC12B3-5274-42E3-B5BC-F74F362F0DF4";
paths = (
{
closed = 1;
nodes = (
"654 294 OFFCURVE",
"608 274 OFFCURVE",
"560 274 CURVE",
"446 274 OFFCURVE",
"360 382 OFFCURVE",
"360 500 CURVE",
"360 620 OFFCURVE",
"446 728 OFFCURVE",
"560 728 CURVE",
"608 728 OFFCURVE",
"654 708 OFFCURVE",
"690 672 CURVE",
"960 818 LINE",
"868 946 OFFCURVE",
"724 1028 OFFCURVE",
"560 1028 CURVE",
"284 1028 OFFCURVE",
"60 792 OFFCURVE",
"60 500 CURVE",
"60 210 OFFCURVE",
"284 -26 OFFCURVE",
"560 -26 CURVE",
"724 -26 OFFCURVE",
"868 56 OFFCURVE",
"960 182 CURVE",
"690 328 LINE"
);
}
);
width = 1020;
},
{
layerId = "9AF1F7D9-E035-453E-B2A8-46DE370997D0";
paths = (
{
closed = 1;
nodes = (
"828 108 OFFCURVE",
"700 34 OFFCURVE",
"560 34 CURVE",
"318 34 OFFCURVE",
"120 242 OFFCURVE",
"120 500 CURVE",
"120 754 OFFCURVE",
"312 968 OFFCURVE",
"560 968 CURVE",
"688 968 OFFCURVE",
"820 904 OFFCURVE",
"906 790 CURVE",
"958 818 LINE",
"868 946 OFFCURVE",
"722 1028 OFFCURVE",
"560 1028 CURVE",
"284 1028 OFFCURVE",
"60 792 OFFCURVE",
"60 500 CURVE",
"60 210 OFFCURVE",
"284 -26 OFFCURVE",
"560 -26 CURVE",
"722 -26 OFFCURVE",
"868 56 OFFCURVE",
"958 184 CURVE",
"906 212 LINE"
);
}
);
width = 1018;
},
{
layerId = "7763577D-A4D2-4749-AE53-49BDF6EC3913";
paths = (
{
closed = 1;
nodes = (
"620 300 OFFCURVE",
"568 274 OFFCURVE",
"511 274 CURVE",
"406 274 OFFCURVE",
"342 374 OFFCURVE",
"358 483 CURVE",
"376 612 OFFCURVE",
"486 728 OFFCURVE",
"609 728 CURVE",
"648 728 OFFCURVE",
"690 714 OFFCURVE",
"721 678 CURVE",
"1000 811 LINE",
"925 939 OFFCURVE",
"790 1028 OFFCURVE",
"617 1028 CURVE",
"350 1028 OFFCURVE",
"102 800 OFFCURVE",
"62 517 CURVE",
"20 218 OFFCURVE",
"218 -26 OFFCURVE",
"503 -26 CURVE",
"658 -26 OFFCURVE",
"810 49 OFFCURVE",
"919 175 CURVE",
"659 334 LINE"
);
}
);
width = 1020;
},
{
layerId = "DDA43255-513F-4353-BCA4-425ED8D2F935";
paths = (
{
closed = 1;
nodes = (
"772 109 OFFCURVE",
"633 34 OFFCURVE",
"491 34 CURVE",
"251 34 OFFCURVE",
"84 240 OFFCURVE",
"120 497 CURVE",
"155 752 OFFCURVE",
"379 968 OFFCURVE",
"629 968 CURVE",
"755 968 OFFCURVE",
"878 905 OFFCURVE",
"948 791 CURVE",
"1002 817 LINE",
"930 945 OFFCURVE",
"795 1028 OFFCURVE",
"631 1028 CURVE",
"357 1028 OFFCURVE",
"101 794 OFFCURVE",
"60 503 CURVE",
"19 212 OFFCURVE",
"212 -26 OFFCURVE",
"489 -26 CURVE",
"650 -26 OFFCURVE",
"806 55 OFFCURVE",
"914 183 CURVE",
"864 213 LINE"
);
}
);
width = 1018;
}
);
leftKerningGroup = o;
rightKerningGroup = c;
unicode = 0063;
},
{
glyphname = d;
lastChange = "2020-02-18 22:12:51 +0000";
layers = (
{
layerId = "10BC12B3-5274-42E3-B5BC-F74F362F0DF4";
paths = (
{
closed = 1;
nodes = (
"840 908 LINE",
"778 978 OFFCURVE",
"694 1026 OFFCURVE",
"586 1026 CURVE",
"296 1026 OFFCURVE",
"60 790 OFFCURVE",
"60 500 CURVE",
"60 210 OFFCURVE",
"296 -26 OFFCURVE",
"586 -26 CURVE",
"694 -26 OFFCURVE",
"778 22 OFFCURVE",
"840 92 CURVE",
"840 0 LINE",
"1140 0 LINE",
"1140 1500 LINE",
"840 1500 LINE"
);
},
{
closed = 1;
nodes = (
"468 262 OFFCURVE",
"368 368 OFFCURVE",
"368 500 CURVE",
"368 632 OFFCURVE",
"468 738 OFFCURVE",
"590 738 CURVE",
"714 738 OFFCURVE",
"814 632 OFFCURVE",
"814 500 CURVE",
"814 368 OFFCURVE",
"714 262 OFFCURVE",
"590 262 CURVE"
);
}
);
width = 1240;
},
{
layerId = "9AF1F7D9-E035-453E-B2A8-46DE370997D0";
paths = (
{
closed = 1;
nodes = (
"994 768 LINE",
"922 924 OFFCURVE",
"780 1028 OFFCURVE",
"586 1028 CURVE",
"296 1028 OFFCURVE",
"60 792 OFFCURVE",
"60 500 CURVE",
"60 210 OFFCURVE",
"296 -26 OFFCURVE",
"586 -26 CURVE",
"780 -26 OFFCURVE",
"922 78 OFFCURVE",
"994 234 CURVE",
"994 0 LINE",
"1054 0 LINE",
"1054 1500 LINE",
"994 1500 LINE"
);
},
{
closed = 1;
nodes = (
"336 34 OFFCURVE",
"120 238 OFFCURVE",
"120 500 CURVE",
"120 758 OFFCURVE",
"330 968 OFFCURVE",
"586 968 CURVE",
"840 968 OFFCURVE",
"990 762 OFFCURVE",
"990 500 CURVE",
"990 244 OFFCURVE",
"844 34 OFFCURVE",
"586 34 CURVE"
);
}
);
width = 1204;
},
{
layerId = "7763577D-A4D2-4749-AE53-49BDF6EC3913";
paths = (
{
closed = 1;
nodes = (
"891 902 LINE",
"839 972 OFFCURVE",
"760 1026 OFFCURVE",
"643 1026 CURVE",
"362 1026 OFFCURVE",
"102 798 OFFCURVE",
"62 517 CURVE",
"20 218 OFFCURVE",
"230 -26 OFFCURVE",
"529 -26 CURVE",
"628 -26 OFFCURVE",
"715 16 OFFCURVE",
"787 86 CURVE",
"769 0 LINE",
"1070 0 LINE",
"1281 1500 LINE",
"980 1500 LINE"
);
},
{
closed = 1;
nodes = (
"426 262 OFFCURVE",
"348 360 OFFCURVE",
"366 483 CURVE",
"385 624 OFFCURVE",
"510 738 OFFCURVE",
"640 738 CURVE",
"756 738 OFFCURVE",
"834 640 OFFCURVE",
"816 517 CURVE",
"797 376 OFFCURVE",
"672 262 OFFCURVE",
"540 262 CURVE"
);
}
);
width = 1240;
},
{
layerId = "DDA43255-513F-4353-BCA4-425ED8D2F935";
paths = (
{
closed = 1;
nodes = (
"1031 766 LINE",
"981 922 OFFCURVE",
"853 1028 OFFCURVE",
"657 1028 CURVE",
"369 1028 OFFCURVE",
"101 794 OFFCURVE",
"60 503 CURVE",
"19 212 OFFCURVE",
"224 -26 OFFCURVE",
"515 -26 CURVE",
"708 -26 OFFCURVE",
"863 76 OFFCURVE",
"957 232 CURVE",
"924 0 LINE",
"984 0 LINE",
"1195 1500 LINE",
"1135 1500 LINE"
);
},
{
closed = 1;
nodes = (
"269 34 OFFCURVE",
"83 236 OFFCURVE",
"120 497 CURVE",
"156 756 OFFCURVE",
"397 968 OFFCURVE",
"655 968 CURVE",
"907 968 OFFCURVE",
"1027 764 OFFCURVE",
"990 503 CURVE",
"954 246 OFFCURVE",
"777 34 OFFCURVE",
"517 34 CURVE"
);
}
);
width = 1204;
}
);
leftKerningGroup = o;
leftMetricsKey = o;
rightKerningGroup = l;
unicode = 0064;
},
{
glyphname = eth;
lastChange = "2020-02-18 22:12:51 +0000";
layers = (
{
components = (
{
name = partialdiff;
}
);
layerId = "10BC12B3-5274-42E3-B5BC-F74F362F0DF4";
paths = (
{
closed = 1;
nodes = (
"876 1450 LINE",
"736 1592 LINE",
"298 1160 LINE",
"440 1018 LINE"
);
}
);
width = 1126;
},
{
components = (
{
name = partialdiff;
}
);
layerId = "9AF1F7D9-E035-453E-B2A8-46DE370997D0";
paths = (
{
closed = 1;
nodes = (
"866 1500 LINE",
"824 1542 LINE",
"384 1114 LINE",
"428 1070 LINE"
);
}
);
width = 1124;
},
{
components = (
{
name = partialdiff;
}
);
layerId = "7763577D-A4D2-4749-AE53-49BDF6EC3913";
paths = (
{
closed = 1;
nodes = (
"1010 1450 LINE",
"884 1592 LINE",
"391 1160 LINE",
"519 1018 LINE"
);
}
);
width = 1126;
},
{
components = (
{
name = partialdiff;
}
);
layerId = "DDA43255-513F-4353-BCA4-425ED8D2F935";
paths = (
{
closed = 1;
nodes = (
"1007 1500 LINE",
"969 1542 LINE",
"470 1114 LINE",
"509 1070 LINE"
);
}
);
width = 1124;
}
);
leftKerningGroup = o;
rightKerningGroup = eth;
unicode = 00F0;
},
{
glyphname = e;
lastChange = "2020-02-18 22:12:51 +0000";
layers = (
{
layerId = "10BC12B3-5274-42E3-B5BC-F74F362F0DF4";
paths = (
{
closed = 1;
nodes = (
"760 -26 OFFCURVE",
"932 98 OFFCURVE",
"1013 276 CURVE",
"707 347 LINE",
"670 302 OFFCURVE",
"618 273 OFFCURVE",
"560 274 CURVE SMOOTH",
"467 276 OFFCURVE",
"412 330 OFFCURVE",
"384 401 CURVE",
"1051 401 LINE",
"1111 719 OFFCURVE",
"879 1028 OFFCURVE",
"560 1028 CURVE SMOOTH",
"284 1028 OFFCURVE",
"60 792 OFFCURVE",
"60 501 CURVE SMOOTH",
"60 210 OFFCURVE",
"284 -26 OFFCURVE",
"560 -26 CURVE SMOOTH"
);
},
{
closed = 1;
nodes = (
"402 707 OFFCURVE",
"475 768 OFFCURVE",
"560 768 CURVE SMOOTH",
"646 768 OFFCURVE",
"719 707 OFFCURVE",
"748 621 CURVE",
"373 621 LINE"
);
}
);
width = 1120;
},
{
layerId = "9AF1F7D9-E035-453E-B2A8-46DE370997D0";
paths = (
{
closed = 1;
nodes = (
"760 -26 OFFCURVE",
"932 98 OFFCURVE",
"1012 276 CURVE",
"952 290 LINE",
"872 130 OFFCURVE",
"730 34 OFFCURVE",
"560 34 CURVE SMOOTH",
"330 34 OFFCURVE",
"140 220 OFFCURVE",
"120 470 CURVE",
"1058 470 LINE",
"1052 804 OFFCURVE",
"846 1028 OFFCURVE",
"560 1028 CURVE SMOOTH",
"284 1028 OFFCURVE",
"60 792 OFFCURVE",
"60 500 CURVE SMOOTH",
"60 210 OFFCURVE",
"284 -26 OFFCURVE",
"560 -26 CURVE SMOOTH"
);
},
{
closed = 1;
nodes = (
"136 772 OFFCURVE",
"322 968 OFFCURVE",
"560 968 CURVE SMOOTH",
"796 968 OFFCURVE",
"990 764 OFFCURVE",
"998 530 CURVE",
"120 530 LINE"
);
}
);
width = 1118;
},
{
layerId = "7763577D-A4D2-4749-AE53-49BDF6EC3913";
paths = (
{
closed = 1;
nodes = (
"694 -26 OFFCURVE",
"878 90 OFFCURVE",
"984 268 CURVE",
"681 353 LINE",
"638 308 OFFCURVE",
"578 273 OFFCURVE",
"511 274 CURVE SMOOTH",
"427 276 OFFCURVE",
"384 322 OFFCURVE",
"366 393 CURVE",
"1037 393 LINE",
"1142 711 OFFCURVE",
"945 1028 OFFCURVE",
"617 1028 CURVE SMOOTH",
"350 1028 OFFCURVE",
"102 800 OFFCURVE",
"62 518 CURVE SMOOTH",
"20 218 OFFCURVE",
"218 -26 OFFCURVE",
"503 -26 CURVE SMOOTH"
);
},
{
closed = 1;
nodes = (
"433 699 OFFCURVE",
"521 768 OFFCURVE",
"614 768 CURVE SMOOTH",
"692 768 OFFCURVE",
"752 715 OFFCURVE",
"769 629 CURVE",
"392 613 LINE"
);
}
);
width = 1120;
},
{
layerId = "DDA43255-513F-4353-BCA4-425ED8D2F935";
paths = (
{
closed = 1;
nodes = (
"688 -26 OFFCURVE",
"876 96 OFFCURVE",
"981 274 CURVE",
"922 291 LINE",
"819 131 OFFCURVE",
"663 34 OFFCURVE",
"491 34 CURVE SMOOTH",
"263 34 OFFCURVE",
"100 218 OFFCURVE",
"115 468 CURVE",
"1054 468 LINE",
"1094 802 OFFCURVE",
"919 1028 OFFCURVE",
"631 1028 CURVE SMOOTH",
"357 1028 OFFCURVE",
"101 794 OFFCURVE",
"60 503 CURVE SMOOTH",
"19 212 OFFCURVE",
"212 -26 OFFCURVE",
"489 -26 CURVE SMOOTH"
);
},
{
closed = 1;
nodes = (
"174 770 OFFCURVE",
"389 968 OFFCURVE",
"629 968 CURVE SMOOTH",
"863 968 OFFCURVE",
"1027 766 OFFCURVE",
"1003 532 CURVE",
"124 528 LINE"
);
}
);
width = 1118;
}
);
leftKerningGroup = o;
rightKerningGroup = o;
unicode = 0065;
},
{
glyphname = f;
lastChange = "2020-02-18 22:12:51 +0000";
layers = (
{
layerId = "10BC12B3-5274-42E3-B5BC-F74F362F0DF4";
paths = (
{
closed = 1;
nodes = (
"444 1206 OFFCURVE",
"464 1224 OFFCURVE",
"488 1224 CURVE",
"504 1224 OFFCURVE",
"523 1214 OFFCURVE",
"530 1194 CURVE",
"746 1406 LINE",
"675 1487 OFFCURVE",
"580 1524 OFFCURVE",
"488 1524 CURVE",
"298 1524 OFFCURVE",
"144 1370 OFFCURVE",
"144 1182 CURVE",
"144 1000 LINE",
"50 1000 LINE",
"50 700 LINE",
"144 700 LINE",
"144 0 LINE",
"444 0 LINE",
"444 700 LINE",
"702 700 LINE",
"702 1000 LINE",
"444 1000 LINE",
"444 1182 LINE"
);
}
);
width = 762;
},
{
layerId = "9AF1F7D9-E035-453E-B2A8-46DE370997D0";
paths = (
{
closed = 1;
nodes = (
"268 1390 OFFCURVE",
"342 1464 OFFCURVE",
"432 1464 CURVE",
"476 1464 OFFCURVE",
"518 1446 OFFCURVE",
"548 1416 CURVE",
"590 1458 LINE",
"548 1500 OFFCURVE",
"492 1524 OFFCURVE",
"432 1524 CURVE",
"308 1524 OFFCURVE",
"208 1424 OFFCURVE",
"208 1300 CURVE",
"208 930 LINE",
"50 930 LINE",
"50 870 LINE",
"208 870 LINE",
"208 0 LINE",
"268 0 LINE",
"268 870 LINE",
"590 870 LINE",
"590 930 LINE",
"268 930 LINE",
"268 1300 LINE"
);
}
);
width = 620;
},
{
layerId = "7763577D-A4D2-4749-AE53-49BDF6EC3913";
paths = (
{
closed = 1;
nodes = (
"542 1198 OFFCURVE",
"574 1224 OFFCURVE",
"607 1224 CURVE",
"614 1224 OFFCURVE",
"627 1222 OFFCURVE",
"631 1202 CURVE",
"870 1400 LINE",
"807 1481 OFFCURVE",
"716 1524 OFFCURVE",
"615 1524 CURVE",
"434 1524 OFFCURVE",
"267 1378 OFFCURVE",
"241 1190 CURVE",
"214 1000 LINE",
"120 1000 LINE",
"78 700 LINE",
"172 700 LINE",
"74 0 LINE",
"374 0 LINE",
"472 700 LINE",
"730 700 LINE",
"772 1000 LINE",
"514 1000 LINE",
"539 1174 LINE"
);
}
);
width = 762;
},
{
layerId = "DDA43255-513F-4353-BCA4-425ED8D2F935";
paths = (
{
closed = 1;
nodes = (
"393 1388 OFFCURVE",
"479 1464 OFFCURVE",
"571 1464 CURVE",
"613 1464 OFFCURVE",
"652 1447 OFFCURVE",
"678 1417 CURVE",
"724 1457 LINE",
"687 1499 OFFCURVE",
"634 1524 OFFCURVE",
"573 1524 CURVE",
"450 1524 OFFCURVE",
"338 1426 OFFCURVE",
"321 1302 CURVE",
"268 930 LINE",
"110 930 LINE",
"102 870 LINE",
"260 870 LINE",
"138 0 LINE",
"198 0 LINE",
"320 870 LINE",
"642 870 LINE",
"650 930 LINE",
"328 930 LINE",
"380 1298 LINE"
);
}
);
width = 620;
}
);
leftKerningGroup = f;
rightKerningGroup = f;
unicode = 0066;
},
{
glyphname = g;
lastChange = "2020-02-18 22:12:51 +0000";
layers = (
{
layerId = "10BC12B3-5274-42E3-B5BC-F74F362F0DF4";
paths = (
{
closed = 1;
nodes = (
"834 912 LINE",
"774 980 OFFCURVE",
"692 1026 OFFCURVE",
"586 1026 CURVE SMOOTH",
"296 1026 OFFCURVE",
"60 790 OFFCURVE",
"60 500 CURVE SMOOTH",
"60 210 OFFCURVE",
"296 -26 OFFCURVE",
"586 -26 CURVE SMOOTH",
"692 -26 OFFCURVE",
"774 20 OFFCURVE",
"834 88 CURVE",
"834 -10 LINE SMOOTH",
"834 -140 OFFCURVE",
"704 -198 OFFCURVE",
"566 -198 CURVE SMOOTH",
"472 -198 OFFCURVE",
"386 -146 OFFCURVE",
"344 -56 CURVE",
"70 -180 LINE",
"158 -370 OFFCURVE",
"354 -500 OFFCURVE",
"566 -500 CURVE SMOOTH",
"870 -500 OFFCURVE",
"1134 -314 OFFCURVE",
"1134 -10 CURVE SMOOTH",
"1134 1000 LINE",
"834 1000 LINE"
);
},
{
closed = 1;
nodes = (
"468 262 OFFCURVE",
"368 368 OFFCURVE",
"368 500 CURVE SMOOTH",
"368 632 OFFCURVE",
"468 738 OFFCURVE",
"590 738 CURVE SMOOTH",
"714 738 OFFCURVE",
"814 632 OFFCURVE",
"814 500 CURVE SMOOTH",
"814 368 OFFCURVE",
"714 262 OFFCURVE",
"590 262 CURVE SMOOTH"
);
}
);
width = 1254;
},
{
layerId = "9AF1F7D9-E035-453E-B2A8-46DE370997D0";
paths = (
{
closed = 1;
nodes = (
"956 770 LINE",
"882 924 OFFCURVE",
"742 1028 OFFCURVE",
"560 1028 CURVE",
"284 1028 OFFCURVE",
"60 792 OFFCURVE",
"60 500 CURVE",
"60 210 OFFCURVE",
"284 -26 OFFCURVE",
"560 -26 CURVE",
"742 -26 OFFCURVE",
"882 78 OFFCURVE",
"956 232 CURVE",
"956 -50 LINE",
"956 -250 OFFCURVE",
"754 -440 OFFCURVE",
"548 -440 CURVE",
"370 -440 OFFCURVE",
"180 -290 OFFCURVE",
"146 -110 CURVE",
"90 -136 LINE",
"136 -330 OFFCURVE",
"340 -500 OFFCURVE",
"548 -500 CURVE",
"784 -500 OFFCURVE",
"1016 -282 OFFCURVE",
"1016 -50 CURVE",
"1016 1000 LINE",
"956 1000 LINE"
);
},
{
closed = 1;
nodes = (
"320 34 OFFCURVE",
"120 240 OFFCURVE",
"120 500 CURVE",
"120 758 OFFCURVE",
"314 968 OFFCURVE",
"560 968 CURVE",
"804 968 OFFCURVE",
"954 754 OFFCURVE",
"954 500 CURVE",
"954 252 OFFCURVE",
"808 34 OFFCURVE",
"560 34 CURVE"
);
}
);
width = 1136;
},
{
layerId = "7763577D-A4D2-4749-AE53-49BDF6EC3913";
paths = (
{
closed = 1;
nodes = (
"885 906 LINE",
"835 974 OFFCURVE",
"758 1026 OFFCURVE",
"643 1026 CURVE SMOOTH",
"362 1026 OFFCURVE",
"102 798 OFFCURVE",
"62 517 CURVE SMOOTH",
"20 218 OFFCURVE",
"230 -26 OFFCURVE",
"529 -26 CURVE SMOOTH",
"626 -26 OFFCURVE",
"711 14 OFFCURVE",
"781 82 CURVE",
"763 -2 LINE SMOOTH",
"745 -132 OFFCURVE",
"598 -198 OFFCURVE",
"451 -198 CURVE SMOOTH",
"366 -198 OFFCURVE",
"291 -154 OFFCURVE",
"261 -64 CURVE",
"-22 -172 LINE",
"40 -362 OFFCURVE",
"222 -500 OFFCURVE",
"442 -500 CURVE SMOOTH",
"738 -500 OFFCURVE",
"1018 -322 OFFCURVE",
"1061 -18 CURVE SMOOTH",
"1204 1000 LINE",
"904 1000 LINE"
);
},
{
closed = 1;
nodes = (
"426 262 OFFCURVE",
"348 360 OFFCURVE",
"366 483 CURVE SMOOTH",
"385 624 OFFCURVE",
"510 738 OFFCURVE",
"640 738 CURVE SMOOTH",
"756 738 OFFCURVE",
"834 640 OFFCURVE",
"816 517 CURVE SMOOTH",
"797 376 OFFCURVE",
"672 262 OFFCURVE",
"540 262 CURVE SMOOTH"
);
}
);
width = 1254;
},
{
layerId = "DDA43255-513F-4353-BCA4-425ED8D2F935";
paths = (
{
closed = 1;
nodes = (
"993 768 LINE",
"941 922 OFFCURVE",
"815 1028 OFFCURVE",
"631 1028 CURVE",
"357 1028 OFFCURVE",
"101 794 OFFCURVE",
"60 503 CURVE",
"19 212 OFFCURVE",
"212 -26 OFFCURVE",
"489 -26 CURVE",
"670 -26 OFFCURVE",
"823 76 OFFCURVE",
"919 230 CURVE",
"879 -48 LINE",
"851 -248 OFFCURVE",
"620 -440 OFFCURVE",
"413 -440 CURVE",
"236 -440 OFFCURVE",
"68 -292 OFFCURVE",
"60 -112 CURVE",
"1 -134 LINE",
"20 -328 OFFCURVE",
"201 -500 OFFCURVE",
"411 -500 CURVE",
"645 -500 OFFCURVE",
"906 -284 OFFCURVE",
"938 -52 CURVE",
"1086 1000 LINE",
"1026 1000 LINE"
);
},
{
closed = 1;
nodes = (
"253 34 OFFCURVE",
"83 238 OFFCURVE",
"120 497 CURVE",
"156 756 OFFCURVE",
"381 968 OFFCURVE",
"629 968 CURVE",
"871 968 OFFCURVE",
"990 756 OFFCURVE",
"954 503 CURVE",
"919 254 OFFCURVE",
"741 34 OFFCURVE",
"491 34 CURVE"
);
}
);
width = 1136;
}
);
leftKerningGroup = o;
rightKerningGroup = g;
unicode = 0067;
},
{
glyphname = h;
lastChange = "2020-02-18 22:12:51 +0000";
layers = (
{
layerId = "10BC12B3-5274-42E3-B5BC-F74F362F0DF4";
paths = (
{
closed = 1;
nodes = (
"1094 792 OFFCURVE",
"920 1026 OFFCURVE",
"632 1026 CURVE",
"532 1026 OFFCURVE",
"460 1020 OFFCURVE",
"420 938 CURVE",
"420 1500 LINE",
"120 1500 LINE",
"120 0 LINE",
"422 0 LINE",
"422 500 LINE",
"422 632 OFFCURVE",
"468 738 OFFCURVE",
"600 738 CURVE",
"710 738 OFFCURVE",
"798 632 OFFCURVE",
"798 500 CURVE",
"798 0 LINE",
"1098 0 LINE",
"1098 504 LINE"
);
}
);
width = 1178;
},
{
layerId = "9AF1F7D9-E035-453E-B2A8-46DE370997D0";
paths = (
{
closed = 1;
nodes = (
"954 806 OFFCURVE",
"778 1028 OFFCURVE",
"538 1028 CURVE",
"390 1028 OFFCURVE",
"262 942 OFFCURVE",
"180 796 CURVE",
"180 1500 LINE",
"120 1500 LINE",
"120 0 LINE",
"180 0 LINE",
"180 550 LINE",
"180 780 OFFCURVE",
"342 968 OFFCURVE",
"538 968 CURVE",
"736 968 OFFCURVE",
"898 780 OFFCURVE",
"898 550 CURVE",
"898 0 LINE",
"958 0 LINE",
"958 554 LINE"
);
}
);
width = 1038;
},
{
layerId = "7763577D-A4D2-4749-AE53-49BDF6EC3913";
paths = (
{
closed = 1;
nodes = (
"1134 784 OFFCURVE",
"986 1026 OFFCURVE",
"689 1026 CURVE",
"598 1026 OFFCURVE",
"530 1028 OFFCURVE",
"479 946 CURVE",
"561 1500 LINE",
"261 1500 LINE",
"50 0 LINE",
"352 0 LINE",
"421 492 LINE",
"439 624 OFFCURVE",
"510 738 OFFCURVE",
"650 738 CURVE",
"752 738 OFFCURVE",
"818 640 OFFCURVE",
"799 508 CURVE",
"728 0 LINE",
"1028 0 LINE",
"1097 496 LINE"
);
}
);
width = 1178;
},
{
layerId = "DDA43255-513F-4353-BCA4-425ED8D2F935";
paths = (
{
closed = 1;
nodes = (
"997 804 OFFCURVE",
"851 1028 OFFCURVE",
"609 1028 CURVE",
"463 1028 OFFCURVE",
"324 943 OFFCURVE",
"221 797 CURVE",
"321 1500 LINE",
"261 1500 LINE",
"50 0 LINE",
"110 0 LINE",
"187 548 LINE",
"219 778 OFFCURVE",
"409 968 OFFCURVE",
"607 968 CURVE",
"803 968 OFFCURVE",
"938 782 OFFCURVE",
"905 552 CURVE",
"828 0 LINE",
"888 0 LINE",
"965 552 LINE"
);
}
);
width = 1038;
}
);
leftKerningGroup = h;
leftMetricsKey = H;
rightKerningGroup = n;
unicode = 0068;
},
{
glyphname = i;
lastChange = "2020-02-18 22:12:51 +0000";
layers = (
{
layerId = "10BC12B3-5274-42E3-B5BC-F74F362F0DF4";
paths = (
{
closed = 1;
nodes = (
"122 0 LINE",
"422 0 LINE",
"422 1000 LINE",
"122 1000 LINE"
);
},
{
closed = 1;
nodes = (
"354 1100 OFFCURVE",
"420 1166 OFFCURVE",
"420 1250 CURVE",
"420 1332 OFFCURVE",
"354 1400 OFFCURVE",
"270 1400 CURVE",
"188 1400 OFFCURVE",
"120 1332 OFFCURVE",
"120 1250 CURVE",
"120 1166 OFFCURVE",
"188 1100 OFFCURVE",
"270 1100 CURVE"
);
}
);
width = 542;
},
{
layerId = "9AF1F7D9-E035-453E-B2A8-46DE370997D0";
paths = (
{
closed = 1;
nodes = (
"126 0 LINE",
"186 0 LINE",
"186 1000 LINE",
"126 1000 LINE"
);
},
{
closed = 1;
nodes = (
"188 1200 OFFCURVE",
"210 1224 OFFCURVE",
"210 1244 CURVE",
"210 1268 OFFCURVE",
"188 1290 OFFCURVE",
"164 1290 CURVE",
"140 1290 OFFCURVE",
"120 1268 OFFCURVE",
"120 1244 CURVE",
"120 1224 OFFCURVE",
"140 1200 OFFCURVE",
"164 1200 CURVE"
);
}
);
width = 330;
},
{
layerId = "7763577D-A4D2-4749-AE53-49BDF6EC3913";
paths = (
{
closed = 1;
nodes = (
"52 0 LINE",
"352 0 LINE",
"492 1000 LINE",
"192 1000 LINE"
);
},
{
closed = 1;
nodes = (
"447 1100 OFFCURVE",
"512 1158 OFFCURVE",
"523 1233 CURVE",
"536 1324 OFFCURVE",
"472 1400 OFFCURVE",
"380 1400 CURVE",
"306 1400 OFFCURVE",
"238 1340 OFFCURVE",
"228 1267 CURVE",
"215 1174 OFFCURVE",
"281 1100 OFFCURVE",
"371 1100 CURVE"
);
}
);
width = 542;
},
{
layerId = "DDA43255-513F-4353-BCA4-425ED8D2F935";
paths = (
{
closed = 1;
nodes = (
"56 0 LINE",
"116 0 LINE",
"256 1000 LINE",
"196 1000 LINE"
);
},
{
closed = 1;
nodes = (
"288 1200 OFFCURVE",
"312 1222 OFFCURVE",
"314 1241 CURVE",
"318 1266 OFFCURVE",
"297 1290 OFFCURVE",
"272 1290 CURVE",
"249 1290 OFFCURVE",
"228 1270 OFFCURVE",
"225 1247 CURVE",
"222 1226 OFFCURVE",
"240 1200 OFFCURVE",
"266 1200 CURVE"
);
}
);
width = 330;
}
);
leftKerningGroup = i;
rightKerningGroup = i;
unicode = 0069;
},
{
glyphname = idotless;
lastChange = "2020-02-18 22:12:51 +0000";
layers = (
{
layerId = "10BC12B3-5274-42E3-B5BC-F74F362F0DF4";
paths = (
{
closed = 1;
nodes = (
"120 0 LINE",
"420 0 LINE",
"420 1000 LINE",
"120 1000 LINE"
);
}
);
width = 540;
},
{
layerId = "9AF1F7D9-E035-453E-B2A8-46DE370997D0";
paths = (
{
closed = 1;
nodes = (
"120 0 LINE",
"180 0 LINE",
"180 1000 LINE",
"120 1000 LINE"
);
}
);
width = 300;
},
{
layerId = "7763577D-A4D2-4749-AE53-49BDF6EC3913";
paths = (
{
closed = 1;
nodes = (
"50 0 LINE",
"350 0 LINE",
"490 1000 LINE",
"190 1000 LINE"
);
}
);
width = 540;
},
{
layerId = "DDA43255-513F-4353-BCA4-425ED8D2F935";
paths = (
{
closed = 1;
nodes = (
"50 0 LINE",
"110 0 LINE",
"250 1000 LINE",
"190 1000 LINE"
);
}
);
width = 300;
}
);
leftKerningGroup = i;
leftMetricsKey = i;
rightKerningGroup = i;
rightMetricsKey = i;
unicode = 0131;
},
{
glyphname = iacute;
lastChange = "2020-02-18 22:14:36 +0000";
layers = (
{
components = (
{
name = acutecomb;
transform = "{1, 0, 0, 1, -290, 0}";
}
);
layerId = "10BC12B3-5274-42E3-B5BC-F74F362F0DF4";
paths = (
{
closed = 1;
nodes = (
"120 0 LINE",
"420 0 LINE",
"420 1000 LINE",
"120 1000 LINE"
);
}
);
width = 590;
},
{
components = (
{
name = acutecomb;
transform = "{1, 0, 0, 1, -340, 0}";
}
);
layerId = "9AF1F7D9-E035-453E-B2A8-46DE370997D0";
paths = (
{
closed = 1;
nodes = (
"120 0 LINE",
"180 0 LINE",
"180 1000 LINE",
"120 1000 LINE"
);
}
);
width = 300;
},
{
components = (
{
name = acutecomb;
transform = "{1, 0, 0, 1, -290, 0}";
}
);
layerId = "7763577D-A4D2-4749-AE53-49BDF6EC3913";
paths = (
{
closed = 1;
nodes = (
"50 0 LINE",
"350 0 LINE",
"490 1000 LINE",
"190 1000 LINE"
);
}
);
width = 593;
},
{
components = (
{
name = acutecomb;
transform = "{1, 0, 0, 1, -340, 0}";
}
);
layerId = "DDA43255-513F-4353-BCA4-425ED8D2F935";
paths = (
{
closed = 1;
nodes = (
"50 0 LINE",
"110 0 LINE",
"250 1000 LINE",
"190 1000 LINE"
);
}
);
width = 301;
}
);
leftKerningGroup = i;
leftMetricsKey = i;
rightKerningGroup = i;
rightMetricsKey = "=i-100";
unicode = 00ED;
},
{
glyphname = icircumflex;
lastChange = "2020-02-18 22:14:25 +0000";
layers = (
{
components = (
{
name = circumflexcomb;
transform = "{1, 0, 0, 1, -380, 0}";
}
);
layerId = "10BC12B3-5274-42E3-B5BC-F74F362F0DF4";
paths = (
{
closed = 1;
nodes = (
"120 0 LINE",
"420 0 LINE",
"420 1000 LINE",
"120 1000 LINE"
);
}
);
width = 542;
},
{
components = (
{
name = circumflexcomb;
transform = "{1, 0, 0, 1, -380, 0}";
}
);
layerId = "9AF1F7D9-E035-453E-B2A8-46DE370997D0";
paths = (
{
closed = 1;
nodes = (
"110 0 LINE",
"170 0 LINE",
"170 1000 LINE",
"110 1000 LINE"
);
}
);
width = 282;
},
{
components = (
{
name = circumflexcomb;
transform = "{1, 0, 0, 1, -377, 0}";
}
);
layerId = "7763577D-A4D2-4749-AE53-49BDF6EC3913";
paths = (
{
closed = 1;
nodes = (
"53 0 LINE",
"353 0 LINE",
"493 1000 LINE",
"193 1000 LINE"
);
}
);
width = 542;
},
{
components = (
{
name = circumflexcomb;
transform = "{1, 0, 0, 1, -379, 0}";
}
);
layerId = "DDA43255-513F-4353-BCA4-425ED8D2F935";
paths = (
{
closed = 1;
nodes = (
"41 0 LINE",
"101 0 LINE",
"241 1000 LINE",
"181 1000 LINE"
);
}
);
width = 282;
}
);
leftMetricsKey = "=i-100";
rightMetricsKey = "=i-100";
unicode = 00EE;
},
{
glyphname = idieresis;
lastChange = "2020-02-18 22:12:51 +0000";
layers = (
{
components = (
{
name = dieresiscomb;
transform = "{1, 0, 0, 1, -340, 0}";
}
);
layerId = "10BC12B3-5274-42E3-B5BC-F74F362F0DF4";
paths = (
{
closed = 1;
nodes = (
"280 0 LINE",
"580 0 LINE",
"580 1000 LINE",
"280 1000 LINE"
);
}
);
width = 862;
},
{
components = (
{
name = dieresiscomb;
transform = "{1, 0, 0, 1, -340, 0}";
}
);
layerId = "9AF1F7D9-E035-453E-B2A8-46DE370997D0";
paths = (
{
closed = 1;
nodes = (
"202 0 LINE",
"262 0 LINE",
"262 1000 LINE",
"202 1000 LINE"
);
}
);
width = 466;
},
{
components = (
{
name = dieresiscomb;
transform = "{1, 0, 0, 1, -340, 0}";
}
);
layerId = "7763577D-A4D2-4749-AE53-49BDF6EC3913";
paths = (
{
closed = 1;
nodes = (
"210 0 LINE",
"510 0 LINE",
"650 1000 LINE",
"350 1000 LINE"
);
}
);
width = 862;
},
{
components = (
{
name = dieresiscomb;
transform = "{1, 0, 0, 1, -340, 0}";
}
);
layerId = "DDA43255-513F-4353-BCA4-425ED8D2F935";
paths = (
{
closed = 1;
nodes = (
"132 0 LINE",
"192 0 LINE",
"332 1000 LINE",
"272 1000 LINE"
);
}
);
width = 466;
}
);
leftKerningGroup = i;
leftMetricsKey = "=i-60";
rightKerningGroup = i;
rightMetricsKey = "=i-60";
unicode = 00EF;
},
{
glyphname = igrave;
lastChange = "2020-02-18 22:14:11 +0000";
layers = (
{
components = (
{
name = grave;
transform = "{1, 0, 0, 1, -300, 0}";
}
);
layerId = "10BC12B3-5274-42E3-B5BC-F74F362F0DF4";
paths = (
{
closed = 1;
nodes = (
"170 0 LINE",
"470 0 LINE",
"470 1000 LINE",
"170 1000 LINE"
);
}
);
width = 590;
},
{
components = (
{
name = grave;
transform = "{1, 0, 0, 1, -300, 0}";
}
);
layerId = "9AF1F7D9-E035-453E-B2A8-46DE370997D0";
paths = (
{
closed = 1;
nodes = (
"120 0 LINE",
"180 0 LINE",
"180 1000 LINE",
"120 1000 LINE"
);
}
);
width = 300;
},
{
components = (
{
name = grave;
transform = "{1, 0, 0, 1, -303, 0}";
}
);
layerId = "7763577D-A4D2-4749-AE53-49BDF6EC3913";
paths = (
{
closed = 1;
nodes = (
"97 0 LINE",
"397 0 LINE",
"537 1000 LINE",
"237 1000 LINE"
);
}
);
width = 587;
},
{
components = (
{
name = grave;
transform = "{1, 0, 0, 1, -301, 0}";
}
);
layerId = "DDA43255-513F-4353-BCA4-425ED8D2F935";
paths = (
{
closed = 1;
nodes = (
"49 0 LINE",
"109 0 LINE",
"249 1000 LINE",
"189 1000 LINE"
);
}
);
width = 299;
}
);
leftKerningGroup = i;
leftMetricsKey = "=i-100";
rightKerningGroup = i;
rightMetricsKey = i;
unicode = 00EC;
},
{
glyphname = j;
lastChange = "2020-02-18 22:12:51 +0000";
layers = (
{
layerId = "10BC12B3-5274-42E3-B5BC-F74F362F0DF4";
paths = (
{
closed = 1;
nodes = (
"182 -500 OFFCURVE",
"392 -288 OFFCURVE",
"392 -28 CURVE",
"392 1000 LINE",
"92 1000 LINE",
"92 -28 LINE",
"92 -124 OFFCURVE",
"14 -200 OFFCURVE",
"-80 -200 CURVE",
"-80 -200 OFFCURVE",
"-80 -500 OFFCURVE",
"-80 -500 CURVE"
);
},
{
closed = 1;
nodes = (
"324 1100 OFFCURVE",
"392 1168 OFFCURVE",
"392 1250 CURVE",
"392 1334 OFFCURVE",
"324 1400 OFFCURVE",
"242 1400 CURVE",
"158 1400 OFFCURVE",
"92 1334 OFFCURVE",
"92 1250 CURVE",
"92 1168 OFFCURVE",
"158 1100 OFFCURVE",
"242 1100 CURVE"
);
}
);
width = 542;
},
{
layerId = "9AF1F7D9-E035-453E-B2A8-46DE370997D0";
paths = (
{
closed = 1;
nodes = (
"132 -500 OFFCURVE",
"286 -344 OFFCURVE",
"286 -148 CURVE",
"286 1000 LINE",
"226 1000 LINE",
"226 -148 LINE",
"226 -314 OFFCURVE",
"96 -440 OFFCURVE",
"-80 -440 CURVE",
"-80 -440 OFFCURVE",
"-80 -500 OFFCURVE",
"-80 -500 CURVE SMOOTH"
);
},
{
closed = 1;
nodes = (
"280 1200 OFFCURVE",
"302 1220 OFFCURVE",
"302 1244 CURVE",
"302 1268 OFFCURVE",
"280 1290 OFFCURVE",
"256 1290 CURVE",
"232 1290 OFFCURVE",
"212 1268 OFFCURVE",
"212 1244 CURVE",
"212 1220 OFFCURVE",
"232 1200 OFFCURVE",
"256 1200 CURVE"
);
}
);
width = 452;
},
{
layerId = "7763577D-A4D2-4749-AE53-49BDF6EC3913";
paths = (
{
closed = 1;
nodes = (
"50 -500 OFFCURVE",
"280 -296 OFFCURVE",
"317 -36 CURVE",
"462 1000 LINE",
"162 1000 LINE",
"19 -20 LINE",
"5 -116 OFFCURVE",
"-93 -200 OFFCURVE",
"-178 -200 CURVE",
"-170 -200 OFFCURVE",
"-229 -500 OFFCURVE",
"-221 -500 CURVE"
);
},
{
closed = 1;
nodes = (
"417 1100 OFFCURVE",
"485 1160 OFFCURVE",
"495 1233 CURVE",
"508 1326 OFFCURVE",
"442 1400 OFFCURVE",
"352 1400 CURVE",
"276 1400 OFFCURVE",
"210 1342 OFFCURVE",
"200 1267 CURVE",
"187 1176 OFFCURVE",
"251 1100 OFFCURVE",
"343 1100 CURVE"
);
}
);
width = 542;
},
{
layerId = "DDA43255-513F-4353-BCA4-425ED8D2F935";
paths = (
{
closed = 1;
nodes = (
"-7 -500 OFFCURVE",
"167 -346 OFFCURVE",
"195 -150 CURVE",
"356 1000 LINE",
"296 1000 LINE",
"135 -146 LINE",
"112 -312 OFFCURVE",
"-38 -440 OFFCURVE",
"-212 -440 CURVE",
"-210 -440 OFFCURVE",
"-222 -500 OFFCURVE",
"-221 -500 CURVE SMOOTH"
);
},
{
closed = 1;
nodes = (
"380 1200 OFFCURVE",
"403 1218 OFFCURVE",
"406 1241 CURVE",
"410 1266 OFFCURVE",
"389 1290 OFFCURVE",
"364 1290 CURVE",
"341 1290 OFFCURVE",
"320 1270 OFFCURVE",
"317 1247 CURVE",
"313 1222 OFFCURVE",
"332 1200 OFFCURVE",
"358 1200 CURVE"
);
}
);
width = 452;
}
);
leftKerningGroup = j;
rightKerningGroup = g;
unicode = 006A;
},
{
glyphname = k;
lastChange = "2020-02-18 22:12:51 +0000";
layers = (
{
layerId = "10BC12B3-5274-42E3-B5BC-F74F362F0DF4";
paths = (
{
closed = 1;
nodes = (
"734 588 LINE",
"1078 1000 LINE",
"686 1000 LINE",
"420 682 LINE",
"420 1500 LINE",
"120 1500 LINE",
"120 0 LINE",
"420 0 LINE",
"420 216 LINE",
"528 344 LINE",
"728 0 LINE",
"1074 0 LINE"
);
}
);
width = 1118;
},
{
layerId = "9AF1F7D9-E035-453E-B2A8-46DE370997D0";
paths = (
{
closed = 1;
nodes = (
"496 602 LINE",
"832 1000 LINE",
"754 1000 LINE",
"210 352 LINE",
"210 1500 LINE",
"150 1500 LINE",
"150 0 LINE",
"210 0 LINE",
"210 258 LINE",
"456 552 LINE",
"776 0 LINE",
"844 0 LINE"
);
}
);
width = 944;
},
{
layerId = "7763577D-A4D2-4749-AE53-49BDF6EC3913";
paths = (
{
closed = 1;
nodes = (
"746 588 LINE",
"1151 1000 LINE",
"753 1000 LINE",
"442 682 LINE",
"561 1500 LINE",
"261 1500 LINE",
"50 0 LINE",
"350 0 LINE",
"383 216 LINE",
"512 344 LINE",
"661 0 LINE",
"1001 0 LINE"
);
}
);
width = 1118;
},
{
layerId = "DDA43255-513F-4353-BCA4-425ED8D2F935";
paths = (
{
closed = 1;
nodes = (
"510 602 LINE",
"903 1000 LINE",
"824 1000 LINE",
"189 352 LINE",
"351 1500 LINE",
"291 1500 LINE",
"80 0 LINE",
"140 0 LINE",
"177 258 LINE",
"465 552 LINE",
"706 0 LINE",
"773 0 LINE"
);
}
);
width = 944;
}
);
leftKerningGroup = h;
rightKerningGroup = k;
unicode = 006B;
},
{
glyphname = l;
lastChange = "2020-02-18 22:12:51 +0000";
layers = (
{
layerId = "10BC12B3-5274-42E3-B5BC-F74F362F0DF4";
paths = (
{
closed = 1;
nodes = (
"420 0 LINE",
"420 1500 LINE",
"120 1500 LINE",
"120 0 LINE"
);
}
);
width = 540;
},
{
layerId = "9AF1F7D9-E035-453E-B2A8-46DE370997D0";
paths = (
{
closed = 1;
nodes = (
"210 2 LINE",
"210 1500 LINE",
"150 1500 LINE",
"150 2 LINE"
);
}
);
width = 360;
},
{
layerId = "7763577D-A4D2-4749-AE53-49BDF6EC3913";
paths = (
{
closed = 1;
nodes = (
"350 0 LINE",
"561 1500 LINE",
"261 1500 LINE",
"50 0 LINE"
);
}
);
width = 540;
},
{
layerId = "DDA43255-513F-4353-BCA4-425ED8D2F935";
paths = (
{
closed = 1;
nodes = (
"140 2 LINE",
"351 1500 LINE",
"291 1500 LINE",
"80 2 LINE"
);
}
);
width = 360;
}
);
leftKerningGroup = h;
rightKerningGroup = l;
unicode = 006C;
},
{
glyphname = m;
lastChange = "2020-02-18 22:12:51 +0000";
layers = (
{
layerId = "10BC12B3-5274-42E3-B5BC-F74F362F0DF4";
paths = (
{
closed = 1;
nodes = (
"380 0 LINE",
"380 532 LINE SMOOTH",
"380 627 OFFCURVE",
"457 703 OFFCURVE",
"552 703 CURVE SMOOTH",
"646 703 OFFCURVE",
"723 627 OFFCURVE",
"723 532 CURVE SMOOTH",
"723 0 LINE",
"1023 0 LINE",
"1023 532 LINE SMOOTH",
"1023 627 OFFCURVE",
"1100 703 OFFCURVE",
"1194 703 CURVE SMOOTH",
"1289 703 OFFCURVE",
"1366 627 OFFCURVE",
"1366 532 CURVE SMOOTH",
"1366 0 LINE",
"1666 0 LINE",
"1666 532 LINE SMOOTH",
"1666 792 OFFCURVE",
"1455 1003 OFFCURVE",
"1194 1003 CURVE SMOOTH",
"1074 1003 OFFCURVE",
"961 959 OFFCURVE",
"873 877 CURVE",
"786 959 OFFCURVE",
"672 1003 OFFCURVE",
"552 1003 CURVE SMOOTH",
"492 1003 OFFCURVE",
"434 992 OFFCURVE",
"380 951 CURVE",
"380 1000 LINE",
"80 1000 LINE",
"80 0 LINE"
);
}
);
width = 1746;
},
{
layerId = "9AF1F7D9-E035-453E-B2A8-46DE370997D0";
paths = (
{
closed = 1;
nodes = (
"160 0 LINE",
"160 530 LINE SMOOTH",
"160 760 OFFCURVE",
"288 968 OFFCURVE",
"478 968 CURVE SMOOTH",
"686 968 OFFCURVE",
"816 780 OFFCURVE",
"816 550 CURVE SMOOTH",
"816 0 LINE",
"876 0 LINE",
"876 550 LINE SMOOTH",
"876 780 OFFCURVE",
"1006 968 OFFCURVE",
"1214 968 CURVE SMOOTH",
"1422 968 OFFCURVE",
"1532 780 OFFCURVE",
"1532 550 CURVE SMOOTH",
"1532 0 LINE",
"1592 0 LINE",
"1592 550 LINE SMOOTH",
"1592 806 OFFCURVE",
"1462 1028 OFFCURVE",
"1214 1028 CURVE SMOOTH",
"1030 1028 OFFCURVE",
"908 920 OFFCURVE",
"846 744 CURVE",
"784 916 OFFCURVE",
"668 1028 OFFCURVE",
"478 1028 CURVE SMOOTH",
"318 1028 OFFCURVE",
"236 934 OFFCURVE",
"160 792 CURVE",
"160 1000 LINE",
"100 1000 LINE",
"100 0 LINE"
);
}
);
width = 1692;
},
{
layerId = "7763577D-A4D2-4749-AE53-49BDF6EC3913";
paths = (
{
closed = 1;
nodes = (
"310 0 LINE",
"383 524 LINE SMOOTH",
"397 619 OFFCURVE",
"494 703 OFFCURVE",
"597 703 CURVE SMOOTH",
"683 703 OFFCURVE",
"742 635 OFFCURVE",
"729 540 CURVE SMOOTH",
"653 0 LINE",
"953 0 LINE",
"1026 524 LINE SMOOTH",
"1040 619 OFFCURVE",
"1137 703 OFFCURVE",
"1239 703 CURVE SMOOTH",
"1326 703 OFFCURVE",
"1385 635 OFFCURVE",
"1372 540 CURVE SMOOTH",
"1296 0 LINE",
"1596 0 LINE",
"1669 524 LINE SMOOTH",
"1706 784 OFFCURVE",
"1517 1003 OFFCURVE",
"1248 1003 CURVE SMOOTH",
"1136 1003 OFFCURVE",
"1020 965 OFFCURVE",
"914 877 CURVE",
"844 953 OFFCURVE",
"734 1003 OFFCURVE",
"606 1003 CURVE SMOOTH",
"554 1003 OFFCURVE",
"497 997 OFFCURVE",
"437 956 CURVE",
"452 1000 LINE",
"150 1000 LINE",
"10 0 LINE"
);
}
);
width = 1746;
},
{
layerId = "DDA43255-513F-4353-BCA4-425ED8D2F935";
paths = (
{
closed = 1;
nodes = (
"90 0 LINE",
"164 528 LINE SMOOTH",
"196 758 OFFCURVE",
"355 968 OFFCURVE",
"547 968 CURVE SMOOTH",
"753 968 OFFCURVE",
"856 782 OFFCURVE",
"823 552 CURVE SMOOTH",
"746 0 LINE",
"806 0 LINE",
"883 548 LINE SMOOTH",
"915 778 OFFCURVE",
"1073 968 OFFCURVE",
"1283 968 CURVE SMOOTH",
"1489 968 OFFCURVE",
"1572 782 OFFCURVE",
"1539 552 CURVE SMOOTH",
"1462 0 LINE",
"1522 0 LINE",
"1599 548 LINE SMOOTH",
"1635 804 OFFCURVE",
"1535 1028 OFFCURVE",
"1285 1028 CURVE SMOOTH",
"1103 1028 OFFCURVE",
"967 922 OFFCURVE",
"879 744 CURVE",
"842 914 OFFCURVE",
"741 1028 OFFCURVE",
"549 1028 CURVE SMOOTH",
"391 1028 OFFCURVE",
"296 935 OFFCURVE",
"200 793 CURVE",
"230 1000 LINE",
"170 1000 LINE",
"30 0 LINE"
);
}
);
width = 1692;
}
);
leftKerningGroup = n;
rightKerningGroup = n;
unicode = 006D;
},
{
glyphname = n;
lastChange = "2020-02-18 22:12:51 +0000";
layers = (
{
layerId = "10BC12B3-5274-42E3-B5BC-F74F362F0DF4";
paths = (
{
closed = 1;
nodes = (
"1114 794 OFFCURVE",
"940 1028 OFFCURVE",
"652 1028 CURVE",
"544 1028 OFFCURVE",
"462 980 OFFCURVE",
"400 908 CURVE",
"400 1000 LINE",
"100 1000 LINE",
"100 0 LINE",
"400 0 LINE",
"400 502 LINE",
"400 632 OFFCURVE",
"468 740 OFFCURVE",
"598 740 CURVE",
"730 740 OFFCURVE",
"816 632 OFFCURVE",
"816 502 CURVE",
"816 0 LINE",
"1116 0 LINE",
"1116 506 LINE"
);
}
);
width = 1216;
},
{
layerId = "9AF1F7D9-E035-453E-B2A8-46DE370997D0";
paths = (
{
closed = 1;
nodes = (
"934 806 OFFCURVE",
"758 1028 OFFCURVE",
"518 1028 CURVE",
"370 1028 OFFCURVE",
"242 942 OFFCURVE",
"160 796 CURVE",
"160 1000 LINE",
"100 1000 LINE",
"100 0 LINE",
"160 0 LINE",
"160 550 LINE",
"160 780 OFFCURVE",
"322 968 OFFCURVE",
"518 968 CURVE",
"716 968 OFFCURVE",
"878 780 OFFCURVE",
"878 550 CURVE",
"878 0 LINE",
"938 0 LINE",
"938 554 LINE"
);
}
);
width = 1038;
},
{
layerId = "7763577D-A4D2-4749-AE53-49BDF6EC3913";
paths = (
{
closed = 1;
nodes = (
"1154 786 OFFCURVE",
"1006 1028 OFFCURVE",
"709 1028 CURVE",
"610 1028 OFFCURVE",
"525 986 OFFCURVE",
"453 914 CURVE",
"471 1000 LINE",
"170 1000 LINE",
"30 0 LINE",
"330 0 LINE",
"399 494 LINE",
"417 624 OFFCURVE",
"510 740 OFFCURVE",
"648 740 CURVE",
"772 740 OFFCURVE",
"836 640 OFFCURVE",
"817 510 CURVE",
"746 0 LINE",
"1046 0 LINE",
"1116 498 LINE"
);
}
);
width = 1216;
},
{
layerId = "DDA43255-513F-4353-BCA4-425ED8D2F935";
paths = (
{
closed = 1;
nodes = (
"977 804 OFFCURVE",
"831 1028 OFFCURVE",
"589 1028 CURVE",
"443 1028 OFFCURVE",
"304 943 OFFCURVE",
"201 797 CURVE",
"230 1000 LINE",
"170 1000 LINE",
"30 0 LINE",
"90 0 LINE",
"167 548 LINE",
"199 778 OFFCURVE",
"389 968 OFFCURVE",
"587 968 CURVE",
"783 968 OFFCURVE",
"918 782 OFFCURVE",
"885 552 CURVE",
"808 0 LINE",
"868 0 LINE",
"945 552 LINE"
);
}
);
width = 1038;
}
);
leftKerningGroup = n;
rightKerningGroup = n;
unicode = 006E;
},
{
glyphname = o;
lastChange = "2020-02-18 22:12:51 +0000";
layers = (
{
layerId = "10BC12B3-5274-42E3-B5BC-F74F362F0DF4";
paths = (
{
closed = 1;
nodes = (
"836 -26 OFFCURVE",
"1060 210 OFFCURVE",
"1060 500 CURVE SMOOTH",
"1060 792 OFFCURVE",
"836 1028 OFFCURVE",
"560 1028 CURVE SMOOTH",
"284 1028 OFFCURVE",
"60 792 OFFCURVE",
"60 500 CURVE SMOOTH",
"60 210 OFFCURVE",
"284 -26 OFFCURVE",
"560 -26 CURVE SMOOTH"
);
},
{
closed = 1;
nodes = (
"452 274 OFFCURVE",
"360 372 OFFCURVE",
"360 500 CURVE SMOOTH",
"360 622 OFFCURVE",
"448 728 OFFCURVE",
"560 728 CURVE SMOOTH",
"668 728 OFFCURVE",
"760 626 OFFCURVE",
"760 500 CURVE SMOOTH",
"760 378 OFFCURVE",
"674 274 OFFCURVE",
"560 274 CURVE SMOOTH"
);
}
);
width = 1120;
},
{
layerId = "9AF1F7D9-E035-453E-B2A8-46DE370997D0";
paths = (
{
closed = 1;
nodes = (
"836 -26 OFFCURVE",
"1060 210 OFFCURVE",
"1060 500 CURVE SMOOTH",
"1060 792 OFFCURVE",
"836 1028 OFFCURVE",
"560 1028 CURVE SMOOTH",
"284 1028 OFFCURVE",
"60 792 OFFCURVE",
"60 500 CURVE SMOOTH",
"60 210 OFFCURVE",
"284 -26 OFFCURVE",
"560 -26 CURVE SMOOTH"
);
},
{
closed = 1;
nodes = (
"320 34 OFFCURVE",
"120 240 OFFCURVE",
"120 500 CURVE SMOOTH",
"120 752 OFFCURVE",
"310 968 OFFCURVE",
"560 968 CURVE SMOOTH",
"808 968 OFFCURVE",
"1000 752 OFFCURVE",
"1000 500 CURVE SMOOTH",
"1000 250 OFFCURVE",
"808 34 OFFCURVE",
"560 34 CURVE SMOOTH"
);
}
);
width = 1120;
},
{
layerId = "7763577D-A4D2-4749-AE53-49BDF6EC3913";
paths = (
{
closed = 1;
nodes = (
"770 -26 OFFCURVE",
"1018 202 OFFCURVE",
"1058 483 CURVE SMOOTH",
"1100 784 OFFCURVE",
"902 1028 OFFCURVE",
"617 1028 CURVE SMOOTH",
"350 1028 OFFCURVE",
"102 800 OFFCURVE",
"62 517 CURVE SMOOTH",
"20 218 OFFCURVE",
"218 -26 OFFCURVE",
"503 -26 CURVE SMOOTH"
);
},
{
closed = 1;
nodes = (
"412 274 OFFCURVE",
"341 364 OFFCURVE",
"358 483 CURVE SMOOTH",
"376 614 OFFCURVE",
"488 728 OFFCURVE",
"609 728 CURVE SMOOTH",
"708 728 OFFCURVE",
"779 634 OFFCURVE",
"762 517 CURVE SMOOTH",
"744 386 OFFCURVE",
"634 274 OFFCURVE",
"511 274 CURVE SMOOTH"
);
}
);
width = 1120;
},
{
layerId = "DDA43255-513F-4353-BCA4-425ED8D2F935";
paths = (
{
closed = 1;
nodes = (
"764 -26 OFFCURVE",
"1019 208 OFFCURVE",
"1060 497 CURVE SMOOTH",
"1101 790 OFFCURVE",
"909 1028 OFFCURVE",
"631 1028 CURVE SMOOTH",
"357 1028 OFFCURVE",
"101 794 OFFCURVE",
"60 503 CURVE SMOOTH",
"19 212 OFFCURVE",
"212 -26 OFFCURVE",
"489 -26 CURVE SMOOTH"
);
},
{
closed = 1;
nodes = (
"253 34 OFFCURVE",
"83 238 OFFCURVE",
"120 497 CURVE SMOOTH",
"155 750 OFFCURVE",
"377 968 OFFCURVE",
"629 968 CURVE SMOOTH",
"875 968 OFFCURVE",
"1036 754 OFFCURVE",
"1000 503 CURVE SMOOTH",
"965 252 OFFCURVE",
"741 34 OFFCURVE",
"491 34 CURVE SMOOTH"
);
}
);
width = 1120;
}
);
leftKerningGroup = o;
rightKerningGroup = o;
unicode = 006F;
},
{
glyphname = oslash;
lastChange = "2020-02-18 22:12:51 +0000";
layers = (
{
layerId = "10BC12B3-5274-42E3-B5BC-F74F362F0DF4";
paths = (
{
closed = 1;
nodes = (
"408 -2 LINE",
"456 -18 OFFCURVE",
"506 -26 OFFCURVE",
"560 -26 CURVE SMOOTH",
"836 -26 OFFCURVE",
"1060 210 OFFCURVE",
"1060 500 CURVE SMOOTH",
"1060 646 OFFCURVE",
"1004 778 OFFCURVE",
"914 874 CURVE",
"968 968 LINE",
"760 1088 LINE",
"710 1004 LINE",
"664 1020 OFFCURVE",
"612 1028 OFFCURVE",
"560 1028 CURVE SMOOTH",
"284 1028 OFFCURVE",
"60 792 OFFCURVE",
"60 500 CURVE SMOOTH",
"60 356 OFFCURVE",
"116 224 OFFCURVE",
"206 128 CURVE",
"152 34 LINE",
"360 -86 LINE"
);
},
{
closed = 1;
nodes = (
"342 412 OFFCURVE",
"336 444 OFFCURVE",
"336 482 CURVE SMOOTH",
"336 632 OFFCURVE",
"442 762 OFFCURVE",
"576 766 CURVE",
"354 380 LINE"
);
},
{
closed = 1;
nodes = (
"766 622 LINE",
"776 590 OFFCURVE",
"784 556 OFFCURVE",
"784 518 CURVE SMOOTH",
"784 368 OFFCURVE",
"682 240 OFFCURVE",
"544 236 CURVE"
);
}
);
width = 1120;
},
{
layerId = "9AF1F7D9-E035-453E-B2A8-46DE370997D0";
paths = (
{
closed = 1;
nodes = (
"326 36 LINE",
"396 -2 OFFCURVE",
"476 -26 OFFCURVE",
"560 -26 CURVE SMOOTH",
"836 -26 OFFCURVE",
"1060 210 OFFCURVE",
"1060 500 CURVE SMOOTH",
"1060 682 OFFCURVE",
"976 840 OFFCURVE",
"846 936 CURVE",
"892 1014 LINE",
"840 1044 LINE",
"794 968 LINE",
"726 1006 OFFCURVE",
"646 1028 OFFCURVE",
"560 1028 CURVE SMOOTH",
"284 1028 OFFCURVE",
"60 792 OFFCURVE",
"60 500 CURVE SMOOTH",
"60 322 OFFCURVE",
"146 164 OFFCURVE",
"276 68 CURVE",
"230 -10 LINE",
"282 -40 LINE"
);
},
{
closed = 1;
nodes = (
"194 206 OFFCURVE",
"120 344 OFFCURVE",
"120 500 CURVE SMOOTH",
"120 846 OFFCURVE",
"472 1080 OFFCURVE",
"764 916 CURVE",
"306 122 LINE"
);
},
{
closed = 1;
nodes = (
"816 882 LINE",
"928 796 OFFCURVE",
"1000 656 OFFCURVE",
"1000 500 CURVE SMOOTH",
"1000 162 OFFCURVE",
"660 -80 OFFCURVE",
"356 88 CURVE"
);
}
);
width = 1120;
},
{
layerId = "7763577D-A4D2-4749-AE53-49BDF6EC3913";
paths = (
{
closed = 1;
nodes = (
"349 1 LINE",
"391 -15 OFFCURVE",
"440 -26 OFFCURVE",
"503 -26 CURVE SMOOTH",
"770 -26 OFFCURVE",
"1018 202 OFFCURVE",
"1058 483 CURVE SMOOTH",
"1079 638 OFFCURVE",
"1036 772 OFFCURVE",
"960 868 CURVE",
"1035 968 LINE",
"838 1088 LINE",
"769 1001 LINE",
"729 1017 OFFCURVE",
"678 1028 OFFCURVE",
"617 1028 CURVE SMOOTH",
"350 1028 OFFCURVE",
"102 800 OFFCURVE",
"62 517 CURVE SMOOTH",
"41 364 OFFCURVE",
"84 230 OFFCURVE",
"160 134 CURVE",
"85 34 LINE",
"283 -86 LINE"
);
},
{
closed = 1;
nodes = (
"326 404 OFFCURVE",
"327 436 OFFCURVE",
"331 465 CURVE SMOOTH",
"353 624 OFFCURVE",
"487 762 OFFCURVE",
"622 766 CURVE",
"331 372 LINE"
);
},
{
closed = 1;
nodes = (
"789 630 LINE",
"792 598 OFFCURVE",
"793 564 OFFCURVE",
"789 535 CURVE SMOOTH",
"767 376 OFFCURVE",
"637 240 OFFCURVE",
"499 236 CURVE"
);
}
);
width = 1120;
},
{
layerId = "DDA43255-513F-4353-BCA4-425ED8D2F935";
paths = (
{
closed = 1;
nodes = (
"263 37 LINE",
"327 -1 OFFCURVE",
"404 -26 OFFCURVE",
"489 -26 CURVE SMOOTH",
"764 -26 OFFCURVE",
"1019 208 OFFCURVE",
"1060 497 CURVE SMOOTH",
"1085 680 OFFCURVE",
"1022 839 OFFCURVE",
"906 935 CURVE",
"965 1014 LINE",
"915 1044 LINE",
"858 967 LINE",
"796 1005 OFFCURVE",
"719 1028 OFFCURVE",
"631 1028 CURVE SMOOTH",
"357 1028 OFFCURVE",
"101 794 OFFCURVE",
"60 503 CURVE SMOOTH",
"35 324 OFFCURVE",
"100 165 OFFCURVE",
"217 69 CURVE",
"158 -10 LINE",
"207 -40 LINE"
);
},
{
closed = 1;
nodes = (
"151 205 OFFCURVE",
"98 342 OFFCURVE",
"120 497 CURVE SMOOTH",
"168 844 OFFCURVE",
"555 1081 OFFCURVE",
"824 917 CURVE",
"251 121 LINE"
);
},
{
closed = 1;
nodes = (
"872 883 LINE",
"971 797 OFFCURVE",
"1022 658 OFFCURVE",
"1000 503 CURVE SMOOTH",
"953 164 OFFCURVE",
"577 -81 OFFCURVE",
"297 87 CURVE"
);
}
);
width = 1120;
}
);
leftKerningGroup = o;
leftMetricsKey = o;
rightKerningGroup = o;
rightMetricsKey = o;
unicode = 00F8;
},
{
glyphname = oe;
lastChange = "2020-02-18 22:14:16 +0000";
layers = (
{
layerId = "10BC12B3-5274-42E3-B5BC-F74F362F0DF4";
paths = (
{
closed = 1;
nodes = (
"696 -26 OFFCURVE",
"820 32 OFFCURVE",
"910 124 CURVE",
"1000 32 OFFCURVE",
"1124 -26 OFFCURVE",
"1260 -26 CURVE SMOOTH",
"1460 -26 OFFCURVE",
"1632 98 OFFCURVE",
"1712 276 CURVE",
"1406 348 LINE",
"1370 302 OFFCURVE",
"1318 274 OFFCURVE",
"1260 274 CURVE SMOOTH",
"1166 276 OFFCURVE",
"1112 330 OFFCURVE",
"1084 402 CURVE",
"1750 402 LINE",
"1810 722 OFFCURVE",
"1578 1028 OFFCURVE",
"1260 1028 CURVE SMOOTH",
"1124 1028 OFFCURVE",
"1000 970 OFFCURVE",
"910 878 CURVE",
"820 970 OFFCURVE",
"696 1028 OFFCURVE",
"560 1028 CURVE SMOOTH",
"284 1028 OFFCURVE",
"60 792 OFFCURVE",
"60 500 CURVE SMOOTH",
"60 210 OFFCURVE",
"284 -26 OFFCURVE",
"560 -26 CURVE SMOOTH"
);
},
{
closed = 1;
nodes = (
"452 274 OFFCURVE",
"360 372 OFFCURVE",
"360 500 CURVE SMOOTH",
"360 622 OFFCURVE",
"448 728 OFFCURVE",
"560 728 CURVE SMOOTH",
"668 728 OFFCURVE",
"760 626 OFFCURVE",
"760 500 CURVE SMOOTH",
"760 378 OFFCURVE",
"674 274 OFFCURVE",
"560 274 CURVE SMOOTH"
);
},
{
closed = 1;
nodes = (
"1100 708 OFFCURVE",
"1174 768 OFFCURVE",
"1260 768 CURVE SMOOTH",
"1346 768 OFFCURVE",
"1418 708 OFFCURVE",
"1446 622 CURVE",
"1072 622 LINE"
);
}
);
width = 1819;
},
{
layerId = "9AF1F7D9-E035-453E-B2A8-46DE370997D0";
paths = (
{
closed = 1;
nodes = (
"776 -26 OFFCURVE",
"960 118 OFFCURVE",
"1030 320 CURVE",
"1100 118 OFFCURVE",
"1284 -26 OFFCURVE",
"1500 -26 CURVE SMOOTH",
"1700 -26 OFFCURVE",
"1872 98 OFFCURVE",
"1952 276 CURVE",
"1892 290 LINE",
"1812 130 OFFCURVE",
"1670 34 OFFCURVE",
"1500 34 CURVE SMOOTH",
"1270 34 OFFCURVE",
"1080 220 OFFCURVE",
"1060 470 CURVE",
"1998 470 LINE",
"1992 804 OFFCURVE",
"1786 1028 OFFCURVE",
"1500 1028 CURVE SMOOTH",
"1284 1028 OFFCURVE",
"1100 884 OFFCURVE",
"1030 680 CURVE",
"960 884 OFFCURVE",
"776 1028 OFFCURVE",
"560 1028 CURVE SMOOTH",
"284 1028 OFFCURVE",
"60 792 OFFCURVE",
"60 500 CURVE SMOOTH",
"60 210 OFFCURVE",
"284 -26 OFFCURVE",
"560 -26 CURVE SMOOTH"
);
},
{
closed = 1;
nodes = (
"320 34 OFFCURVE",
"120 240 OFFCURVE",
"120 500 CURVE SMOOTH",
"120 752 OFFCURVE",
"310 968 OFFCURVE",
"560 968 CURVE SMOOTH",
"808 968 OFFCURVE",
"1000 752 OFFCURVE",
"1000 500 CURVE SMOOTH",
"1000 250 OFFCURVE",
"808 34 OFFCURVE",
"560 34 CURVE SMOOTH"
);
},
{
closed = 1;
nodes = (
"1076 772 OFFCURVE",
"1262 968 OFFCURVE",
"1500 968 CURVE SMOOTH",
"1736 968 OFFCURVE",
"1930 764 OFFCURVE",
"1938 530 CURVE",
"1060 530 LINE"
);
}
);
width = 2058;
},
{
layerId = "7763577D-A4D2-4749-AE53-49BDF6EC3913";
paths = (
{
closed = 1;
nodes = (
"630 -26 OFFCURVE",
"759 26 OFFCURVE",
"869 124 CURVE",
"941 38 OFFCURVE",
"1058 -26 OFFCURVE",
"1203 -26 CURVE SMOOTH",
"1394 -26 OFFCURVE",
"1578 90 OFFCURVE",
"1683 268 CURVE",
"1380 355 LINE",
"1338 309 OFFCURVE",
"1278 274 OFFCURVE",
"1211 274 CURVE SMOOTH",
"1126 276 OFFCURVE",
"1084 322 OFFCURVE",
"1066 394 CURVE",
"1737 394 LINE",
"1842 714 OFFCURVE",
"1644 1028 OFFCURVE",
"1317 1028 CURVE SMOOTH",
"1190 1028 OFFCURVE",
"1061 976 OFFCURVE",
"951 878 CURVE",
"879 964 OFFCURVE",
"762 1028 OFFCURVE",
"617 1028 CURVE SMOOTH",
"350 1028 OFFCURVE",
"102 800 OFFCURVE",
"62 517 CURVE SMOOTH",
"20 218 OFFCURVE",
"218 -26 OFFCURVE",
"503 -26 CURVE SMOOTH"
);
},
{
closed = 1;
nodes = (
"412 274 OFFCURVE",
"341 364 OFFCURVE",
"358 483 CURVE SMOOTH",
"376 614 OFFCURVE",
"488 728 OFFCURVE",
"609 728 CURVE SMOOTH",
"708 728 OFFCURVE",
"779 634 OFFCURVE",
"762 517 CURVE SMOOTH",
"744 386 OFFCURVE",
"634 274 OFFCURVE",
"511 274 CURVE SMOOTH"
);
},
{
closed = 1;
nodes = (
"1131 700 OFFCURVE",
"1220 768 OFFCURVE",
"1314 768 CURVE SMOOTH",
"1392 768 OFFCURVE",
"1451 716 OFFCURVE",
"1467 630 CURVE",
"1091 614 LINE"
);
}
);
width = 1820;
},
{
layerId = "DDA43255-513F-4353-BCA4-425ED8D2F935";
paths = (
{
closed = 1;
nodes = (
"704 -26 OFFCURVE",
"907 116 OFFCURVE",
"1006 320 CURVE",
"1047 120 OFFCURVE",
"1212 -26 OFFCURVE",
"1429 -26 CURVE SMOOTH",
"1628 -26 OFFCURVE",
"1816 96 OFFCURVE",
"1921 274 CURVE",
"1862 291 LINE",
"1759 131 OFFCURVE",
"1603 34 OFFCURVE",
"1431 34 CURVE SMOOTH",
"1203 34 OFFCURVE",
"1040 218 OFFCURVE",
"1055 468 CURVE",
"1994 468 LINE",
"2034 802 OFFCURVE",
"1859 1028 OFFCURVE",
"1571 1028 CURVE SMOOTH",
"1357 1028 OFFCURVE",
"1154 886 OFFCURVE",
"1054 680 CURVE",
"1013 882 OFFCURVE",
"849 1028 OFFCURVE",
"631 1028 CURVE SMOOTH",
"357 1028 OFFCURVE",
"101 794 OFFCURVE",
"60 503 CURVE SMOOTH",
"19 212 OFFCURVE",
"212 -26 OFFCURVE",
"489 -26 CURVE SMOOTH"
);
},
{
closed = 1;
nodes = (
"253 34 OFFCURVE",
"83 238 OFFCURVE",
"120 497 CURVE SMOOTH",
"155 750 OFFCURVE",
"377 968 OFFCURVE",
"629 968 CURVE SMOOTH",
"875 968 OFFCURVE",
"1036 754 OFFCURVE",
"1000 503 CURVE SMOOTH",
"965 252 OFFCURVE",
"741 34 OFFCURVE",
"491 34 CURVE SMOOTH"
);
},
{
closed = 1;
nodes = (
"1114 770 OFFCURVE",
"1329 968 OFFCURVE",
"1569 968 CURVE SMOOTH",
"1803 968 OFFCURVE",
"1967 766 OFFCURVE",
"1943 532 CURVE",
"1064 528 LINE"
);
}
);
width = 2058;
}
);
leftKerningGroup = o;
leftMetricsKey = o;
rightKerningGroup = e;
rightMetricsKey = e;
unicode = 0153;
},
{
glyphname = p;
lastChange = "2020-02-18 22:12:51 +0000";
layers = (
{
layerId = "10BC12B3-5274-42E3-B5BC-F74F362F0DF4";
paths = (
{
closed = 1;
nodes = (
"420 92 LINE",
"482 22 OFFCURVE",
"564 -28 OFFCURVE",
"672 -28 CURVE",
"964 -28 OFFCURVE",
"1198 208 OFFCURVE",
"1198 500 CURVE",
"1198 790 OFFCURVE",
"964 1026 OFFCURVE",
"672 1026 CURVE",
"564 1026 OFFCURVE",
"482 976 OFFCURVE",
"420 906 CURVE",
"420 1000 LINE",
"120 1000 LINE",
"120 -500 LINE",
"420 -500 LINE"
);
},
{
closed = 1;
nodes = (
"792 738 OFFCURVE",
"892 630 OFFCURVE",
"892 500 CURVE",
"892 368 OFFCURVE",
"792 262 OFFCURVE",
"668 262 CURVE",
"546 262 OFFCURVE",
"446 368 OFFCURVE",
"446 500 CURVE",
"446 630 OFFCURVE",
"546 738 OFFCURVE",
"668 738 CURVE"
);
}
);
width = 1278;
},
{
layerId = "9AF1F7D9-E035-453E-B2A8-46DE370997D0";
paths = (
{
closed = 1;
nodes = (
"180 232 LINE",
"252 76 OFFCURVE",
"394 -28 OFFCURVE",
"588 -28 CURVE SMOOTH",
"878 -28 OFFCURVE",
"1114 208 OFFCURVE",
"1114 500 CURVE SMOOTH",
"1114 790 OFFCURVE",
"878 1026 OFFCURVE",
"588 1026 CURVE SMOOTH",
"394 1026 OFFCURVE",
"252 922 OFFCURVE",
"180 766 CURVE",
"180 1000 LINE",
"120 1000 LINE",
"120 -500 LINE",
"180 -500 LINE"
);
},
{
closed = 1;
nodes = (
"846 966 OFFCURVE",
"1054 756 OFFCURVE",
"1054 500 CURVE SMOOTH",
"1054 236 OFFCURVE",
"838 32 OFFCURVE",
"588 32 CURVE SMOOTH",
"330 32 OFFCURVE",
"184 244 OFFCURVE",
"184 500 CURVE SMOOTH",
"184 760 OFFCURVE",
"334 966 OFFCURVE",
"588 966 CURVE SMOOTH"
);
}
);
width = 1194;
},
{
layerId = "7763577D-A4D2-4749-AE53-49BDF6EC3913";
paths = (
{
closed = 1;
nodes = (
"369 98 LINE",
"421 28 OFFCURVE",
"498 -28 OFFCURVE",
"615 -28 CURVE",
"898 -28 OFFCURVE",
"1156 200 OFFCURVE",
"1196 483 CURVE",
"1238 782 OFFCURVE",
"1030 1026 OFFCURVE",
"729 1026 CURVE",
"630 1026 OFFCURVE",
"544 982 OFFCURVE",
"472 912 CURVE",
"491 1000 LINE",
"190 1000 LINE",
"-21 -500 LINE",
"280 -500 LINE"
);
},
{
closed = 1;
nodes = (
"834 738 OFFCURVE",
"911 638 OFFCURVE",
"894 517 CURVE",
"875 376 OFFCURVE",
"750 262 OFFCURVE",
"618 262 CURVE",
"504 262 OFFCURVE",
"426 360 OFFCURVE",
"444 483 CURVE",
"463 622 OFFCURVE",
"588 738 OFFCURVE",
"718 738 CURVE"
);
}
);
width = 1278;
},
{
layerId = "DDA43255-513F-4353-BCA4-425ED8D2F935";
paths = (
{
closed = 1;
nodes = (
"143 234 LINE",
"193 78 OFFCURVE",
"321 -28 OFFCURVE",
"517 -28 CURVE SMOOTH",
"805 -28 OFFCURVE",
"1073 206 OFFCURVE",
"1114 497 CURVE SMOOTH",
"1155 788 OFFCURVE",
"950 1026 OFFCURVE",
"659 1026 CURVE SMOOTH",
"466 1026 OFFCURVE",
"311 924 OFFCURVE",
"217 768 CURVE",
"250 1000 LINE",
"190 1000 LINE",
"-21 -500 LINE",
"39 -500 LINE"
);
},
{
closed = 1;
nodes = (
"913 966 OFFCURVE",
"1090 758 OFFCURVE",
"1054 503 CURVE SMOOTH",
"1017 238 OFFCURVE",
"771 32 OFFCURVE",
"519 32 CURVE SMOOTH",
"263 32 OFFCURVE",
"148 242 OFFCURVE",
"184 497 CURVE SMOOTH",
"220 758 OFFCURVE",
"401 966 OFFCURVE",
"657 966 CURVE SMOOTH"
);
}
);
width = 1194;
}
);
leftKerningGroup = p;
rightKerningGroup = o;
unicode = 0070;
},
{
glyphname = thorn;
lastChange = "2020-02-18 22:12:51 +0000";
layers = (
{
layerId = "10BC12B3-5274-42E3-B5BC-F74F362F0DF4";
paths = (
{
closed = 1;
nodes = (
"420 -500 LINE",
"420 92 LINE",
"482 22 OFFCURVE",
"564 -28 OFFCURVE",
"672 -28 CURVE SMOOTH",
"964 -28 OFFCURVE",
"1198 208 OFFCURVE",
"1198 500 CURVE SMOOTH",
"1198 790 OFFCURVE",
"964 1026 OFFCURVE",
"672 1026 CURVE SMOOTH",
"564 1026 OFFCURVE",
"482 976 OFFCURVE",
"420 906 CURVE",
"420 1400 LINE",
"120 1400 LINE",
"120 -500 LINE"
);
},
{
closed = 1;
nodes = (
"546 262 OFFCURVE",
"446 368 OFFCURVE",
"446 500 CURVE SMOOTH",
"446 630 OFFCURVE",
"546 738 OFFCURVE",
"668 738 CURVE SMOOTH",
"792 738 OFFCURVE",
"892 630 OFFCURVE",
"892 500 CURVE SMOOTH",
"892 368 OFFCURVE",
"792 262 OFFCURVE",
"668 262 CURVE SMOOTH"
);
}
);
width = 1278;
},
{
layerId = "9AF1F7D9-E035-453E-B2A8-46DE370997D0";
paths = (
{
closed = 1;
nodes = (
"180 -500 LINE",
"180 232 LINE",
"252 76 OFFCURVE",
"394 -28 OFFCURVE",
"588 -28 CURVE SMOOTH",
"878 -28 OFFCURVE",
"1114 208 OFFCURVE",
"1114 500 CURVE SMOOTH",
"1114 790 OFFCURVE",
"878 1026 OFFCURVE",
"588 1026 CURVE SMOOTH",
"394 1026 OFFCURVE",
"252 922 OFFCURVE",
"180 766 CURVE",
"180 1400 LINE",
"120 1400 LINE",
"120 -500 LINE"
);
},
{
closed = 1;
nodes = (
"330 32 OFFCURVE",
"184 244 OFFCURVE",
"184 500 CURVE SMOOTH",
"184 760 OFFCURVE",
"334 966 OFFCURVE",
"588 966 CURVE SMOOTH",
"846 966 OFFCURVE",
"1054 756 OFFCURVE",
"1054 500 CURVE SMOOTH",
"1054 236 OFFCURVE",
"838 32 OFFCURVE",
"588 32 CURVE SMOOTH"
);
}
);
width = 1194;
},
{
layerId = "7763577D-A4D2-4749-AE53-49BDF6EC3913";
paths = (
{
closed = 1;
nodes = (
"279 -500 LINE",
"369 98 LINE",
"421 28 OFFCURVE",
"498 -28 OFFCURVE",
"615 -28 CURVE SMOOTH",
"898 -28 OFFCURVE",
"1156 200 OFFCURVE",
"1196 483 CURVE SMOOTH",
"1238 782 OFFCURVE",
"1030 1026 OFFCURVE",
"729 1026 CURVE SMOOTH",
"630 1026 OFFCURVE",
"544 982 OFFCURVE",
"472 912 CURVE",
"547 1400 LINE",
"246 1400 LINE",
"-21 -500 LINE"
);
},
{
closed = 1;
nodes = (
"504 262 OFFCURVE",
"426 360 OFFCURVE",
"444 483 CURVE SMOOTH",
"463 622 OFFCURVE",
"588 738 OFFCURVE",
"718 738 CURVE SMOOTH",
"834 738 OFFCURVE",
"911 638 OFFCURVE",
"894 517 CURVE SMOOTH",
"875 376 OFFCURVE",
"750 262 OFFCURVE",
"618 262 CURVE SMOOTH"
);
}
);
width = 1278;
},
{
layerId = "DDA43255-513F-4353-BCA4-425ED8D2F935";
paths = (
{
closed = 1;
nodes = (
"39 -500 LINE",
"143 234 LINE",
"193 78 OFFCURVE",
"321 -28 OFFCURVE",
"517 -28 CURVE SMOOTH",
"805 -28 OFFCURVE",
"1073 206 OFFCURVE",
"1114 497 CURVE SMOOTH",
"1155 788 OFFCURVE",
"950 1026 OFFCURVE",
"659 1026 CURVE SMOOTH",
"466 1026 OFFCURVE",
"311 924 OFFCURVE",
"217 768 CURVE",
"306 1400 LINE",
"246 1400 LINE",
"-21 -500 LINE"
);
},
{
closed = 1;
nodes = (
"263 32 OFFCURVE",
"148 242 OFFCURVE",
"184 497 CURVE SMOOTH",
"220 758 OFFCURVE",
"401 966 OFFCURVE",
"657 966 CURVE SMOOTH",
"913 966 OFFCURVE",
"1090 758 OFFCURVE",
"1054 503 CURVE SMOOTH",
"1017 238 OFFCURVE",
"771 32 OFFCURVE",
"519 32 CURVE SMOOTH"
);
}
);
width = 1194;
}
);
leftKerningGroup = h;
rightKerningGroup = o;
rightMetricsKey = p;
unicode = 00FE;
},
{
glyphname = q;
lastChange = "2020-02-18 22:12:51 +0000";
layers = (
{
layerId = "10BC12B3-5274-42E3-B5BC-F74F362F0DF4";
paths = (
{
closed = 1;
nodes = (
"714 -28 OFFCURVE",
"796 22 OFFCURVE",
"858 92 CURVE",
"858 -500 LINE",
"1158 -500 LINE",
"1158 1000 LINE",
"858 1000 LINE",
"858 906 LINE",
"796 976 OFFCURVE",
"714 1026 OFFCURVE",
"606 1026 CURVE",
"316 1026 OFFCURVE",
"80 790 OFFCURVE",
"80 500 CURVE",
"80 208 OFFCURVE",
"316 -28 OFFCURVE",
"606 -28 CURVE"
);
},
{
closed = 1;
nodes = (
"734 738 OFFCURVE",
"832 630 OFFCURVE",
"832 500 CURVE",
"832 368 OFFCURVE",
"734 262 OFFCURVE",
"610 262 CURVE",
"486 262 OFFCURVE",
"388 368 OFFCURVE",
"388 500 CURVE",
"388 630 OFFCURVE",
"486 738 OFFCURVE",
"610 738 CURVE"
);
}
);
width = 1278;
},
{
layerId = "9AF1F7D9-E035-453E-B2A8-46DE370997D0";
paths = (
{
closed = 1;
nodes = (
"800 -28 OFFCURVE",
"942 76 OFFCURVE",
"1014 232 CURVE",
"1014 -500 LINE",
"1074 -500 LINE",
"1074 1000 LINE",
"1014 1000 LINE",
"1014 766 LINE",
"942 922 OFFCURVE",
"800 1026 OFFCURVE",
"606 1026 CURVE",
"316 1026 OFFCURVE",
"80 790 OFFCURVE",
"80 500 CURVE",
"80 208 OFFCURVE",
"316 -28 OFFCURVE",
"606 -28 CURVE"
);
},
{
closed = 1;
nodes = (
"860 966 OFFCURVE",
"1010 760 OFFCURVE",
"1010 500 CURVE",
"1010 244 OFFCURVE",
"864 32 OFFCURVE",
"606 32 CURVE",
"356 32 OFFCURVE",
"140 236 OFFCURVE",
"140 500 CURVE",
"140 756 OFFCURVE",
"348 966 OFFCURVE",
"606 966 CURVE"
);
}
);
width = 1194;
},
{
layerId = "7763577D-A4D2-4749-AE53-49BDF6EC3913";
paths = (
{
closed = 1;
nodes = (
"648 -28 OFFCURVE",
"733 16 OFFCURVE",
"805 86 CURVE",
"717 -500 LINE",
"1017 -500 LINE",
"1228 1000 LINE",
"928 1000 LINE",
"909 900 LINE",
"856 970 OFFCURVE",
"780 1026 OFFCURVE",
"663 1026 CURVE",
"382 1026 OFFCURVE",
"122 798 OFFCURVE",
"82 517 CURVE",
"40 216 OFFCURVE",
"250 -28 OFFCURVE",
"549 -28 CURVE"
);
},
{
closed = 1;
nodes = (
"776 738 OFFCURVE",
"851 638 OFFCURVE",
"834 517 CURVE",
"815 376 OFFCURVE",
"692 262 OFFCURVE",
"560 262 CURVE",
"444 262 OFFCURVE",
"368 360 OFFCURVE",
"386 483 CURVE",
"405 622 OFFCURVE",
"528 738 OFFCURVE",
"660 738 CURVE"
);
}
);
width = 1278;
},
{
layerId = "DDA43255-513F-4353-BCA4-425ED8D2F935";
paths = (
{
closed = 1;
nodes = (
"727 -28 OFFCURVE",
"883 74 OFFCURVE",
"977 230 CURVE",
"873 -500 LINE",
"933 -500 LINE",
"1144 1000 LINE",
"1084 1000 LINE",
"1050 764 LINE",
"1000 920 OFFCURVE",
"872 1026 OFFCURVE",
"677 1026 CURVE",
"388 1026 OFFCURVE",
"121 792 OFFCURVE",
"80 503 CURVE",
"39 210 OFFCURVE",
"243 -28 OFFCURVE",
"535 -28 CURVE"
);
},
{
closed = 1;
nodes = (
"927 966 OFFCURVE",
"1047 762 OFFCURVE",
"1010 503 CURVE",
"974 246 OFFCURVE",
"797 32 OFFCURVE",
"537 32 CURVE",
"289 32 OFFCURVE",
"103 234 OFFCURVE",
"140 497 CURVE",
"176 754 OFFCURVE",
"415 966 OFFCURVE",
"675 966 CURVE"
);
}
);
width = 1194;
}
);
leftKerningGroup = o;
rightKerningGroup = q;
unicode = 0071;
},
{
glyphname = r;
lastChange = "2020-02-18 22:12:51 +0000";
layers = (
{
layerId = "10BC12B3-5274-42E3-B5BC-F74F362F0DF4";
paths = (
{
closed = 1;
nodes = (
"802 1014 LINE",
"762 1026 OFFCURVE",
"718 1026 OFFCURVE",
"672 1026 CURVE SMOOTH",
"564 1026 OFFCURVE",
"482 978 OFFCURVE",
"420 908 CURVE",
"420 998 LINE",
"120 998 LINE",
"120 0 LINE",
"422 0 LINE",
"422 500 LINE SMOOTH",
"422 632 OFFCURVE",
"488 738 OFFCURVE",
"618 738 CURVE SMOOTH",
"672 738 OFFCURVE",
"718 720 OFFCURVE",
"754 692 CURVE"
);
}
);
width = 832;
},
{
layerId = "9AF1F7D9-E035-453E-B2A8-46DE370997D0";
paths = (
{
closed = 1;
nodes = (
"652 1010 LINE",
"618 1022 OFFCURVE",
"580 1028 OFFCURVE",
"540 1028 CURVE",
"392 1028 OFFCURVE",
"262 942 OFFCURVE",
"180 796 CURVE",
"180 1000 LINE",
"120 1000 LINE",
"120 0 LINE",
"180 0 LINE",
"180 550 LINE",
"180 780 OFFCURVE",
"342 968 OFFCURVE",
"540 968 CURVE",
"576 968 OFFCURVE",
"610 962 OFFCURVE",
"642 950 CURVE"
);
}
);
width = 682;
},
{
layerId = "7763577D-A4D2-4749-AE53-49BDF6EC3913";
paths = (
{
closed = 1;
nodes = (
"867 1012 LINE",
"828 1024 OFFCURVE",
"784 1026 OFFCURVE",
"729 1026 CURVE SMOOTH",
"630 1026 OFFCURVE",
"545 984 OFFCURVE",
"473 914 CURVE",
"491 998 LINE",
"190 998 LINE",
"50 0 LINE",
"352 0 LINE",
"421 492 LINE SMOOTH",
"439 624 OFFCURVE",
"530 738 OFFCURVE",
"668 738 CURVE SMOOTH",
"714 738 OFFCURVE",
"756 725 OFFCURVE",
"788 697 CURVE"
);
}
);
width = 832;
},
{
layerId = "DDA43255-513F-4353-BCA4-425ED8D2F935";
paths = (
{
closed = 1;
nodes = (
"722 1009 LINE",
"690 1021 OFFCURVE",
"653 1028 OFFCURVE",
"611 1028 CURVE",
"465 1028 OFFCURVE",
"324 943 OFFCURVE",
"221 797 CURVE",
"250 1000 LINE",
"190 1000 LINE",
"50 0 LINE",
"110 0 LINE",
"187 548 LINE",
"219 778 OFFCURVE",
"409 968 OFFCURVE",
"609 968 CURVE",
"643 968 OFFCURVE",
"677 963 OFFCURVE",
"707 951 CURVE"
);
}
);
width = 682;
}
);
leftKerningGroup = n;
rightKerningGroup = r;
unicode = 0072;
},
{
glyphname = s;
lastChange = "2020-02-18 22:17:21 +0000";
layers = (
{
layerId = "10BC12B3-5274-42E3-B5BC-F74F362F0DF4";
paths = (
{
closed = 1;
nodes = (
"630 -38 OFFCURVE",
"834 102 OFFCURVE",
"834 302 CURVE SMOOTH",
"840 474 OFFCURVE",
"678 578 OFFCURVE",
"506 634 CURVE SMOOTH",
"462 648 OFFCURVE",
"358 650 OFFCURVE",
"358 708 CURVE SMOOTH",
"358 770 OFFCURVE",
"410 786 OFFCURVE",
"480 780 CURVE SMOOTH",
"532 774 OFFCURVE",
"574 738 OFFCURVE",
"598 708 CURVE",
"834 848 LINE",
"748 968 OFFCURVE",
"610 1034 OFFCURVE",
"454 1034 CURVE SMOOTH",
"256 1034 OFFCURVE",
"78 906 OFFCURVE",
"78 700 CURVE SMOOTH",
"78 516 OFFCURVE",
"256 400 OFFCURVE",
"434 372 CURVE SMOOTH",
"484 364 OFFCURVE",
"558 354 OFFCURVE",
"558 298 CURVE SMOOTH",
"558 248 OFFCURVE",
"504 234 OFFCURVE",
"452 234 CURVE SMOOTH",
"374 234 OFFCURVE",
"332 282 OFFCURVE",
"312 304 CURVE",
"60 196 LINE",
"124 66 OFFCURVE",
"266 -4 OFFCURVE",
"418 -18 CURVE SMOOTH"
);
}
);
width = 894;
},
{
layerId = "9AF1F7D9-E035-453E-B2A8-46DE370997D0";
paths = (
{
closed = 1;
nodes = (
"636 -20 OFFCURVE",
"808 88 OFFCURVE",
"808 258 CURVE",
"808 424 OFFCURVE",
"638 478 OFFCURVE",
"450 538 CURVE SMOOTH",
"260 598 OFFCURVE",
"150 618 OFFCURVE",
"150 756 CURVE",
"150 890 OFFCURVE",
"292 974 OFFCURVE",
"450 974 CURVE",
"576 974 OFFCURVE",
"718 912 OFFCURVE",
"760 806 CURVE",
"812 836 LINE",
"764 952 OFFCURVE",
"616 1034 OFFCURVE",
"450 1034 CURVE",
"262 1034 OFFCURVE",
"90 926 OFFCURVE",
"90 756 CURVE",
"90 590 OFFCURVE",
"220 550 OFFCURVE",
"450 478 CURVE SMOOTH",
"598 432 OFFCURVE",
"748 394 OFFCURVE",
"748 258 CURVE",
"748 128 OFFCURVE",
"606 40 OFFCURVE",
"450 40 CURVE",
"324 40 OFFCURVE",
"154 112 OFFCURVE",
"116 220 CURVE",
"60 196 LINE",
"102 76 OFFCURVE",
"278 -20 OFFCURVE",
"450 -20 CURVE"
);
}
);
width = 872;
},
{
layerId = "7763577D-A4D2-4749-AE53-49BDF6EC3913";
paths = (
{
closed = 1;
nodes = (
"563 -37 OFFCURVE",
"777 94 OFFCURVE",
"804 285 CURVE SMOOTH",
"835 466 OFFCURVE",
"681 575 OFFCURVE",
"508 628 CURVE SMOOTH",
"475 644 OFFCURVE",
"378 642 OFFCURVE",
"385 691 CURVE SMOOTH",
"395 762 OFFCURVE",
"459 787 OFFCURVE",
"536 782 CURVE SMOOTH",
"579 775 OFFCURVE",
"614 745 OFFCURVE",
"633 715 CURVE",
"879 841 LINE",
"808 961 OFFCURVE",
"677 1034 OFFCURVE",
"512 1034 CURVE SMOOTH",
"323 1034 OFFCURVE",
"136 914 OFFCURVE",
"108 717 CURVE SMOOTH",
"81 524 OFFCURVE",
"250 401 OFFCURVE",
"433 375 CURVE SMOOTH",
"473 366 OFFCURVE",
"539 362 OFFCURVE",
"532 315 CURVE SMOOTH",
"524 256 OFFCURVE",
"458 234 OFFCURVE",
"398 234 CURVE SMOOTH",
"328 234 OFFCURVE",
"295 276 OFFCURVE",
"278 298 CURVE",
"21 203 LINE",
"68 73 OFFCURVE",
"204 -3 OFFCURVE",
"362 -16 CURVE SMOOTH"
);
}
);
width = 894;
},
{
layerId = "DDA43255-513F-4353-BCA4-425ED8D2F935";
paths = (
{
closed = 1;
nodes = (
"565 -20 OFFCURVE",
"750 86 OFFCURVE",
"774 255 CURVE",
"797 422 OFFCURVE",
"633 477 OFFCURVE",
"452 537 CURVE SMOOTH",
"272 597 OFFCURVE",
"166 616 OFFCURVE",
"186 753 CURVE",
"205 888 OFFCURVE",
"360 974 OFFCURVE",
"520 974 CURVE",
"644 974 OFFCURVE",
"777 914 OFFCURVE",
"804 808 CURVE",
"859 834 LINE",
"827 950 OFFCURVE",
"689 1034 OFFCURVE",
"522 1034 CURVE",
"335 1034 OFFCURVE",
"150 928 OFFCURVE",
"126 759 CURVE",
"103 592 OFFCURVE",
"229 551 OFFCURVE",
"450 479 CURVE SMOOTH",
"590 433 OFFCURVE",
"733 396 OFFCURVE",
"714 261 CURVE",
"696 130 OFFCURVE",
"540 40 OFFCURVE",
"382 40 CURVE",
"258 40 OFFCURVE",
"99 110 OFFCURVE",
"76 218 CURVE",
"18 198 LINE",
"43 78 OFFCURVE",
"207 -20 OFFCURVE",
"380 -20 CURVE"
);
}
);
width = 872;
}
);
leftKerningGroup = s;
rightKerningGroup = s;
unicode = 0073;
},
{
glyphname = germandbls;
lastChange = "2020-02-18 22:12:51 +0000";
layers = (
{
layerId = "10BC12B3-5274-42E3-B5BC-F74F362F0DF4";
paths = (
{
closed = 1;
nodes = (
"420 0 LINE",
"420 950 LINE SMOOTH",
"420 1058 OFFCURVE",
"506 1144 OFFCURVE",
"614 1144 CURVE SMOOTH",
"694 1144 OFFCURVE",
"760 1076 OFFCURVE",
"760 994 CURVE SMOOTH",
"760 912 OFFCURVE",
"694 858 OFFCURVE",
"614 844 CURVE SMOOTH",
"590 840 LINE",
"590 598 LINE",
"672 594 LINE SMOOTH",
"776 588 OFFCURVE",
"860 516 OFFCURVE",
"860 424 CURVE SMOOTH",
"860 332 OFFCURVE",
"776 254 OFFCURVE",
"672 254 CURVE SMOOTH",
"590 254 LINE",
"630 0 LINE",
"704 0 LINE SMOOTH",
"936 0 OFFCURVE",
"1126 170 OFFCURVE",
"1126 402 CURVE SMOOTH",
"1126 526 OFFCURVE",
"1108 710 OFFCURVE",
"930 734 CURVE",
"1034 782 OFFCURVE",
"1060 906 OFFCURVE",
"1060 994 CURVE SMOOTH",
"1060 1228 OFFCURVE",
"880 1400 OFFCURVE",
"650 1400 CURVE SMOOTH",
"356 1400 OFFCURVE",
"120 1162 OFFCURVE",
"120 870 CURVE SMOOTH",
"120 0 LINE"
);
}
);
width = 1186;
},
{
layerId = "9AF1F7D9-E035-453E-B2A8-46DE370997D0";
paths = (
{
closed = 1;
nodes = (
"180 0 LINE",
"180 994 LINE SMOOTH",
"180 1184 OFFCURVE",
"334 1338 OFFCURVE",
"524 1338 CURVE SMOOTH",
"682 1338 OFFCURVE",
"812 1200 OFFCURVE",
"812 1030 CURVE SMOOTH",
"812 860 OFFCURVE",
"682 722 OFFCURVE",
"524 722 CURVE SMOOTH",
"496 722 LINE",
"496 662 LINE",
"590 662 LINE SMOOTH",
"756 662 OFFCURVE",
"890 528 OFFCURVE",
"890 362 CURVE SMOOTH",
"890 196 OFFCURVE",
"756 60 OFFCURVE",
"590 60 CURVE SMOOTH",
"496 60 LINE",
"516 0 LINE",
"590 0 LINE SMOOTH",
"788 0 OFFCURVE",
"950 162 OFFCURVE",
"950 362 CURVE SMOOTH",
"950 526 OFFCURVE",
"842 664 OFFCURVE",
"692 708 CURVE",
"798 770 OFFCURVE",
"872 892 OFFCURVE",
"872 1030 CURVE SMOOTH",
"872 1232 OFFCURVE",
"716 1398 OFFCURVE",
"524 1398 CURVE SMOOTH",
"300 1398 OFFCURVE",
"120 1216 OFFCURVE",
"120 994 CURVE SMOOTH",
"120 0 LINE"
);
}
);
width = 1010;
},
{
layerId = "7763577D-A4D2-4749-AE53-49BDF6EC3913";
paths = (
{
closed = 1;
nodes = (
"350 0 LINE",
"482 942 LINE SMOOTH",
"497 1050 OFFCURVE",
"605 1144 OFFCURVE",
"721 1144 CURVE SMOOTH",
"793 1144 OFFCURVE",
"842 1084 OFFCURVE",
"832 1011 CURVE SMOOTH",
"819 920 OFFCURVE",
"736 859 OFFCURVE",
"654 845 CURVE SMOOTH",
"637 840 LINE",
"604 598 LINE",
"694 594 LINE SMOOTH",
"797 588 OFFCURVE",
"863 524 OFFCURVE",
"852 441 CURVE SMOOTH",
"838 340 OFFCURVE",
"733 254 OFFCURVE",
"629 254 CURVE SMOOTH",
"557 254 LINE",
"561 0 LINE",
"642 0 LINE SMOOTH",
"874 0 OFFCURVE",
"1078 162 OFFCURVE",
"1110 385 CURVE SMOOTH",
"1128 518 OFFCURVE",
"1129 709 OFFCURVE",
"962 730 CURVE",
"1081 779 OFFCURVE",
"1116 898 OFFCURVE",
"1127 977 CURVE SMOOTH",
"1161 1220 OFFCURVE",
"998 1400 OFFCURVE",
"760 1400 CURVE SMOOTH",
"474 1400 OFFCURVE",
"214 1170 OFFCURVE",
"173 878 CURVE SMOOTH",
"50 0 LINE"
);
}
);
width = 1186;
},
{
layerId = "DDA43255-513F-4353-BCA4-425ED8D2F935";
paths = (
{
closed = 1;
nodes = (
"110 0 LINE",
"249 992 LINE SMOOTH",
"276 1182 OFFCURVE",
"453 1338 OFFCURVE",
"645 1338 CURVE SMOOTH",
"801 1338 OFFCURVE",
"911 1202 OFFCURVE",
"887 1033 CURVE SMOOTH",
"863 862 OFFCURVE",
"712 722 OFFCURVE",
"554 722 CURVE SMOOTH",
"527 722 LINE",
"519 662 LINE",
"614 662 LINE SMOOTH",
"780 662 OFFCURVE",
"894 530 OFFCURVE",
"871 365 CURVE SMOOTH",
"848 198 OFFCURVE",
"692 60 OFFCURVE",
"526 60 CURVE SMOOTH",
"435 60 LINE",
"446 0 LINE",
"521 0 LINE SMOOTH",
"719 0 OFFCURVE",
"902 160 OFFCURVE",
"930 359 CURVE SMOOTH",
"953 524 OFFCURVE",
"863 664 OFFCURVE",
"721 707 CURVE",
"837 769 OFFCURVE",
"927 890 OFFCURVE",
"946 1027 CURVE SMOOTH",
"975 1230 OFFCURVE",
"841 1398 OFFCURVE",
"647 1398 CURVE SMOOTH",
"425 1398 OFFCURVE",
"221 1218 OFFCURVE",
"190 996 CURVE SMOOTH",
"50 0 LINE"
);
}
);
width = 1010;
}
);
leftKerningGroup = h;
rightKerningGroup = B;
unicode = 00DF;
},
{
glyphname = t;
lastChange = "2020-02-18 22:12:51 +0000";
layers = (
{
layerId = "10BC12B3-5274-42E3-B5BC-F74F362F0DF4";
paths = (
{
closed = 1;
nodes = (
"670 1000 LINE",
"500 1000 LINE",
"500 1314 LINE",
"200 1314 LINE",
"200 1000 LINE",
"70 1000 LINE",
"70 700 LINE",
"200 700 LINE",
"200 0 LINE",
"500 0 LINE",
"500 700 LINE",
"670 700 LINE"
);
}
);
width = 730;
},
{
layerId = "9AF1F7D9-E035-453E-B2A8-46DE370997D0";
paths = (
{
closed = 1;
nodes = (
"612 930 LINE",
"338 930 LINE",
"336 1314 LINE",
"276 1314 LINE",
"278 930 LINE",
"72 930 LINE",
"72 870 LINE",
"278 870 LINE",
"276 0 LINE",
"336 0 LINE",
"338 870 LINE",
"612 870 LINE"
);
}
);
width = 670;
},
{
layerId = "7763577D-A4D2-4749-AE53-49BDF6EC3913";
paths = (
{
closed = 1;
nodes = (
"740 1000 LINE",
"570 1000 LINE",
"614 1314 LINE",
"314 1314 LINE",
"270 1000 LINE",
"140 1000 LINE",
"98 700 LINE",
"228 700 LINE",
"130 0 LINE",
"430 0 LINE",
"528 700 LINE",
"698 700 LINE"
);
}
);
width = 730;
},
{
layerId = "DDA43255-513F-4353-BCA4-425ED8D2F935";
paths = (
{
closed = 1;
nodes = (
"672 930 LINE",
"398 930 LINE",
"450 1314 LINE",
"390 1314 LINE",
"338 930 LINE",
"132 930 LINE",
"124 870 LINE",
"330 870 LINE",
"206 0 LINE",
"266 0 LINE",
"390 870 LINE",
"664 870 LINE"
);
}
);
width = 670;
}
);
leftKerningGroup = t;
rightKerningGroup = t;
unicode = 0074;
},
{
glyphname = u;
lastChange = "2020-02-18 22:12:51 +0000";
layers = (
{
layerId = "10BC12B3-5274-42E3-B5BC-F74F362F0DF4";
paths = (
{
closed = 1;
nodes = (
"122 206 OFFCURVE",
"296 -28 OFFCURVE",
"584 -28 CURVE",
"692 -28 OFFCURVE",
"774 22 OFFCURVE",
"836 92 CURVE",
"836 0 LINE",
"1136 0 LINE",
"1136 1000 LINE",
"836 1000 LINE",
"836 500 LINE",
"836 368 OFFCURVE",
"768 262 OFFCURVE",
"638 262 CURVE",
"506 262 OFFCURVE",
"420 368 OFFCURVE",
"420 500 CURVE",
"420 1000 LINE",
"120 1000 LINE",
"120 496 LINE"
);
}
);
width = 1256;
},
{
layerId = "9AF1F7D9-E035-453E-B2A8-46DE370997D0";
paths = (
{
closed = 1;
nodes = (
"124 196 OFFCURVE",
"300 -26 OFFCURVE",
"540 -26 CURVE",
"688 -26 OFFCURVE",
"816 60 OFFCURVE",
"898 206 CURVE",
"898 0 LINE",
"958 0 LINE",
"958 1000 LINE",
"898 1000 LINE",
"898 452 LINE",
"898 222 OFFCURVE",
"736 34 OFFCURVE",
"540 34 CURVE",
"342 34 OFFCURVE",
"180 222 OFFCURVE",
"180 452 CURVE",
"180 1000 LINE",
"120 1000 LINE",
"120 448 LINE"
);
}
);
width = 1078;
},
{
layerId = "7763577D-A4D2-4749-AE53-49BDF6EC3913";
paths = (
{
closed = 1;
nodes = (
"82 214 OFFCURVE",
"230 -28 OFFCURVE",
"527 -28 CURVE",
"626 -28 OFFCURVE",
"711 16 OFFCURVE",
"783 86 CURVE",
"765 0 LINE",
"1066 0 LINE",
"1206 1000 LINE",
"906 1000 LINE",
"837 508 LINE",
"819 376 OFFCURVE",
"726 262 OFFCURVE",
"588 262 CURVE",
"464 262 OFFCURVE",
"400 360 OFFCURVE",
"419 492 CURVE",
"490 1000 LINE",
"190 1000 LINE",
"121 504 LINE"
);
}
);
width = 1256;
},
{
layerId = "DDA43255-513F-4353-BCA4-425ED8D2F935";
paths = (
{
closed = 1;
nodes = (
"82 198 OFFCURVE",
"228 -26 OFFCURVE",
"469 -26 CURVE",
"616 -26 OFFCURVE",
"755 59 OFFCURVE",
"857 205 CURVE",
"828 0 LINE",
"888 0 LINE",
"1028 1000 LINE",
"968 1000 LINE",
"891 454 LINE",
"859 224 OFFCURVE",
"669 34 OFFCURVE",
"471 34 CURVE",
"275 34 OFFCURVE",
"141 220 OFFCURVE",
"173 450 CURVE",
"250 1000 LINE",
"190 1000 LINE",
"113 450 LINE"
);
}
);
width = 1078;
}
);
leftKerningGroup = u;
rightKerningGroup = u;
unicode = 0075;
},
{
glyphname = v;
lastChange = "2020-02-18 22:12:51 +0000";
layers = (
{
layerId = "10BC12B3-5274-42E3-B5BC-F74F362F0DF4";
paths = (
{
closed = 1;
nodes = (
"1176 1000 LINE",
"856 1000 LINE",
"618 344 LINE",
"380 1000 LINE",
"60 1000 LINE",
"424 0 LINE",
"812 0 LINE"
);
}
);
width = 1236;
},
{
layerId = "9AF1F7D9-E035-453E-B2A8-46DE370997D0";
paths = (
{
closed = 1;
nodes = (
"864 1004 LINE",
"800 1004 LINE",
"462 74 LINE",
"124 1004 LINE",
"60 1004 LINE",
"426 0 LINE",
"498 0 LINE"
);
}
);
width = 924;
},
{
layerId = "7763577D-A4D2-4749-AE53-49BDF6EC3913";
paths = (
{
closed = 1;
nodes = (
"1249 1000 LINE",
"924 1000 LINE",
"591 344 LINE",
"448 1000 LINE",
"133 1000 LINE",
"356 0 LINE",
"744 0 LINE"
);
}
);
width = 1236;
},
{
layerId = "DDA43255-513F-4353-BCA4-425ED8D2F935";
paths = (
{
closed = 1;
nodes = (
"935 1004 LINE",
"870 1004 LINE",
"401 74 LINE",
"194 1004 LINE",
"131 1004 LINE",
"356 0 LINE",
"428 0 LINE"
);
}
);
width = 924;
}
);
leftKerningGroup = w;
rightKerningGroup = w;
unicode = 0076;
},
{
glyphname = w;
lastChange = "2020-02-18 22:12:51 +0000";
layers = (
{
layerId = "10BC12B3-5274-42E3-B5BC-F74F362F0DF4";
paths = (
{
closed = 1;
nodes = (
"874 562 LINE",
"1060 0 LINE",
"1354 0 LINE",
"1688 1000 LINE",
"1394 1000 LINE",
"1206 438 LINE",
"1020 1000 LINE",
"728 1000 LINE",
"542 438 LINE",
"354 1000 LINE",
"60 1000 LINE",
"394 0 LINE",
"688 0 LINE"
);
}
);
width = 1748;
},
{
layerId = "9AF1F7D9-E035-453E-B2A8-46DE370997D0";
paths = (
{
closed = 1;
nodes = (
"780 940 LINE",
"1098 0 LINE",
"1168 0 LINE",
"1504 1002 LINE",
"1444 1002 LINE",
"1132 72 LINE",
"820 1002 LINE",
"744 1002 LINE",
"432 72 LINE",
"118 1002 LINE",
"60 1002 LINE",
"396 0 LINE",
"464 0 LINE"
);
}
);
width = 1564;
},
{
layerId = "7763577D-A4D2-4749-AE53-49BDF6EC3913";
paths = (
{
closed = 1;
nodes = (
"887 562 LINE",
"992 0 LINE",
"1286 0 LINE",
"1761 1000 LINE",
"1462 1000 LINE",
"1193 438 LINE",
"1088 1000 LINE",
"796 1000 LINE",
"529 438 LINE",
"422 1000 LINE",
"133 1000 LINE",
"326 0 LINE",
"620 0 LINE"
);
}
);
width = 1748;
},
{
layerId = "DDA43255-513F-4353-BCA4-425ED8D2F935";
paths = (
{
closed = 1;
nodes = (
"843 940 LINE",
"1028 0 LINE",
"1098 0 LINE",
"1575 1002 LINE",
"1514 1002 LINE",
"1071 72 LINE",
"890 1002 LINE",
"814 1002 LINE",
"371 72 LINE",
"188 1002 LINE",
"131 1002 LINE",
"326 0 LINE",
"394 0 LINE"
);
}
);
width = 1564;
}
);
leftKerningGroup = w;
rightKerningGroup = w;
unicode = 0077;
},
{
glyphname = x;
lastChange = "2020-02-18 22:12:51 +0000";
layers = (
{
layerId = "10BC12B3-5274-42E3-B5BC-F74F362F0DF4";
paths = (
{
closed = 1;
nodes = (
"450 0 LINE",
"630 248 LINE",
"812 0 LINE",
"1182 0 LINE",
"816 502 LINE",
"1178 1000 LINE",
"808 1000 LINE",
"630 758 LINE",
"454 1000 LINE",
"84 1000 LINE",
"446 502 LINE",
"80 0 LINE"
);
}
);
width = 1262;
},
{
layerId = "9AF1F7D9-E035-453E-B2A8-46DE370997D0";
paths = (
{
closed = 1;
nodes = (
"154 0 LINE",
"484 452 LINE",
"812 0 LINE",
"886 0 LINE",
"520 502 LINE",
"886 1004 LINE",
"812 1004 LINE",
"484 554 LINE",
"154 1004 LINE",
"80 1004 LINE",
"446 502 LINE",
"80 0 LINE"
);
}
);
width = 966;
},
{
layerId = "7763577D-A4D2-4749-AE53-49BDF6EC3913";
paths = (
{
closed = 1;
nodes = (
"383 0 LINE",
"601 248 LINE",
"745 0 LINE",
"1109 0 LINE",
"816 502 LINE",
"1251 1000 LINE",
"875 1000 LINE",
"660 758 LINE",
"521 1000 LINE",
"157 1000 LINE",
"446 502 LINE",
"7 0 LINE"
);
}
);
width = 1262;
},
{
layerId = "DDA43255-513F-4353-BCA4-425ED8D2F935";
paths = (
{
closed = 1;
nodes = (
"84 0 LINE",
"479 452 LINE",
"742 0 LINE",
"815 0 LINE",
"520 502 LINE",
"957 1004 LINE",
"882 1004 LINE",
"490 554 LINE",
"224 1004 LINE",
"151 1004 LINE",
"446 502 LINE",
"9 0 LINE"
);
}
);
width = 966;
}
);
leftKerningGroup = x;
rightKerningGroup = x;
unicode = 0078;
},
{
glyphname = y;
lastChange = "2020-02-18 22:12:51 +0000";
layers = (
{
layerId = "10BC12B3-5274-42E3-B5BC-F74F362F0DF4";
paths = (
{
closed = 1;
nodes = (
"590 410 LINE",
"408 1000 LINE",
"80 1000 LINE",
"440 0 LINE",
"260 -500 LINE",
"578 -500 LINE",
"1126 1000 LINE",
"806 1000 LINE"
);
}
);
width = 1206;
},
{
layerId = "9AF1F7D9-E035-453E-B2A8-46DE370997D0";
paths = (
{
closed = 1;
nodes = (
"468 84 LINE",
"146 1000 LINE",
"80 1000 LINE",
"438 2 LINE",
"256 -500 LINE",
"320 -500 LINE",
"866 1000 LINE",
"804 1000 LINE"
);
}
);
width = 946;
},
{
layerId = "7763577D-A4D2-4749-AE53-49BDF6EC3913";
paths = (
{
closed = 1;
nodes = (
"573 410 LINE",
"476 1000 LINE",
"153 1000 LINE",
"370 0 LINE",
"117 -500 LINE",
"440 -500 LINE",
"1199 1000 LINE",
"874 1000 LINE"
);
}
);
width = 1206;
},
{
layerId = "DDA43255-513F-4353-BCA4-425ED8D2F935";
paths = (
{
closed = 1;
nodes = (
"409 84 LINE",
"216 1000 LINE",
"151 1000 LINE",
"368 2 LINE",
"115 -500 LINE",
"180 -500 LINE",
"937 1000 LINE",
"874 1000 LINE"
);
}
);
width = 946;
}
);
leftKerningGroup = y;
rightKerningGroup = y;
unicode = 0079;
},
{
glyphname = z;
lastChange = "2020-02-18 22:12:51 +0000";
layers = (
{
background = {
paths = (
{
closed = 1;
nodes = (
"974 1000 LINE",
"120 1000 LINE",
"120 700 LINE",
"540 700 LINE",
"120 300 LINE",
"120 0 LINE",
"974 0 LINE",
"974 300 LINE",
"554 300 LINE",
"974 700 LINE"
);
}
);
};
layerId = "10BC12B3-5274-42E3-B5BC-F74F362F0DF4";
paths = (
{
closed = 1;
nodes = (
"974 1000 LINE",
"120 1000 LINE",
"120 700 LINE",
"540 700 LINE",
"120 300 LINE",
"120 0 LINE",
"974 0 LINE",
"974 300 LINE",
"554 300 LINE",
"974 700 LINE"
);
}
);
width = 1094;
},
{
layerId = "9AF1F7D9-E035-453E-B2A8-46DE370997D0";
paths = (
{
closed = 1;
nodes = (
"954 1000 LINE",
"100 1000 LINE",
"100 940 LINE",
"874 940 LINE",
"100 60 LINE",
"100 0 LINE",
"954 0 LINE",
"954 60 LINE",
"180 60 LINE",
"954 940 LINE"
);
}
);
width = 1054;
},
{
background = {
paths = (
{
closed = 1;
nodes = (
"974 1000 LINE",
"120 1000 LINE",
"120 700 LINE",
"540 700 LINE",
"120 300 LINE",
"120 0 LINE",
"974 0 LINE",
"974 300 LINE",
"554 300 LINE",
"974 700 LINE"
);
}
);
};
layerId = "7763577D-A4D2-4749-AE53-49BDF6EC3913";
paths = (
{
closed = 1;
nodes = (
"1044 1000 LINE",
"190 1000 LINE",
"148 700 LINE",
"565 700 LINE",
"89 300 LINE",
"50 0 LINE",
"904 0 LINE",
"946 300 LINE",
"529 300 LINE",
"1005 700 LINE"
);
}
);
width = 1094;
},
{
layerId = "DDA43255-513F-4353-BCA4-425ED8D2F935";
paths = (
{
closed = 1;
nodes = (
"1024 1000 LINE",
"170 1000 LINE",
"162 940 LINE",
"935 940 LINE",
"38 60 LINE",
"30 0 LINE",
"884 0 LINE",
"892 60 LINE",
"119 60 LINE",
"1016 940 LINE"
);
}
);
width = 1054;
}
);
leftKerningGroup = z;
rightKerningGroup = z;
unicode = 007A;
},
{
glyphname = mu;
lastChange = "2020-02-18 22:12:51 +0000";
layers = (
{
layerId = "10BC12B3-5274-42E3-B5BC-F74F362F0DF4";
paths = (
{
closed = 1;
nodes = (
"380 -432 LINE",
"380 0 LINE",
"430 -18 OFFCURVE",
"484 -28 OFFCURVE",
"544 -28 CURVE SMOOTH",
"652 -28 OFFCURVE",
"734 22 OFFCURVE",
"796 92 CURVE",
"796 0 LINE",
"1096 0 LINE",
"1096 1000 LINE",
"796 1000 LINE",
"796 500 LINE SMOOTH",
"796 368 OFFCURVE",
"728 262 OFFCURVE",
"598 262 CURVE SMOOTH",
"466 262 OFFCURVE",
"380 368 OFFCURVE",
"380 500 CURVE SMOOTH",
"380 1000 LINE",
"80 1000 LINE",
"80 -432 LINE"
);
}
);
width = 1176;
},
{
layerId = "9AF1F7D9-E035-453E-B2A8-46DE370997D0";
paths = (
{
closed = 1;
nodes = (
"140 -432 LINE",
"140 208 LINE",
"212 70 OFFCURVE",
"342 -26 OFFCURVE",
"500 -26 CURVE SMOOTH",
"648 -26 OFFCURVE",
"776 60 OFFCURVE",
"858 206 CURVE",
"858 0 LINE",
"918 0 LINE",
"918 1000 LINE",
"858 1000 LINE",
"858 452 LINE SMOOTH",
"858 222 OFFCURVE",
"696 34 OFFCURVE",
"500 34 CURVE SMOOTH",
"302 34 OFFCURVE",
"140 222 OFFCURVE",
"140 452 CURVE SMOOTH",
"140 1000 LINE",
"80 1000 LINE",
"80 -432 LINE"
);
}
);
width = 998;
},
{
layerId = "7763577D-A4D2-4749-AE53-49BDF6EC3913";
paths = (
{
closed = 1;
nodes = (
"249 -432 LINE",
"318 3 LINE",
"365 -15 OFFCURVE",
"418 -28 OFFCURVE",
"487 -28 CURVE SMOOTH",
"586 -28 OFFCURVE",
"671 16 OFFCURVE",
"743 86 CURVE",
"725 0 LINE",
"1026 0 LINE",
"1166 1000 LINE",
"866 1000 LINE",
"797 508 LINE SMOOTH",
"779 376 OFFCURVE",
"686 262 OFFCURVE",
"548 262 CURVE SMOOTH",
"424 262 OFFCURVE",
"360 360 OFFCURVE",
"379 492 CURVE SMOOTH",
"450 1000 LINE",
"150 1000 LINE",
"-51 -432 LINE"
);
}
);
width = 1176;
},
{
layerId = "DDA43255-513F-4353-BCA4-425ED8D2F935";
paths = (
{
closed = 1;
nodes = (
"9 -432 LINE",
"100 209 LINE",
"153 71 OFFCURVE",
"270 -26 OFFCURVE",
"429 -26 CURVE SMOOTH",
"576 -26 OFFCURVE",
"715 59 OFFCURVE",
"817 205 CURVE",
"788 0 LINE",
"848 0 LINE",
"988 1000 LINE",
"928 1000 LINE",
"851 454 LINE SMOOTH",
"819 224 OFFCURVE",
"629 34 OFFCURVE",
"431 34 CURVE SMOOTH",
"235 34 OFFCURVE",
"101 220 OFFCURVE",
"133 450 CURVE SMOOTH",
"210 1000 LINE",
"150 1000 LINE",
"-51 -432 LINE"
);
}
);
width = 998;
}
);
leftKerningGroup = p;
rightKerningGroup = u;
unicode = 03BC;
},
{
glyphname = zero;
lastChange = "2020-02-18 22:12:51 +0000";
layers = (
{
layerId = "10BC12B3-5274-42E3-B5BC-F74F362F0DF4";
paths = (
{
closed = 1;
nodes = (
"930 -26 OFFCURVE",
"1158 300 OFFCURVE",
"1158 700 CURVE SMOOTH",
"1158 1100 OFFCURVE",
"930 1426 OFFCURVE",
"610 1426 CURVE SMOOTH",
"290 1426 OFFCURVE",
"60 1100 OFFCURVE",
"60 700 CURVE SMOOTH",
"60 300 OFFCURVE",
"290 -26 OFFCURVE",
"610 -26 CURVE SMOOTH"
);
},
{
closed = 1;
nodes = (
"426 274 OFFCURVE",
"340 484 OFFCURVE",
"340 700 CURVE SMOOTH",
"340 918 OFFCURVE",
"424 1126 OFFCURVE",
"610 1126 CURVE SMOOTH",
"788 1126 OFFCURVE",
"878 930 OFFCURVE",
"878 700 CURVE SMOOTH",
"878 482 OFFCURVE",
"796 274 OFFCURVE",
"610 274 CURVE SMOOTH"
);
}
);
width = 1218;
},
{
layerId = "9AF1F7D9-E035-453E-B2A8-46DE370997D0";
paths = (
{
closed = 1;
nodes = (
"930 -26 OFFCURVE",
"1118 300 OFFCURVE",
"1118 700 CURVE SMOOTH",
"1118 1102 OFFCURVE",
"930 1426 OFFCURVE",
"590 1426 CURVE SMOOTH",
"248 1426 OFFCURVE",
"60 1102 OFFCURVE",
"60 700 CURVE SMOOTH",
"60 300 OFFCURVE",
"248 -26 OFFCURVE",
"590 -26 CURVE SMOOTH"
);
},
{
closed = 1;
nodes = (
"286 34 OFFCURVE",
"120 332 OFFCURVE",
"120 700 CURVE SMOOTH",
"120 1058 OFFCURVE",
"276 1366 OFFCURVE",
"590 1366 CURVE SMOOTH",
"888 1366 OFFCURVE",
"1058 1082 OFFCURVE",
"1058 700 CURVE SMOOTH",
"1058 336 OFFCURVE",
"894 34 OFFCURVE",
"590 34 CURVE SMOOTH"
);
}
);
width = 1178;
},
{
layerId = "7763577D-A4D2-4749-AE53-49BDF6EC3913";
paths = (
{
closed = 1;
nodes = (
"864 -26 OFFCURVE",
"1129 292 OFFCURVE",
"1184 683 CURVE SMOOTH",
"1241 1092 OFFCURVE",
"1052 1426 OFFCURVE",
"723 1426 CURVE SMOOTH",
"412 1426 OFFCURVE",
"146 1108 OFFCURVE",
"90 717 CURVE SMOOTH",
"33 308 OFFCURVE",
"224 -26 OFFCURVE",
"553 -26 CURVE SMOOTH"
);
},
{
closed = 1;
nodes = (
"386 274 OFFCURVE",
"337 476 OFFCURVE",
"366 683 CURVE SMOOTH",
"398 910 OFFCURVE",
"520 1126 OFFCURVE",
"715 1126 CURVE SMOOTH",
"884 1126 OFFCURVE",
"940 938 OFFCURVE",
"908 717 CURVE SMOOTH",
"877 490 OFFCURVE",
"756 274 OFFCURVE",
"561 274 CURVE SMOOTH"
);
}
);
width = 1218;
},
{
layerId = "DDA43255-513F-4353-BCA4-425ED8D2F935";
paths = (
{
closed = 1;
nodes = (
"858 -26 OFFCURVE",
"1090 298 OFFCURVE",
"1146 697 CURVE SMOOTH",
"1202 1100 OFFCURVE",
"1058 1426 OFFCURVE",
"717 1426 CURVE SMOOTH",
"376 1426 OFFCURVE",
"145 1104 OFFCURVE",
"89 703 CURVE SMOOTH",
"32 302 OFFCURVE",
"176 -26 OFFCURVE",
"519 -26 CURVE SMOOTH"
);
},
{
closed = 1;
nodes = (
"219 34 OFFCURVE",
"96 330 OFFCURVE",
"148 697 CURVE SMOOTH",
"198 1056 OFFCURVE",
"399 1366 OFFCURVE",
"715 1366 CURVE SMOOTH",
"1011 1366 OFFCURVE",
"1140 1084 OFFCURVE",
"1087 703 CURVE SMOOTH",
"1035 338 OFFCURVE",
"827 34 OFFCURVE",
"521 34 CURVE SMOOTH"
);
}
);
width = 1178;
}
);
leftKerningGroup = zero;
rightKerningGroup = zero;
unicode = 0030;
},
{
glyphname = one;
lastChange = "2020-02-18 22:12:51 +0000";
layers = (
{
layerId = "10BC12B3-5274-42E3-B5BC-F74F362F0DF4";
paths = (
{
closed = 1;
nodes = (
"570 0 LINE",
"570 1400 LINE",
"160 1400 LINE",
"80 1100 LINE",
"270 1100 LINE",
"270 0 LINE"
);
}
);
width = 730;
},
{
layerId = "9AF1F7D9-E035-453E-B2A8-46DE370997D0";
paths = (
{
closed = 1;
nodes = (
"270 0 LINE",
"270 1400 LINE",
"100 1400 LINE",
"80 1340 LINE",
"210 1340 LINE",
"210 0 LINE"
);
}
);
width = 430;
},
{
layerId = "7763577D-A4D2-4749-AE53-49BDF6EC3913";
paths = (
{
closed = 1;
nodes = (
"500 0 LINE",
"696 1400 LINE",
"284 1400 LINE",
"162 1100 LINE",
"354 1100 LINE",
"200 0 LINE"
);
}
);
width = 730;
},
{
layerId = "DDA43255-513F-4353-BCA4-425ED8D2F935";
paths = (
{
closed = 1;
nodes = (
"200 0 LINE",
"396 1400 LINE",
"226 1400 LINE",
"198 1340 LINE",
"328 1340 LINE",
"140 0 LINE"
);
}
);
width = 430;
}
);
leftKerningGroup = one;
rightKerningGroup = one;
unicode = 0031;
},
{
glyphname = two;
lastChange = "2020-02-18 22:12:51 +0000";
layers = (
{
hints = (
{
horizontal = 1;
origin = "{0, 22}";
target = "{0, 2}";
type = Stem;
},
{
horizontal = 1;
origin = "{0, 15}";
target = "{0, 8}";
type = Stem;
},
{
origin = "{0, 11}";
target = "{0, 12}";
type = Stem;
},
{
origin = "{0, 18}";
target = "{0, 0}";
type = Stem;
}
);
layerId = "10BC12B3-5274-42E3-B5BC-F74F362F0DF4";
paths = (
{
closed = 1;
nodes = (
"1052 0 LINE",
"1052 300 LINE",
"632 300 LINE",
"900 560 OFFCURVE",
"1052 718 OFFCURVE",
"1052 940 CURVE SMOOTH",
"1052 1210 OFFCURVE",
"834 1426 OFFCURVE",
"568 1426 CURVE SMOOTH",
"306 1426 OFFCURVE",
"82 1216 OFFCURVE",
"82 940 CURVE",
"382 940 LINE",
"382 1042 OFFCURVE",
"466 1126 OFFCURVE",
"568 1126 CURVE SMOOTH",
"670 1126 OFFCURVE",
"752 1042 OFFCURVE",
"752 940 CURVE SMOOTH",
"752 772 OFFCURVE",
"266 384 OFFCURVE",
"80 268 CURVE",
"80 0 LINE"
);
}
);
width = 1172;
},
{
hints = (
{
horizontal = 1;
origin = "{0, 22}";
target = "{0, 2}";
type = Stem;
},
{
horizontal = 1;
origin = "{0, 15}";
target = "{0, 8}";
type = Stem;
},
{
origin = "{0, 11}";
target = "{0, 12}";
type = Stem;
},
{
origin = "{0, 18}";
target = "{0, 5}";
type = Stem;
}
);
layerId = "9AF1F7D9-E035-453E-B2A8-46DE370997D0";
paths = (
{
closed = 1;
nodes = (
"928 0 LINE",
"928 60 LINE",
"178 60 LINE",
"454 314 OFFCURVE",
"896 780 OFFCURVE",
"896 1026 CURVE SMOOTH",
"896 1246 OFFCURVE",
"718 1426 OFFCURVE",
"500 1426 CURVE SMOOTH",
"280 1426 OFFCURVE",
"102 1246 OFFCURVE",
"102 1026 CURVE",
"162 1026 LINE",
"162 1212 OFFCURVE",
"314 1366 OFFCURVE",
"500 1366 CURVE SMOOTH",
"686 1366 OFFCURVE",
"836 1212 OFFCURVE",
"836 1026 CURVE SMOOTH",
"836 782 OFFCURVE",
"400 372 OFFCURVE",
"80 52 CURVE",
"80 0 LINE"
);
}
);
width = 1048;
},
{
hints = (
{
horizontal = 1;
origin = "{0, 22}";
target = "{0, 2}";
type = Stem;
},
{
horizontal = 1;
origin = "{0, 15}";
target = "{0, 8}";
type = Stem;
},
{
origin = "{0, 11}";
target = "{0, 12}";
type = Stem;
},
{
origin = "{0, 18}";
target = "{0, 0}";
type = Stem;
}
);
layerId = "7763577D-A4D2-4749-AE53-49BDF6EC3913";
paths = (
{
closed = 1;
nodes = (
"982 0 LINE",
"1024 300 LINE",
"609 294 LINE",
"914 554 OFFCURVE",
"1081 710 OFFCURVE",
"1111 923 CURVE SMOOTH",
"1151 1202 OFFCURVE",
"956 1426 OFFCURVE",
"681 1426 CURVE SMOOTH",
"428 1426 OFFCURVE",
"184 1224 OFFCURVE",
"145 948 CURVE",
"443 932 LINE",
"457 1034 OFFCURVE",
"562 1126 OFFCURVE",
"673 1126 CURVE SMOOTH",
"766 1126 OFFCURVE",
"829 1050 OFFCURVE",
"816 957 CURVE SMOOTH",
"791 780 OFFCURVE",
"243 388 OFFCURVE",
"41 272 CURVE",
"10 0 LINE"
);
}
);
width = 1172;
},
{
hints = (
{
horizontal = 1;
origin = "{0, 22}";
target = "{0, 2}";
type = Stem;
},
{
horizontal = 1;
origin = "{0, 15}";
target = "{0, 8}";
type = Stem;
},
{
origin = "{0, 11}";
target = "{0, 12}";
type = Stem;
},
{
origin = "{0, 18}";
target = "{0, 5}";
type = Stem;
}
);
layerId = "DDA43255-513F-4353-BCA4-425ED8D2F935";
paths = (
{
closed = 1;
nodes = (
"858 0 LINE",
"866 60 LINE",
"117 59 LINE",
"429 313 OFFCURVE",
"935 778 OFFCURVE",
"969 1023 CURVE SMOOTH",
"1001 1244 OFFCURVE",
"846 1426 OFFCURVE",
"627 1426 CURVE SMOOTH",
"408 1426 OFFCURVE",
"207 1248 OFFCURVE",
"176 1028 CURVE",
"236 1024 LINE",
"262 1210 OFFCURVE",
"437 1366 OFFCURVE",
"625 1366 CURVE SMOOTH",
"809 1366 OFFCURVE",
"936 1214 OFFCURVE",
"910 1029 CURVE SMOOTH",
"876 784 OFFCURVE",
"381 373 OFFCURVE",
"16 53 CURVE",
"10 0 LINE"
);
}
);
width = 1048;
}
);
leftKerningGroup = two;
rightKerningGroup = two;
unicode = 0032;
},
{
glyphname = three;
lastChange = "2020-02-18 22:12:51 +0000";
layers = (
{
hints = (
{
horizontal = 1;
origin = "{0, 38}";
target = "{0, 31}";
type = Stem;
},
{
horizontal = 1;
origin = "{0, 25}";
target = "{0, 24}";
type = Stem;
},
{
horizontal = 1;
origin = "{0, 18}";
target = "{0, 11}";
type = Stem;
},
{
origin = "{0, 35}";
target = "{0, 34}";
type = Stem;
},
{
origin = "{0, 28}";
target = "{0, 2}";
type = Stem;
},
{
origin = "{0, 14}";
target = "{0, 15}";
type = Stem;
},
{
origin = "{0, 21}";
target = "{0, 8}";
type = Stem;
}
);
layerId = "10BC12B3-5274-42E3-B5BC-F74F362F0DF4";
paths = (
{
closed = 1;
nodes = (
"776 -26 OFFCURVE",
"984 182 OFFCURVE",
"984 436 CURVE SMOOTH",
"984 556 OFFCURVE",
"930 704 OFFCURVE",
"826 744 CURVE",
"906 786 OFFCURVE",
"946 902 OFFCURVE",
"946 996 CURVE SMOOTH",
"946 1236 OFFCURVE",
"746 1428 OFFCURVE",
"512 1428 CURVE SMOOTH",
"274 1428 OFFCURVE",
"60 1234 OFFCURVE",
"60 996 CURVE",
"360 996 LINE",
"360 1068 OFFCURVE",
"442 1128 OFFCURVE",
"516 1128 CURVE SMOOTH",
"588 1128 OFFCURVE",
"646 1068 OFFCURVE",
"646 996 CURVE SMOOTH",
"646 896 OFFCURVE",
"556 846 OFFCURVE",
"410 846 CURVE",
"410 618 LINE",
"576 618 OFFCURVE",
"684 558 OFFCURVE",
"684 436 CURVE SMOOTH",
"684 348 OFFCURVE",
"610 274 OFFCURVE",
"522 274 CURVE SMOOTH",
"434 274 OFFCURVE",
"360 348 OFFCURVE",
"360 436 CURVE",
"60 436 LINE",
"60 180 OFFCURVE",
"270 -26 OFFCURVE",
"522 -26 CURVE SMOOTH"
);
}
);
width = 1044;
},
{
background = {
paths = (
{
closed = 1;
nodes = (
"908 708 OFFCURVE",
"822 746 CURVE",
"906 804 OFFCURVE",
"942 902 OFFCURVE",
"942 1000 CURVE",
"942 1248 OFFCURVE",
"742 1424 OFFCURVE",
"498 1424 CURVE",
"252 1424 OFFCURVE",
"54 1246 OFFCURVE",
"54 1000 CURVE",
"354 1000 LINE",
"354 1080 OFFCURVE",
"418 1144 OFFCURVE",
"498 1144 CURVE",
"576 1144 OFFCURVE",
"642 1080 OFFCURVE",
"642 1000 CURVE",
"642 936 OFFCURVE",
"568 830 OFFCURVE",
"390 830 CURVE",
"390 648 LINE",
"618 648 OFFCURVE",
"678 530 OFFCURVE",
"678 446 CURVE",
"678 352 OFFCURVE",
"600 274 OFFCURVE",
"504 274 CURVE",
"410 274 OFFCURVE",
"332 352 OFFCURVE",
"332 446 CURVE",
"32 446 LINE",
"32 184 OFFCURVE",
"244 -26 OFFCURVE",
"504 -26 CURVE",
"764 -26 OFFCURVE",
"978 186 OFFCURVE",
"978 446 CURVE",
"978 560 OFFCURVE"
);
}
);
};
layerId = "9AF1F7D9-E035-453E-B2A8-46DE370997D0";
paths = (
{
closed = 1;
nodes = (
"694 -26 OFFCURVE",
"892 152 OFFCURVE",
"892 370 CURVE SMOOTH",
"892 546 OFFCURVE",
"796 678 OFFCURVE",
"614 738 CURVE",
"754 784 OFFCURVE",
"848 906 OFFCURVE",
"848 1066 CURVE SMOOTH",
"848 1264 OFFCURVE",
"666 1426 OFFCURVE",
"468 1426 CURVE SMOOTH",
"268 1426 OFFCURVE",
"86 1264 OFFCURVE",
"86 1066 CURVE",
"146 1066 LINE",
"146 1230 OFFCURVE",
"302 1366 OFFCURVE",
"468 1366 CURVE SMOOTH",
"632 1366 OFFCURVE",
"788 1230 OFFCURVE",
"788 1066 CURVE SMOOTH",
"788 870 OFFCURVE",
"636 766 OFFCURVE",
"412 766 CURVE",
"412 706 LINE",
"652 706 OFFCURVE",
"832 594 OFFCURVE",
"832 370 CURVE SMOOTH",
"832 184 OFFCURVE",
"660 34 OFFCURVE",
"476 34 CURVE SMOOTH",
"250 34 OFFCURVE",
"120 184 OFFCURVE",
"120 370 CURVE",
"60 370 LINE",
"60 152 OFFCURVE",
"218 -26 OFFCURVE",
"476 -26 CURVE SMOOTH"
);
}
);
width = 952;
},
{
hints = (
{
horizontal = 1;
origin = "{0, 38}";
target = "{0, 31}";
type = Stem;
},
{
horizontal = 1;
origin = "{0, 25}";
target = "{0, 24}";
type = Stem;
},
{
horizontal = 1;
origin = "{0, 18}";
target = "{0, 11}";
type = Stem;
},
{
origin = "{0, 35}";
target = "{0, 34}";
type = Stem;
},
{
origin = "{0, 28}";
target = "{0, 2}";
type = Stem;
},
{
origin = "{0, 14}";
target = "{0, 15}";
type = Stem;
},
{
origin = "{0, 21}";
target = "{0, 8}";
type = Stem;
}
);
layerId = "7763577D-A4D2-4749-AE53-49BDF6EC3913";
paths = (
{
closed = 1;
nodes = (
"710 -26 OFFCURVE",
"938 174 OFFCURVE",
"973 419 CURVE SMOOTH",
"991 548 OFFCURVE",
"950 701 OFFCURVE",
"859 737 CURVE",
"953 782 OFFCURVE",
"1001 894 OFFCURVE",
"1013 979 CURVE SMOOTH",
"1048 1228 OFFCURVE",
"868 1428 OFFCURVE",
"626 1428 CURVE SMOOTH",
"396 1428 OFFCURVE",
"164 1242 OFFCURVE",
"131 1004 CURVE",
"429 988 LINE",
"439 1060 OFFCURVE",
"539 1128 OFFCURVE",
"621 1128 CURVE SMOOTH",
"685 1128 OFFCURVE",
"727 1076 OFFCURVE",
"718 1013 CURVE SMOOTH",
"703 904 OFFCURVE",
"596 846 OFFCURVE",
"450 846 CURVE",
"435 618 LINE",
"601 618 OFFCURVE",
"693 566 OFFCURVE",
"677 453 CURVE SMOOTH",
"664 356 OFFCURVE",
"570 274 OFFCURVE",
"473 274 CURVE SMOOTH",
"394 274 OFFCURVE",
"337 340 OFFCURVE",
"350 428 CURVE",
"52 444 LINE",
"16 188 OFFCURVE",
"204 -26 OFFCURVE",
"465 -26 CURVE SMOOTH"
);
}
);
width = 1044;
},
{
background = {
paths = (
{
closed = 1;
nodes = (
"908 708 OFFCURVE",
"822 746 CURVE",
"906 804 OFFCURVE",
"942 902 OFFCURVE",
"942 1000 CURVE",
"942 1248 OFFCURVE",
"742 1424 OFFCURVE",
"498 1424 CURVE",
"252 1424 OFFCURVE",
"54 1246 OFFCURVE",
"54 1000 CURVE",
"354 1000 LINE",
"354 1080 OFFCURVE",
"418 1144 OFFCURVE",
"498 1144 CURVE",
"576 1144 OFFCURVE",
"642 1080 OFFCURVE",
"642 1000 CURVE",
"642 936 OFFCURVE",
"568 830 OFFCURVE",
"390 830 CURVE",
"390 648 LINE",
"618 648 OFFCURVE",
"678 530 OFFCURVE",
"678 446 CURVE",
"678 352 OFFCURVE",
"600 274 OFFCURVE",
"504 274 CURVE",
"410 274 OFFCURVE",
"332 352 OFFCURVE",
"332 446 CURVE",
"32 446 LINE",
"32 184 OFFCURVE",
"244 -26 OFFCURVE",
"504 -26 CURVE",
"764 -26 OFFCURVE",
"978 186 OFFCURVE",
"978 446 CURVE",
"978 560 OFFCURVE"
);
}
);
};
layerId = "DDA43255-513F-4353-BCA4-425ED8D2F935";
paths = (
{
closed = 1;
nodes = (
"622 -26 OFFCURVE",
"843 150 OFFCURVE",
"873 367 CURVE SMOOTH",
"898 544 OFFCURVE",
"819 677 OFFCURVE",
"647 737 CURVE",
"795 783 OFFCURVE",
"905 904 OFFCURVE",
"927 1063 CURVE SMOOTH",
"955 1262 OFFCURVE",
"794 1426 OFFCURVE",
"595 1426 CURVE SMOOTH",
"396 1426 OFFCURVE",
"194 1266 OFFCURVE",
"166 1068 CURVE",
"225 1064 LINE",
"248 1228 OFFCURVE",
"425 1366 OFFCURVE",
"593 1366 CURVE SMOOTH",
"755 1366 OFFCURVE",
"891 1232 OFFCURVE",
"868 1069 CURVE SMOOTH",
"840 872 OFFCURVE",
"672 766 OFFCURVE",
"448 766 CURVE",
"443 706 LINE",
"683 706 OFFCURVE",
"845 596 OFFCURVE",
"814 373 CURVE SMOOTH",
"788 186 OFFCURVE",
"593 34 OFFCURVE",
"407 34 CURVE SMOOTH",
"183 34 OFFCURVE",
"75 182 OFFCURVE",
"101 368 CURVE",
"42 372 LINE",
"11 154 OFFCURVE",
"146 -26 OFFCURVE",
"405 -26 CURVE SMOOTH"
);
}
);
width = 952;
}
);
leftKerningGroup = three;
rightKerningGroup = three;
unicode = 0033;
},
{
glyphname = four;
lastChange = "2020-02-18 22:12:51 +0000";
layers = (
{
layerId = "10BC12B3-5274-42E3-B5BC-F74F362F0DF4";
paths = (
{
closed = 1;
nodes = (
"972 0 LINE",
"972 310 LINE",
"1074 310 LINE",
"1074 610 LINE",
"972 610 LINE",
"972 1400 LINE",
"604 1400 LINE",
"80 610 LINE",
"80 310 LINE",
"672 310 LINE",
"672 0 LINE"
);
},
{
closed = 1;
nodes = (
"672 996 LINE",
"672 610 LINE",
"426 610 LINE"
);
}
);
width = 1194;
},
{
layerId = "9AF1F7D9-E035-453E-B2A8-46DE370997D0";
paths = (
{
closed = 1;
nodes = (
"750 0 LINE",
"750 434 LINE",
"920 434 LINE",
"920 494 LINE",
"750 494 LINE",
"750 1400 LINE",
"670 1400 LINE",
"80 498 LINE",
"80 434 LINE",
"690 434 LINE",
"690 0 LINE"
);
},
{
closed = 1;
nodes = (
"686 1302 LINE",
"690 494 LINE",
"156 498 LINE"
);
}
);
width = 1040;
},
{
layerId = "7763577D-A4D2-4749-AE53-49BDF6EC3913";
paths = (
{
closed = 1;
nodes = (
"902 0 LINE",
"945 310 LINE",
"1047 310 LINE",
"1089 610 LINE",
"987 610 LINE",
"1098 1400 LINE",
"727 1400 LINE",
"92 610 LINE",
"53 310 LINE",
"645 310 LINE",
"602 0 LINE"
);
},
{
closed = 1;
nodes = (
"745 996 LINE",
"687 610 LINE",
"445 610 LINE"
);
}
);
width = 1194;
},
{
layerId = "DDA43255-513F-4353-BCA4-425ED8D2F935";
paths = (
{
closed = 1;
nodes = (
"680 0 LINE",
"741 434 LINE",
"911 434 LINE",
"919 494 LINE",
"749 494 LINE",
"876 1400 LINE",
"796 1400 LINE",
"79 498 LINE",
"71 434 LINE",
"681 434 LINE",
"620 0 LINE"
);
},
{
closed = 1;
nodes = (
"799 1302 LINE",
"689 494 LINE",
"156 498 LINE"
);
}
);
width = 1040;
}
);
leftKerningGroup = four;
rightKerningGroup = four;
unicode = 0034;
},
{
glyphname = five;
lastChange = "2020-02-18 22:12:51 +0000";
layers = (
{
layerId = "10BC12B3-5274-42E3-B5BC-F74F362F0DF4";
paths = (
{
closed = 1;
nodes = (
"834 -26 OFFCURVE",
"1052 196 OFFCURVE",
"1052 464 CURVE SMOOTH",
"1052 732 OFFCURVE",
"852 946 OFFCURVE",
"568 958 CURVE",
"504 960 LINE",
"534 1100 LINE",
"996 1100 LINE",
"996 1400 LINE",
"290 1400 LINE",
"134 660 LINE",
"504 660 LINE SMOOTH",
"704 660 OFFCURVE",
"752 570 OFFCURVE",
"752 464 CURVE SMOOTH",
"752 358 OFFCURVE",
"666 274 OFFCURVE",
"562 274 CURVE SMOOTH",
"456 274 OFFCURVE",
"370 358 OFFCURVE",
"370 464 CURVE",
"70 464 LINE",
"70 200 OFFCURVE",
"284 -26 OFFCURVE",
"562 -26 CURVE SMOOTH"
);
}
);
width = 1172;
},
{
layerId = "9AF1F7D9-E035-453E-B2A8-46DE370997D0";
paths = (
{
closed = 1;
nodes = (
"754 -26 OFFCURVE",
"954 172 OFFCURVE",
"954 416 CURVE SMOOTH",
"954 682 OFFCURVE",
"758 858 OFFCURVE",
"472 858 CURVE SMOOTH",
"260 858 LINE",
"354 1340 LINE",
"936 1340 LINE",
"936 1400 LINE",
"306 1400 LINE",
"186 798 LINE",
"512 798 LINE SMOOTH",
"722 798 OFFCURVE",
"894 626 OFFCURVE",
"894 416 CURVE SMOOTH",
"894 206 OFFCURVE",
"722 34 OFFCURVE",
"512 34 CURVE SMOOTH",
"300 34 OFFCURVE",
"130 206 OFFCURVE",
"130 416 CURVE",
"70 416 LINE",
"70 172 OFFCURVE",
"266 -26 OFFCURVE",
"512 -26 CURVE SMOOTH"
);
}
);
width = 1074;
},
{
layerId = "7763577D-A4D2-4749-AE53-49BDF6EC3913";
paths = (
{
closed = 1;
nodes = (
"768 -26 OFFCURVE",
"1008 188 OFFCURVE",
"1045 447 CURVE SMOOTH",
"1083 724 OFFCURVE",
"906 946 OFFCURVE",
"624 958 CURVE",
"570 960 LINE",
"620 1100 LINE",
"1080 1100 LINE",
"1122 1400 LINE",
"415 1400 LINE",
"155 660 LINE",
"535 660 LINE SMOOTH",
"735 660 OFFCURVE",
"763 578 OFFCURVE",
"749 481 CURVE SMOOTH",
"733 366 OFFCURVE",
"626 274 OFFCURVE",
"513 274 CURVE SMOOTH",
"416 274 OFFCURVE",
"349 350 OFFCURVE",
"364 456 CURVE",
"66 472 LINE",
"29 208 OFFCURVE",
"218 -26 OFFCURVE",
"505 -26 CURVE SMOOTH"
);
}
);
width = 1172;
},
{
layerId = "DDA43255-513F-4353-BCA4-425ED8D2F935";
paths = (
{
closed = 1;
nodes = (
"682 -26 OFFCURVE",
"908 170 OFFCURVE",
"942 413 CURVE SMOOTH",
"979 680 OFFCURVE",
"807 858 OFFCURVE",
"521 858 CURVE SMOOTH",
"311 858 LINE",
"472 1340 LINE",
"1054 1340 LINE",
"1062 1400 LINE",
"432 1400 LINE",
"228 798 LINE",
"556 798 LINE SMOOTH",
"766 798 OFFCURVE",
"912 628 OFFCURVE",
"883 419 CURVE SMOOTH",
"853 208 OFFCURVE",
"655 34 OFFCURVE",
"443 34 CURVE SMOOTH",
"233 34 OFFCURVE",
"88 204 OFFCURVE",
"118 414 CURVE",
"58 418 LINE",
"24 174 OFFCURVE",
"194 -26 OFFCURVE",
"441 -26 CURVE SMOOTH"
);
}
);
width = 1074;
}
);
leftKerningGroup = five;
rightKerningGroup = five;
unicode = 0035;
},
{
glyphname = six;
lastChange = "2020-02-18 22:12:51 +0000";
layers = (
{
layerId = "10BC12B3-5274-42E3-B5BC-F74F362F0DF4";
paths = (
{
closed = 1;
nodes = (
"826 -26 OFFCURVE",
"1050 200 OFFCURVE",
"1050 474 CURVE SMOOTH",
"1050 730 OFFCURVE",
"860 942 OFFCURVE",
"606 972 CURVE",
"854 1400 LINE",
"506 1400 LINE",
"116 724 LINE SMOOTH",
"70 646 OFFCURVE",
"50 560 OFFCURVE",
"50 474 CURVE SMOOTH",
"50 198 OFFCURVE",
"276 -26 OFFCURVE",
"548 -26 CURVE SMOOTH"
);
},
{
closed = 1;
nodes = (
"446 274 OFFCURVE",
"350 358 OFFCURVE",
"350 472 CURVE SMOOTH",
"350 576 OFFCURVE",
"430 674 OFFCURVE",
"550 674 CURVE SMOOTH",
"664 674 OFFCURVE",
"750 582 OFFCURVE",
"750 472 CURVE SMOOTH",
"750 372 OFFCURVE",
"664 274 OFFCURVE",
"548 274 CURVE SMOOTH"
);
}
);
width = 1110;
},
{
layerId = "9AF1F7D9-E035-453E-B2A8-46DE370997D0";
paths = (
{
closed = 1;
nodes = (
"786 -26 OFFCURVE",
"1000 188 OFFCURVE",
"1000 450 CURVE SMOOTH",
"1000 820 OFFCURVE",
"594 1044 OFFCURVE",
"282 858 CURVE",
"594 1400 LINE",
"524 1400 LINE",
"124 704 LINE",
"76 610 OFFCURVE",
"50 560 OFFCURVE",
"50 450 CURVE SMOOTH",
"50 188 OFFCURVE",
"264 -26 OFFCURVE",
"524 -26 CURVE SMOOTH"
);
},
{
closed = 1;
nodes = (
"302 34 OFFCURVE",
"110 216 OFFCURVE",
"110 452 CURVE SMOOTH",
"110 672 OFFCURVE",
"290 864 OFFCURVE",
"526 864 CURVE SMOOTH",
"754 864 OFFCURVE",
"940 680 OFFCURVE",
"940 452 CURVE SMOOTH",
"940 232 OFFCURVE",
"766 34 OFFCURVE",
"524 34 CURVE SMOOTH"
);
}
);
width = 1060;
},
{
layerId = "7763577D-A4D2-4749-AE53-49BDF6EC3913";
paths = (
{
closed = 1;
nodes = (
"760 -26 OFFCURVE",
"1007 192 OFFCURVE",
"1044 457 CURVE SMOOTH",
"1081 722 OFFCURVE",
"914 941 OFFCURVE",
"664 971 CURVE",
"984 1400 LINE",
"629 1400 LINE",
"141 731 LINE SMOOTH",
"88 653 OFFCURVE",
"60 568 OFFCURVE",
"49 491 CURVE SMOOTH",
"9 206 OFFCURVE",
"210 -26 OFFCURVE",
"491 -26 CURVE SMOOTH"
);
},
{
closed = 1;
nodes = (
"406 274 OFFCURVE",
"329 350 OFFCURVE",
"344 455 CURVE SMOOTH",
"360 568 OFFCURVE",
"463 674 OFFCURVE",
"591 674 CURVE SMOOTH",
"697 674 OFFCURVE",
"763 590 OFFCURVE",
"748 489 CURVE SMOOTH",
"733 380 OFFCURVE",
"624 274 OFFCURVE",
"499 274 CURVE SMOOTH"
);
}
);
width = 1110;
},
{
layerId = "DDA43255-513F-4353-BCA4-425ED8D2F935";
paths = (
{
closed = 1;
nodes = (
"714 -26 OFFCURVE",
"956 186 OFFCURVE",
"993 447 CURVE SMOOTH",
"1045 818 OFFCURVE",
"669 1045 OFFCURVE",
"331 859 CURVE",
"721 1400 LINE",
"650 1400 LINE",
"152 705 LINE",
"91 611 OFFCURVE",
"59 562 OFFCURVE",
"43 453 CURVE SMOOTH",
"6 190 OFFCURVE",
"192 -26 OFFCURVE",
"453 -26 CURVE SMOOTH"
);
},
{
closed = 1;
nodes = (
"235 34 OFFCURVE",
"70 214 OFFCURVE",
"103 449 CURVE SMOOTH",
"134 670 OFFCURVE",
"343 864 OFFCURVE",
"581 864 CURVE SMOOTH",
"807 864 OFFCURVE",
"966 682 OFFCURVE",
"934 455 CURVE SMOOTH",
"903 234 OFFCURVE",
"699 34 OFFCURVE",
"455 34 CURVE SMOOTH"
);
}
);
width = 1060;
}
);
leftKerningGroup = six;
rightKerningGroup = six;
unicode = 0036;
},
{
glyphname = seven;
lastChange = "2020-02-18 22:12:51 +0000";
layers = (
{
layerId = "10BC12B3-5274-42E3-B5BC-F74F362F0DF4";
paths = (
{
closed = 1;
nodes = (
"440 0 LINE",
"1076 1100 LINE",
"1076 1400 LINE",
"40 1400 LINE",
"40 1100 LINE",
"728 1100 LINE",
"94 0 LINE"
);
}
);
width = 1116;
},
{
layerId = "9AF1F7D9-E035-453E-B2A8-46DE370997D0";
paths = (
{
closed = 1;
nodes = (
"232 0 LINE",
"1006 1340 LINE",
"1006 1400 LINE",
"40 1400 LINE",
"40 1340 LINE",
"936 1340 LINE",
"164 0 LINE"
);
}
);
width = 1046;
},
{
layerId = "7763577D-A4D2-4749-AE53-49BDF6EC3913";
paths = (
{
closed = 1;
nodes = (
"373 0 LINE",
"1163 1100 LINE",
"1202 1400 LINE",
"166 1400 LINE",
"124 1100 LINE",
"809 1100 LINE",
"21 0 LINE"
);
}
);
width = 1116;
},
{
layerId = "DDA43255-513F-4353-BCA4-425ED8D2F935";
paths = (
{
closed = 1;
nodes = (
"162 0 LINE",
"1125 1340 LINE",
"1132 1400 LINE",
"166 1400 LINE",
"158 1340 LINE",
"1053 1340 LINE",
"93 0 LINE"
);
}
);
width = 1046;
}
);
leftKerningGroup = seven;
rightKerningGroup = seven;
unicode = 0037;
},
{
glyphname = eight;
lastChange = "2020-02-18 22:12:51 +0000";
layers = (
{
layerId = "10BC12B3-5274-42E3-B5BC-F74F362F0DF4";
paths = (
{
closed = 1;
nodes = (
"818 -26 OFFCURVE",
"1030 176 OFFCURVE",
"1030 426 CURVE SMOOTH",
"1030 542 OFFCURVE",
"984 652 OFFCURVE",
"900 736 CURVE",
"962 810 OFFCURVE",
"1000 902 OFFCURVE",
"1000 1002 CURVE SMOOTH",
"1000 1236 OFFCURVE",
"800 1426 OFFCURVE",
"554 1426 CURVE SMOOTH",
"308 1426 OFFCURVE",
"108 1236 OFFCURVE",
"108 1002 CURVE SMOOTH",
"108 902 OFFCURVE",
"146 810 OFFCURVE",
"208 736 CURVE",
"126 652 OFFCURVE",
"80 542 OFFCURVE",
"80 426 CURVE SMOOTH",
"80 174 OFFCURVE",
"290 -26 OFFCURVE",
"554 -26 CURVE SMOOTH"
);
},
{
closed = 1;
nodes = (
"466 274 OFFCURVE",
"394 342 OFFCURVE",
"394 426 CURVE SMOOTH",
"394 510 OFFCURVE",
"466 578 OFFCURVE",
"554 578 CURVE SMOOTH",
"642 578 OFFCURVE",
"714 510 OFFCURVE",
"714 426 CURVE SMOOTH",
"714 342 OFFCURVE",
"642 274 OFFCURVE",
"554 274 CURVE SMOOTH"
);
},
{
closed = 1;
nodes = (
"482 878 OFFCURVE",
"424 934 OFFCURVE",
"424 1002 CURVE SMOOTH",
"424 1070 OFFCURVE",
"482 1126 OFFCURVE",
"554 1126 CURVE SMOOTH",
"626 1126 OFFCURVE",
"684 1070 OFFCURVE",
"684 1002 CURVE SMOOTH",
"684 934 OFFCURVE",
"626 878 OFFCURVE",
"554 878 CURVE SMOOTH"
);
}
);
width = 1110;
},
{
layerId = "9AF1F7D9-E035-453E-B2A8-46DE370997D0";
paths = (
{
closed = 1;
nodes = (
"750 -26 OFFCURVE",
"944 152 OFFCURVE",
"944 370 CURVE SMOOTH",
"944 536 OFFCURVE",
"832 678 OFFCURVE",
"674 738 CURVE",
"808 794 OFFCURVE",
"906 920 OFFCURVE",
"906 1066 CURVE SMOOTH",
"906 1264 OFFCURVE",
"728 1426 OFFCURVE",
"512 1426 CURVE SMOOTH",
"296 1426 OFFCURVE",
"118 1264 OFFCURVE",
"118 1066 CURVE SMOOTH",
"118 920 OFFCURVE",
"216 794 OFFCURVE",
"350 738 CURVE",
"194 678 OFFCURVE",
"80 536 OFFCURVE",
"80 370 CURVE SMOOTH",
"80 152 OFFCURVE",
"274 -26 OFFCURVE",
"512 -26 CURVE SMOOTH"
);
},
{
closed = 1;
nodes = (
"312 34 OFFCURVE",
"146 184 OFFCURVE",
"146 370 CURVE SMOOTH",
"146 556 OFFCURVE",
"312 706 OFFCURVE",
"512 706 CURVE SMOOTH",
"716 706 OFFCURVE",
"878 556 OFFCURVE",
"878 370 CURVE SMOOTH",
"878 184 OFFCURVE",
"716 34 OFFCURVE",
"512 34 CURVE SMOOTH"
);
},
{
closed = 1;
nodes = (
"330 766 OFFCURVE",
"184 900 OFFCURVE",
"184 1066 CURVE SMOOTH",
"184 1232 OFFCURVE",
"330 1366 OFFCURVE",
"512 1366 CURVE SMOOTH",
"694 1366 OFFCURVE",
"840 1232 OFFCURVE",
"840 1066 CURVE SMOOTH",
"840 900 OFFCURVE",
"694 766 OFFCURVE",
"512 766 CURVE SMOOTH"
);
}
);
width = 1024;
},
{
layerId = "7763577D-A4D2-4749-AE53-49BDF6EC3913";
paths = (
{
closed = 1;
nodes = (
"752 -26 OFFCURVE",
"983 168 OFFCURVE",
"1017 409 CURVE SMOOTH",
"1035 534 OFFCURVE",
"999 646 OFFCURVE",
"931 724 CURVE",
"1010 804 OFFCURVE",
"1055 894 OFFCURVE",
"1068 985 CURVE SMOOTH",
"1102 1228 OFFCURVE",
"922 1426 OFFCURVE",
"667 1426 CURVE SMOOTH",
"430 1426 OFFCURVE",
"213 1244 OFFCURVE",
"181 1019 CURVE SMOOTH",
"166 910 OFFCURVE",
"196 816 OFFCURVE",
"242 748 CURVE",
"142 658 OFFCURVE",
"87 550 OFFCURVE",
"72 443 CURVE SMOOTH",
"35 182 OFFCURVE",
"224 -26 OFFCURVE",
"497 -26 CURVE SMOOTH"
);
},
{
closed = 1;
nodes = (
"426 274 OFFCURVE",
"371 334 OFFCURVE",
"381 409 CURVE SMOOTH",
"394 502 OFFCURVE",
"485 578 OFFCURVE",
"582 578 CURVE SMOOTH",
"661 578 OFFCURVE",
"717 518 OFFCURVE",
"706 443 CURVE SMOOTH",
"693 350 OFFCURVE",
"602 274 OFFCURVE",
"505 274 CURVE SMOOTH"
);
},
{
closed = 1;
nodes = (
"527 878 OFFCURVE",
"484 926 OFFCURVE",
"492 985 CURVE SMOOTH",
"503 1062 OFFCURVE",
"578 1126 OFFCURVE",
"659 1126 CURVE SMOOTH",
"722 1126 OFFCURVE",
"765 1078 OFFCURVE",
"757 1019 CURVE SMOOTH",
"746 942 OFFCURVE",
"671 878 OFFCURVE",
"590 878 CURVE SMOOTH"
);
}
);
width = 1110;
},
{
layerId = "DDA43255-513F-4353-BCA4-425ED8D2F935";
paths = (
{
closed = 1;
nodes = (
"678 -26 OFFCURVE",
"895 150 OFFCURVE",
"925 367 CURVE SMOOTH",
"949 534 OFFCURVE",
"855 677 OFFCURVE",
"707 737 CURVE",
"851 793 OFFCURVE",
"965 918 OFFCURVE",
"985 1063 CURVE SMOOTH",
"1013 1262 OFFCURVE",
"856 1426 OFFCURVE",
"639 1426 CURVE SMOOTH",
"424 1426 OFFCURVE",
"226 1266 OFFCURVE",
"198 1069 CURVE SMOOTH",
"177 922 OFFCURVE",
"259 795 OFFCURVE",
"384 739 CURVE",
"218 679 OFFCURVE",
"85 538 OFFCURVE",
"62 373 CURVE SMOOTH",
"31 154 OFFCURVE",
"202 -26 OFFCURVE",
"441 -26 CURVE SMOOTH"
);
},
{
closed = 1;
nodes = (
"245 34 OFFCURVE",
"101 182 OFFCURVE",
"127 367 CURVE SMOOTH",
"154 554 OFFCURVE",
"343 706 OFFCURVE",
"544 706 CURVE SMOOTH",
"747 706 OFFCURVE",
"886 558 OFFCURVE",
"860 373 CURVE SMOOTH",
"834 186 OFFCURVE",
"649 34 OFFCURVE",
"443 34 CURVE SMOOTH"
);
},
{
closed = 1;
nodes = (
"366 766 OFFCURVE",
"240 898 OFFCURVE",
"263 1063 CURVE SMOOTH",
"287 1230 OFFCURVE",
"453 1366 OFFCURVE",
"637 1366 CURVE SMOOTH",
"817 1366 OFFCURVE",
"943 1234 OFFCURVE",
"920 1069 CURVE SMOOTH",
"896 902 OFFCURVE",
"730 766 OFFCURVE",
"546 766 CURVE SMOOTH"
);
}
);
width = 1024;
}
);
leftKerningGroup = eight;
rightKerningGroup = eight;
unicode = 0038;
},
{
glyphname = nine;
lastChange = "2020-02-18 22:12:51 +0000";
layers = (
{
layerId = "10BC12B3-5274-42E3-B5BC-F74F362F0DF4";
paths = (
{
closed = 1;
nodes = (
"604 0 LINE",
"994 676 LINE SMOOTH",
"1040 754 OFFCURVE",
"1060 840 OFFCURVE",
"1060 926 CURVE SMOOTH",
"1060 1202 OFFCURVE",
"834 1426 OFFCURVE",
"562 1426 CURVE SMOOTH",
"284 1426 OFFCURVE",
"60 1200 OFFCURVE",
"60 926 CURVE SMOOTH",
"60 670 OFFCURVE",
"250 458 OFFCURVE",
"504 428 CURVE",
"256 0 LINE"
);
},
{
closed = 1;
nodes = (
"446 726 OFFCURVE",
"360 818 OFFCURVE",
"360 928 CURVE SMOOTH",
"360 1028 OFFCURVE",
"446 1126 OFFCURVE",
"562 1126 CURVE SMOOTH",
"664 1126 OFFCURVE",
"760 1042 OFFCURVE",
"760 928 CURVE SMOOTH",
"760 824 OFFCURVE",
"680 726 OFFCURVE",
"560 726 CURVE SMOOTH"
);
}
);
width = 1120;
},
{
layerId = "9AF1F7D9-E035-453E-B2A8-46DE370997D0";
paths = (
{
closed = 1;
nodes = (
"468 0 LINE",
"888 734 LINE",
"934 824 OFFCURVE",
"960 870 OFFCURVE",
"960 974 CURVE SMOOTH",
"960 1222 OFFCURVE",
"756 1426 OFFCURVE",
"510 1426 CURVE SMOOTH",
"262 1426 OFFCURVE",
"60 1222 OFFCURVE",
"60 974 CURVE SMOOTH",
"60 624 OFFCURVE",
"444 412 OFFCURVE",
"740 588 CURVE",
"400 0 LINE"
);
},
{
closed = 1;
nodes = (
"292 582 OFFCURVE",
"116 756 OFFCURVE",
"116 972 CURVE SMOOTH",
"116 1182 OFFCURVE",
"280 1368 OFFCURVE",
"510 1368 CURVE SMOOTH",
"720 1368 OFFCURVE",
"902 1196 OFFCURVE",
"902 972 CURVE SMOOTH",
"902 764 OFFCURVE",
"732 582 OFFCURVE",
"508 582 CURVE SMOOTH"
);
}
);
width = 1020;
},
{
layerId = "7763577D-A4D2-4749-AE53-49BDF6EC3913";
paths = (
{
closed = 1;
nodes = (
"537 0 LINE",
"1025 669 LINE SMOOTH",
"1079 747 OFFCURVE",
"1107 832 OFFCURVE",
"1118 909 CURVE SMOOTH",
"1157 1194 OFFCURVE",
"956 1426 OFFCURVE",
"675 1426 CURVE SMOOTH",
"406 1426 OFFCURVE",
"160 1208 OFFCURVE",
"122 943 CURVE SMOOTH",
"85 678 OFFCURVE",
"253 459 OFFCURVE",
"502 429 CURVE",
"183 0 LINE"
);
},
{
closed = 1;
nodes = (
"469 726 OFFCURVE",
"404 810 OFFCURVE",
"418 911 CURVE SMOOTH",
"433 1020 OFFCURVE",
"542 1126 OFFCURVE",
"667 1126 CURVE SMOOTH",
"760 1126 OFFCURVE",
"837 1050 OFFCURVE",
"823 945 CURVE SMOOTH",
"807 832 OFFCURVE",
"703 726 OFFCURVE",
"575 726 CURVE SMOOTH"
);
}
);
width = 1120;
},
{
layerId = "DDA43255-513F-4353-BCA4-425ED8D2F935";
paths = (
{
closed = 1;
nodes = (
"398 0 LINE",
"922 733 LINE",
"980 823 OFFCURVE",
"1012 868 OFFCURVE",
"1026 971 CURVE SMOOTH",
"1061 1220 OFFCURVE",
"884 1426 OFFCURVE",
"637 1426 CURVE SMOOTH",
"390 1426 OFFCURVE",
"162 1224 OFFCURVE",
"127 977 CURVE SMOOTH",
"78 626 OFFCURVE",
"433 411 OFFCURVE",
"754 587 CURVE",
"329 0 LINE"
);
},
{
closed = 1;
nodes = (
"302 582 OFFCURVE",
"152 754 OFFCURVE",
"182 969 CURVE SMOOTH",
"212 1180 OFFCURVE",
"404 1368 OFFCURVE",
"635 1368 CURVE SMOOTH",
"844 1368 OFFCURVE",
"1000 1198 OFFCURVE",
"969 975 CURVE SMOOTH",
"939 766 OFFCURVE",
"742 582 OFFCURVE",
"516 582 CURVE SMOOTH"
);
}
);
width = 1020;
}
);
leftKerningGroup = nine;
rightKerningGroup = nine;
unicode = 0039;
},
{
glyphname = zeroinferior;
lastChange = "2020-02-18 22:12:51 +0000";
layers = (
{
layerId = "10BC12B3-5274-42E3-B5BC-F74F362F0DF4";
paths = (
{
closed = 1;
nodes = (
"463 -31 OFFCURVE",
"576 125 OFFCURVE",
"576 317 CURVE",
"576 506 OFFCURVE",
"463 662 OFFCURVE",
"324 662 CURVE",
"185 662 OFFCURVE",
"72 506 OFFCURVE",
"72 317 CURVE",
"72 125 OFFCURVE",
"185 -31 OFFCURVE",
"324 -31 CURVE"
);
},
{
closed = 1;
nodes = (
"269 137 OFFCURVE",
"240 238 OFFCURVE",
"240 317 CURVE",
"240 386 OFFCURVE",
"264 494 OFFCURVE",
"324 494 CURVE",
"377 494 OFFCURVE",
"408 391 OFFCURVE",
"408 317 CURVE",
"408 252 OFFCURVE",
"379 137 OFFCURVE",
"324 137 CURVE"
);
}
);
width = 648;
},
{
layerId = "9AF1F7D9-E035-453E-B2A8-46DE370997D0";
paths = (
{
closed = 1;
nodes = (
"463 -31 OFFCURVE",
"576 109 OFFCURVE",
"576 301 CURVE",
"576 493 OFFCURVE",
"463 636 OFFCURVE",
"324 636 CURVE",
"185 636 OFFCURVE",
"72 493 OFFCURVE",
"72 301 CURVE",
"72 109 OFFCURVE",
"185 -31 OFFCURVE",
"324 -31 CURVE"
);
},
{
closed = 1;
nodes = (
"218 41 OFFCURVE",
"144 167 OFFCURVE",
"144 301 CURVE",
"144 431 OFFCURVE",
"214 564 OFFCURVE",
"324 564 CURVE",
"430 564 OFFCURVE",
"504 438 OFFCURVE",
"504 301 CURVE",
"504 174 OFFCURVE",
"434 41 OFFCURVE",
"324 41 CURVE"
);
}
);
width = 648;
},
{
layerId = "7763577D-A4D2-4749-AE53-49BDF6EC3913";
paths = (
{
closed = 1;
nodes = (
"397 -31 OFFCURVE",
"522 117 OFFCURVE",
"548 300 CURVE",
"576 498 OFFCURVE",
"477 662 OFFCURVE",
"330 662 CURVE",
"199 662 OFFCURVE",
"74 514 OFFCURVE",
"49 334 CURVE",
"20 133 OFFCURVE",
"119 -31 OFFCURVE",
"266 -31 CURVE"
);
},
{
closed = 1;
nodes = (
"210 137 OFFCURVE",
"202 230 OFFCURVE",
"212 300 CURVE",
"223 378 OFFCURVE",
"272 494 OFFCURVE",
"340 494 CURVE",
"385 494 OFFCURVE",
"394 399 OFFCURVE",
"385 334 CURVE",
"374 260 OFFCURVE",
"320 137 OFFCURVE",
"256 137 CURVE"
);
}
);
width = 648;
},
{
layerId = "DDA43255-513F-4353-BCA4-425ED8D2F935";
paths = (
{
closed = 1;
nodes = (
"390 -31 OFFCURVE",
"521 107 OFFCURVE",
"548 298 CURVE",
"575 491 OFFCURVE",
"480 636 OFFCURVE",
"340 636 CURVE",
"202 636 OFFCURVE",
"71 495 OFFCURVE",
"45 304 CURVE",
"17 111 OFFCURVE",
"112 -31 OFFCURVE",
"253 -31 CURVE"
);
},
{
closed = 1;
nodes = (
"152 41 OFFCURVE",
"97 165 OFFCURVE",
"116 298 CURVE",
"134 429 OFFCURVE",
"225 564 OFFCURVE",
"336 564 CURVE",
"441 564 OFFCURVE",
"496 440 OFFCURVE",
"477 304 CURVE",
"458 176 OFFCURVE",
"368 41 OFFCURVE",
"256 41 CURVE"
);
}
);
width = 648;
}
);
leftKerningGroup = zero.dnom;
rightKerningGroup = zero.dnom;
unicode = 2080;
},
{
glyphname = oneinferior;
lastChange = "2020-02-18 22:12:51 +0000";
layers = (
{
layerId = "10BC12B3-5274-42E3-B5BC-F74F362F0DF4";
paths = (
{
closed = 1;
nodes = (
"322 0 LINE",
"322 631 LINE",
"120 631 LINE",
"96 463 LINE",
"154 463 LINE",
"154 0 LINE"
);
}
);
width = 466;
},
{
layerId = "9AF1F7D9-E035-453E-B2A8-46DE370997D0";
paths = (
{
closed = 1;
nodes = (
"257 0 LINE",
"257 631 LINE",
"106 631 LINE",
"96 559 LINE",
"185 559 LINE",
"185 0 LINE"
);
}
);
width = 401;
},
{
layerId = "7763577D-A4D2-4749-AE53-49BDF6EC3913";
paths = (
{
closed = 1;
nodes = (
"252 0 LINE",
"340 631 LINE",
"137 631 LINE",
"90 463 LINE",
"149 463 LINE",
"84 0 LINE"
);
}
);
width = 466;
},
{
layerId = "DDA43255-513F-4353-BCA4-425ED8D2F935";
paths = (
{
closed = 1;
nodes = (
"187 0 LINE",
"275 631 LINE",
"124 631 LINE",
"104 559 LINE",
"193 559 LINE",
"115 0 LINE"
);
}
);
width = 401;
}
);
leftKerningGroup = one.dnom;
rightKerningGroup = one.dnom;
unicode = 2081;
},
{
glyphname = twoinferior;
lastChange = "2020-02-18 22:12:51 +0000";
layers = (
{
layerId = "10BC12B3-5274-42E3-B5BC-F74F362F0DF4";
paths = (
{
closed = 1;
nodes = (
"571 0 LINE",
"571 168 LINE",
"403 168 LINE",
"490 245 OFFCURVE",
"583 314 OFFCURVE",
"583 418 CURVE",
"583 552 OFFCURVE",
"475 662 OFFCURVE",
"341 662 CURVE",
"206 662 OFFCURVE",
"96 552 OFFCURVE",
"96 418 CURVE",
"264 418 LINE",
"264 461 OFFCURVE",
"298 494 OFFCURVE",
"341 494 CURVE",
"382 494 OFFCURVE",
"415 461 OFFCURVE",
"415 418 CURVE",
"343 281 OFFCURVE",
"211 226 OFFCURVE",
"96 146 CURVE",
"96 0 LINE"
);
}
);
width = 727;
},
{
layerId = "9AF1F7D9-E035-453E-B2A8-46DE370997D0";
paths = (
{
closed = 1;
nodes = (
"526 0 LINE",
"526 72 LINE",
"218 72 LINE",
"341 156 OFFCURVE",
"526 326 OFFCURVE",
"526 446 CURVE SMOOTH",
"526 564 OFFCURVE",
"430 650 OFFCURVE",
"312 650 CURVE SMOOTH",
"192 650 OFFCURVE",
"96 564 OFFCURVE",
"96 446 CURVE",
"168 446 LINE",
"168 526 OFFCURVE",
"233 578 OFFCURVE",
"312 578 CURVE SMOOTH",
"391 578 OFFCURVE",
"454 526 OFFCURVE",
"454 446 CURVE SMOOTH",
"454 331 OFFCURVE",
"194 139 OFFCURVE",
"96 74 CURVE",
"96 0 LINE"
);
}
);
width = 670;
},
{
layerId = "7763577D-A4D2-4749-AE53-49BDF6EC3913";
paths = (
{
closed = 1;
nodes = (
"501 0 LINE",
"524 168 LINE",
"362 162 LINE",
"460 239 OFFCURVE",
"556 306 OFFCURVE",
"569 401 CURVE",
"589 544 OFFCURVE",
"489 662 OFFCURVE",
"347 662 CURVE",
"220 662 OFFCURVE",
"104 560 OFFCURVE",
"86 426 CURVE",
"251 410 LINE",
"257 453 OFFCURVE",
"306 494 OFFCURVE",
"357 494 CURVE",
"390 494 OFFCURVE",
"411 469 OFFCURVE",
"402 434 CURVE",
"310 289 OFFCURVE",
"166 231 OFFCURVE",
"40 151 CURVE",
"26 0 LINE"
);
}
);
width = 727;
},
{
layerId = "DDA43255-513F-4353-BCA4-425ED8D2F935";
paths = (
{
closed = 1;
nodes = (
"456 0 LINE",
"466 72 LINE",
"159 71 LINE",
"294 155 OFFCURVE",
"501 324 OFFCURVE",
"518 443 CURVE SMOOTH",
"535 562 OFFCURVE",
"449 650 OFFCURVE",
"330 650 CURVE SMOOTH",
"211 650 OFFCURVE",
"105 566 OFFCURVE",
"89 448 CURVE",
"160 444 LINE",
"171 524 OFFCURVE",
"246 578 OFFCURVE",
"326 578 CURVE SMOOTH",
"404 578 OFFCURVE",
"458 528 OFFCURVE",
"447 449 CURVE SMOOTH",
"430 333 OFFCURVE",
"142 140 OFFCURVE",
"35 75 CURVE",
"26 0 LINE"
);
}
);
width = 670;
}
);
leftKerningGroup = two.dnom;
rightKerningGroup = two.dnom;
unicode = 2082;
},
{
glyphname = threeinferior;
lastChange = "2020-02-18 22:12:51 +0000";
layers = (
{
layerId = "10BC12B3-5274-42E3-B5BC-F74F362F0DF4";
paths = (
{
closed = 1;
nodes = (
"415 -31 OFFCURVE",
"516 70 OFFCURVE",
"516 192 CURVE SMOOTH",
"516 242 OFFCURVE",
"499 295 OFFCURVE",
"463 334 CURVE",
"487 370 OFFCURVE",
"499 410 OFFCURVE",
"499 454 CURVE SMOOTH",
"499 569 OFFCURVE",
"406 662 OFFCURVE",
"290 662 CURVE SMOOTH",
"175 662 OFFCURVE",
"82 569 OFFCURVE",
"82 454 CURVE",
"250 454 LINE",
"250 475 OFFCURVE",
"269 494 OFFCURVE",
"290 494 CURVE SMOOTH",
"312 494 OFFCURVE",
"331 475 OFFCURVE",
"331 454 CURVE SMOOTH",
"331 425 OFFCURVE",
"314 382 OFFCURVE",
"238 382 CURVE",
"238 276 LINE",
"312 276 OFFCURVE",
"348 230 OFFCURVE",
"348 192 CURVE SMOOTH",
"348 161 OFFCURVE",
"324 137 OFFCURVE",
"295 137 CURVE SMOOTH",
"264 137 OFFCURVE",
"240 161 OFFCURVE",
"240 192 CURVE",
"72 192 LINE",
"72 70 OFFCURVE",
"173 -31 OFFCURVE",
"295 -31 CURVE SMOOTH"
);
}
);
width = 588;
},
{
layerId = "9AF1F7D9-E035-453E-B2A8-46DE370997D0";
paths = (
{
closed = 1;
nodes = (
"379 -31 OFFCURVE",
"468 46 OFFCURVE",
"468 156 CURVE SMOOTH",
"468 238 OFFCURVE",
"437 276 OFFCURVE",
"377 322 CURVE",
"415 341 OFFCURVE",
"449 403 OFFCURVE",
"449 466 CURVE SMOOTH",
"449 566 OFFCURVE",
"367 636 OFFCURVE",
"266 636 CURVE SMOOTH",
"166 636 OFFCURVE",
"84 566 OFFCURVE",
"84 466 CURVE",
"156 466 LINE",
"156 526 OFFCURVE",
"206 564 OFFCURVE",
"266 564 CURVE SMOOTH",
"326 564 OFFCURVE",
"377 526 OFFCURVE",
"377 466 CURVE SMOOTH",
"377 394 OFFCURVE",
"324 355 OFFCURVE",
"233 355 CURVE",
"233 283 LINE",
"336 283 OFFCURVE",
"396 235 OFFCURVE",
"396 156 CURVE SMOOTH",
"396 86 OFFCURVE",
"341 41 OFFCURVE",
"271 41 CURVE SMOOTH",
"199 41 OFFCURVE",
"144 86 OFFCURVE",
"144 156 CURVE",
"72 156 LINE",
"72 46 OFFCURVE",
"161 -31 OFFCURVE",
"271 -31 CURVE SMOOTH"
);
}
);
width = 540;
},
{
layerId = "7763577D-A4D2-4749-AE53-49BDF6EC3913";
paths = (
{
closed = 1;
nodes = (
"349 -31 OFFCURVE",
"454 62 OFFCURVE",
"470 175 CURVE SMOOTH",
"479 234 OFFCURVE",
"464 289 OFFCURVE",
"437 321 CURVE",
"473 363 OFFCURVE",
"485 402 OFFCURVE",
"490 437 CURVE SMOOTH",
"508 561 OFFCURVE",
"420 662 OFFCURVE",
"296 662 CURVE SMOOTH",
"189 662 OFFCURVE",
"93 577 OFFCURVE",
"77 462 CURVE",
"242 446 LINE",
"245 467 OFFCURVE",
"277 494 OFFCURVE",
"306 494 CURVE SMOOTH",
"320 494 OFFCURVE",
"329 483 OFFCURVE",
"327 471 CURVE SMOOTH",
"322 433 OFFCURVE",
"289 382 OFFCURVE",
"213 382 CURVE",
"216 276 LINE",
"289 276 OFFCURVE",
"311 238 OFFCURVE",
"307 209 CURVE SMOOTH",
"302 169 OFFCURVE",
"265 137 OFFCURVE",
"227 137 CURVE SMOOTH",
"205 137 OFFCURVE",
"191 153 OFFCURVE",
"196 184 CURVE",
"30 200 LINE",
"13 78 OFFCURVE",
"107 -31 OFFCURVE",
"237 -31 CURVE SMOOTH"
);
}
);
width = 588;
},
{
layerId = "DDA43255-513F-4353-BCA4-425ED8D2F935";
paths = (
{
closed = 1;
nodes = (
"306 -31 OFFCURVE",
"404 44 OFFCURVE",
"419 153 CURVE SMOOTH",
"431 236 OFFCURVE",
"404 275 OFFCURVE",
"352 320 CURVE",
"394 340 OFFCURVE",
"435 401 OFFCURVE",
"444 463 CURVE SMOOTH",
"458 564 OFFCURVE",
"384 636 OFFCURVE",
"282 636 CURVE SMOOTH",
"183 636 OFFCURVE",
"94 568 OFFCURVE",
"79 468 CURVE",
"151 464 LINE",
"159 524 OFFCURVE",
"217 564 OFFCURVE",
"278 564 CURVE SMOOTH",
"337 564 OFFCURVE",
"381 528 OFFCURVE",
"373 469 CURVE SMOOTH",
"362 396 OFFCURVE",
"302 355 OFFCURVE",
"211 355 CURVE",
"204 283 LINE",
"307 283 OFFCURVE",
"359 237 OFFCURVE",
"348 159 CURVE SMOOTH",
"338 88 OFFCURVE",
"275 41 OFFCURVE",
"203 41 CURVE SMOOTH",
"133 41 OFFCURVE",
"86 84 OFFCURVE",
"95 154 CURVE",
"24 158 LINE",
"8 48 OFFCURVE",
"88 -31 OFFCURVE",
"200 -31 CURVE SMOOTH"
);
}
);
width = 540;
}
);
leftKerningGroup = three.dnom;
rightKerningGroup = three.dnom;
unicode = 2083;
},
{
glyphname = fourinferior;
lastChange = "2020-02-18 22:12:51 +0000";
layers = (
{
layerId = "10BC12B3-5274-42E3-B5BC-F74F362F0DF4";
paths = (
{
closed = 1;
nodes = (
"499 0 LINE",
"499 86 LINE",
"552 86 LINE",
"552 254 LINE",
"499 254 LINE",
"499 631 LINE",
"314 631 LINE",
"96 288 LINE",
"96 86 LINE",
"331 86 LINE",
"331 0 LINE"
);
},
{
closed = 1;
nodes = (
"348 396 LINE",
"348 254 LINE",
"259 254 LINE"
);
}
);
width = 696;
},
{
layerId = "9AF1F7D9-E035-453E-B2A8-46DE370997D0";
paths = (
{
closed = 1;
nodes = (
"451 0 LINE",
"451 139 LINE",
"530 139 LINE",
"530 211 LINE",
"451 211 LINE",
"451 631 LINE",
"353 631 LINE",
"96 226 LINE",
"96 139 LINE",
"379 139 LINE",
"379 0 LINE"
);
},
{
closed = 1;
nodes = (
"379 535 LINE",
"379 211 LINE",
"173 211 LINE"
);
}
);
width = 674;
},
{
layerId = "7763577D-A4D2-4749-AE53-49BDF6EC3913";
paths = (
{
closed = 1;
nodes = (
"429 0 LINE",
"441 86 LINE",
"494 86 LINE",
"517 254 LINE",
"464 254 LINE",
"517 631 LINE",
"329 631 LINE",
"63 288 LINE",
"38 86 LINE",
"273 86 LINE",
"261 0 LINE"
);
},
{
closed = 1;
nodes = (
"336 396 LINE",
"313 254 LINE",
"228 254 LINE"
);
}
);
width = 696;
},
{
layerId = "DDA43255-513F-4353-BCA4-425ED8D2F935";
paths = (
{
closed = 1;
nodes = (
"381 0 LINE",
"400 139 LINE",
"479 139 LINE",
"489 211 LINE",
"410 211 LINE",
"469 631 LINE",
"371 631 LINE",
"57 226 LINE",
"45 139 LINE",
"328 139 LINE",
"309 0 LINE"
);
},
{
closed = 1;
nodes = (
"385 535 LINE",
"338 211 LINE",
"133 211 LINE"
);
}
);
width = 674;
}
);
leftKerningGroup = four.dnom;
rightKerningGroup = four.dnom;
unicode = 2084;
},
